<svg width="356" height="362" viewBox="0 0 356 362" fill="none" xmlns="http://www.w3.org/2000/svg">
<path d="M257.034 106.069C278.944 151.652 312.931 180.804 332.924 171.226C352.918 161.649 351.356 116.903 329.443 71.3557C307.533 25.7728 273.546 -3.37892 253.553 6.19841C233.557 15.8114 235.121 60.522 257.032 106.105L257.034 106.069Z" fill="url(#paint0_linear_6402_2)"/>
<path d="M235.649 27.0267C231.696 46.8149 237.359 77.4077 252.25 108.353C267.141 139.299 287.496 162.813 305.428 172.116L310.88 183.492L330.133 174.258C330.133 174.258 330.28 174.196 330.318 174.163C330.392 174.132 330.466 174.102 330.504 174.068L330.726 173.976C350.619 163.783 348.905 118.632 326.775 72.6042C304.642 26.6119 270.433 -2.94941 250.043 6.13475L230.159 15.6839L235.611 27.0599L235.649 27.0267Z" fill="url(#paint1_linear_6402_2)"/>
<path d="M233.738 117.245C256.027 163.57 290.586 193.263 310.915 183.494C331.245 173.725 329.661 128.261 307.374 81.8995C285.088 35.5383 250.526 5.88098 230.197 15.65C209.867 25.419 211.451 70.8833 233.738 117.245Z" fill="url(#paint2_linear_6402_2)"/>
<path d="M237.271 115.573C256.207 154.949 285.028 180.406 301.645 172.434C318.262 164.461 316.382 126.078 297.446 86.702C278.511 47.3263 249.689 21.869 233.073 29.8416C216.456 37.8142 218.335 76.1975 237.271 115.573Z" fill="url(#paint3_linear_6402_2)"/>
<path d="M238.371 34.8454C253.692 27.4879 280.128 50.707 297.433 86.6563C314.737 122.641 316.321 157.752 301.036 165.112C285.714 172.469 259.278 149.25 241.973 113.301C224.67 77.3162 223.085 42.2053 238.406 34.8479L238.371 34.8454Z" fill="url(#paint4_radial_6402_2)"/>
<path d="M296.539 87.1315C313.845 123.081 315.058 158.381 299.291 165.958C283.489 173.533 256.681 150.503 239.375 114.554C222.072 78.5691 220.824 43.2665 236.626 35.6916C252.393 28.1143 279.236 51.1466 296.539 87.1315ZM231.769 118.219C253.68 163.801 287.666 192.953 307.66 183.376C327.653 173.799 326.091 129.052 304.178 83.5051C282.268 37.9223 248.282 8.77049 228.288 18.3478C208.292 27.9608 209.857 72.6715 231.767 118.254L231.769 118.219Z" fill="url(#paint5_linear_6402_2)"/>
<path d="M245.862 103.755L251.816 116.168L256.305 114.008C258.059 117.676 259.976 121.069 262.02 124.184C264.063 127.299 266.103 129.948 268.139 132.131C270.143 134.276 272.114 135.846 274.023 136.766C275.929 137.722 277.645 137.805 279.165 137.086C281.242 136.084 282.477 134.306 282.834 131.752C283.19 129.197 283.066 126.322 282.498 123.131C281.931 119.939 281.018 116.544 279.83 112.986C278.64 109.465 277.539 106.2 276.492 103.19C275.481 100.182 274.726 97.622 274.227 95.5095C273.728 93.3971 273.886 92.1541 274.629 91.7757C275.11 91.5583 275.804 91.893 276.745 92.8179C277.685 93.7429 278.751 95.4289 279.876 97.8354C281.571 101.32 282.59 104.723 283.01 107.976C283.395 111.227 282.972 113.706 281.742 115.412L289.391 131.31L300.967 125.736L293.318 109.837L291.426 110.744C290.539 106.456 289.419 102.437 288.065 98.6894L292.888 96.3724L286.934 83.9585L282.521 86.0531C280.693 82.4156 278.776 79.0227 276.771 75.8745C274.765 72.7262 272.799 70.0464 270.799 67.8658C268.798 65.6852 266.862 64.1181 264.989 63.2001C263.116 62.2822 261.401 62.1992 259.842 62.951C257.726 63.9867 256.456 65.7616 256.097 68.3519C255.738 70.9423 255.824 73.8501 256.422 77.1158C257.023 80.3459 257.933 83.7765 259.152 87.4076C260.371 91.0387 261.502 94.3772 262.549 97.3874C263.593 100.433 264.382 103.031 264.914 105.182C265.444 107.368 265.357 108.616 264.578 108.992C263.947 109.306 263.151 108.893 262.192 107.716C261.231 106.575 260.264 105.003 259.327 103.004C258.576 101.411 257.938 99.7548 257.412 98.0346C256.885 96.3143 256.566 94.7159 256.382 93.2343C256.197 91.7527 256.184 90.3904 256.375 89.1856C256.53 87.9783 256.952 87.076 257.567 86.4738L249.857 70.4273L238.543 75.8413L246.254 91.8878L248.184 90.9467C248.424 92.1456 248.753 93.6014 249.206 95.3523C249.658 97.1033 250.241 99.0424 250.957 101.134L245.801 103.607L245.862 103.755Z" fill="url(#paint6_linear_6402_2)"/>
<path d="M246.195 103.598L252.149 116.012L256.638 113.851C258.392 117.52 260.309 120.912 262.353 124.027C264.396 127.142 266.436 129.792 268.472 131.975C270.476 134.12 272.447 135.689 274.356 136.61C276.262 137.566 277.978 137.649 279.498 136.93C281.575 135.928 282.81 134.15 283.167 131.596C283.523 129.041 283.399 126.166 282.831 122.974C282.264 119.782 281.351 116.387 280.163 112.83C278.973 109.308 277.872 106.044 276.825 103.033C275.814 100.026 275.059 97.4657 274.56 95.3533C274.061 93.2408 274.219 91.9979 274.962 91.6195C275.408 91.3996 276.138 91.7367 277.078 92.6617C278.018 93.5866 279.084 95.2726 280.209 97.6792C281.904 101.164 282.923 104.567 283.343 107.82C283.728 111.071 283.303 113.585 282.075 115.255L289.724 131.154L301.3 125.579L293.651 109.68L291.759 110.588C290.872 106.299 289.752 102.281 288.398 98.5331L293.221 96.2162L287.267 83.8023L282.854 85.8968C281.026 82.2593 279.109 78.8665 277.104 75.7182C275.098 72.57 273.132 69.8902 271.132 67.7095C269.131 65.5289 267.195 63.9618 265.322 63.0439C263.449 62.126 261.734 62.043 260.175 62.7948C258.059 63.8304 256.789 65.6053 256.43 68.1957C256.071 70.7861 256.157 73.6938 256.755 76.9595C257.356 80.1896 258.266 83.6202 259.485 87.2513C260.704 90.8825 261.835 94.2209 262.882 97.2311C263.926 100.277 264.715 102.875 265.247 105.026C265.777 107.212 265.69 108.46 264.911 108.836C264.28 109.15 263.484 108.737 262.525 107.56C261.564 106.419 260.597 104.847 259.66 102.847C258.909 101.255 258.271 99.5985 257.745 97.8783C257.218 96.1581 256.899 94.5596 256.715 93.078C256.53 91.5964 256.517 90.2342 256.708 89.0293C256.899 87.8245 257.285 86.9198 257.9 86.3176L250.19 70.2711L238.876 75.6851L246.587 91.7315L248.517 90.7905C248.757 91.9893 249.086 93.4452 249.539 95.1961C249.991 96.9471 250.574 98.8862 251.29 100.978L246.134 103.451L246.195 103.598Z" fill="url(#paint7_linear_6402_2)"/>
<path d="M244.38 104.44L250.334 116.854L254.823 114.693C256.577 118.361 258.494 121.754 260.538 124.869C262.581 127.984 264.621 130.633 266.658 132.816C268.661 134.961 270.632 136.531 272.541 137.451C274.447 138.407 276.163 138.49 277.683 137.772C279.761 136.769 280.995 134.992 281.352 132.437C281.708 129.883 281.584 127.008 281.017 123.816C280.449 120.624 279.536 117.229 278.346 113.707C277.155 110.186 276.055 106.921 275.008 103.911C273.997 100.903 273.242 98.3431 272.743 96.2307C272.243 94.1183 272.401 92.8753 273.145 92.4969C273.59 92.277 274.32 92.6142 275.26 93.5391C276.2 94.464 277.267 96.1501 278.391 98.5566C280.086 102.042 281.106 105.444 281.526 108.697C281.911 111.948 281.485 114.462 280.258 116.133L287.907 132.032L299.482 126.457L291.833 110.558L289.941 111.466C289.055 107.177 287.935 103.159 286.581 99.4106L291.403 97.0936L285.449 84.6797L281.037 86.7743C279.209 83.1368 277.292 79.7439 275.286 76.5957C273.281 73.4474 271.315 70.7676 269.314 68.587C267.314 66.4063 265.378 64.8393 263.505 63.9213C261.632 63.0034 259.916 62.9204 258.358 63.6722C256.242 64.7079 254.971 66.4828 254.613 69.0731C254.254 71.6635 254.339 74.5712 254.938 77.837C255.539 81.067 256.449 84.4976 257.668 88.1288C258.887 91.7599 260.018 95.0984 261.065 98.1085C262.109 101.154 262.897 103.753 263.43 105.903C263.96 108.089 263.873 109.337 263.094 109.713C262.462 110.028 261.666 109.614 260.708 108.437C259.747 107.296 258.78 105.724 257.842 103.725C257.092 102.132 256.454 100.476 255.927 98.7557C255.437 97.038 255.081 95.437 254.897 93.9554C254.713 92.4738 254.7 91.1116 254.891 89.9068C255.046 88.6995 255.467 87.7972 256.083 87.195L248.372 71.1485L237.059 76.5625L244.77 92.6089L246.7 91.6679C246.939 92.8668 247.269 94.3226 247.721 96.0735C248.174 97.8245 248.757 99.7636 249.473 101.855L244.316 104.328L244.38 104.44Z" fill="url(#paint8_linear_6402_2)"/>
<path style="mix-blend-mode:screen" d="M271.448 35.7043C272.043 41.0835 272.636 46.4984 273.12 51.9415C281.567 60.9814 289.768 73.0495 296.539 87.1321C313.845 123.081 315.057 158.381 299.29 165.959C289.757 170.529 276.225 163.967 263.197 150.131C261.635 153.534 260.018 156.682 258.462 159.476C276.005 179.571 294.752 189.54 307.662 183.341C327.655 173.763 326.093 129.017 304.18 83.4699C294.808 63.9766 283.219 47.4824 271.445 35.74L271.448 35.7043Z" fill="url(#paint9_linear_6402_2)"/>
<path d="M146.123 148.578C137.587 140.033 127.902 132.387 117.119 125.94C53.8681 88.2098 -22.6616 105.901 -53.8127 165.52C-79.672 214.994 -66.1932 277.711 -24.8082 319.24C-16.2717 327.785 -6.58691 335.431 4.24606 341.878C67.4468 379.658 144.026 361.918 175.178 302.299C201.037 252.824 187.558 190.057 146.173 148.528L146.123 148.578Z" fill="url(#paint10_linear_6402_2)"/>
<path d="M-23.8096 128.389L-23.2605 128.939C14.4303 99.4045 70.1927 96.0063 118.317 124.741C129.1 131.188 138.785 138.834 147.322 147.38C188.756 188.908 202.185 251.675 176.326 301.15C173.131 307.247 169.437 312.894 165.393 318.091L165.992 318.691L155.609 329.035C118.217 365.316 57.3628 371.763 5.4444 340.729C-5.33866 334.282 -15.0734 326.636 -23.61 318.091C-65.0449 276.562 -78.4738 213.845 -52.6144 164.371C-47.4226 154.476 -40.9827 145.78 -33.5943 138.284L-23.7597 128.439L-23.8096 128.389Z" fill="url(#paint11_linear_6402_2)"/>
<path d="M157.654 137.085C149.118 128.539 139.433 120.893 128.65 114.447C65.3994 76.7161 -11.1304 94.4069 -42.2814 154.026C-68.1408 203.5 -54.662 266.218 -13.277 307.746C-4.74041 316.292 4.94434 323.938 15.7773 330.384C78.978 368.165 155.558 350.424 186.709 290.805C212.568 241.331 199.089 178.563 157.704 137.035L157.654 137.085Z" fill="url(#paint12_linear_6402_2)"/>
<path d="M142.829 151.927C119.466 128.49 86.717 114.997 53.5691 118.345C-1.59429 123.892 -36.9387 173.916 -25.3569 230.087C-20.7142 252.525 -9.33211 272.565 6.24342 288.207C29.6566 311.644 62.4051 325.137 95.5031 321.789C150.666 316.242 186.011 266.218 174.429 209.997C169.787 187.559 158.354 167.519 142.829 151.927Z" fill="url(#paint13_linear_6402_2)"/>
<path d="M140.382 156.075C117.318 132.937 85.0188 119.694 52.3701 122.942C-2.04441 128.389 -36.8896 177.763 -25.4576 233.135C-20.9147 255.273 -9.63247 275.013 5.74338 290.455C28.8071 313.593 61.1064 326.836 93.7551 323.588C148.17 318.091 183.015 268.766 171.583 213.345C167.04 191.206 155.758 171.467 140.382 156.075Z" fill="url(#paint14_radial_6402_2)"/>
<path style="mix-blend-mode:multiply" d="M140.382 156.075C117.318 132.937 85.0188 119.694 52.3701 122.942C-2.04441 128.389 -36.8896 177.763 -25.4576 233.135C-20.9147 255.273 -9.63247 275.013 5.74338 290.455C28.8071 313.593 61.1064 326.836 93.7551 323.588C148.17 318.091 183.015 268.766 171.583 213.345C167.04 191.206 155.758 171.467 140.382 156.075Z" fill="url(#paint15_radial_6402_2)"/>
<path d="M7.69081 286.807C-24.7582 254.274 -35.2917 205.099 -15.0235 166.369C9.38813 119.644 69.3439 105.751 118.916 135.335C127.353 140.383 134.991 146.38 141.63 153.076C174.079 185.609 184.613 234.784 164.345 273.514C139.933 320.239 79.9273 334.132 30.4051 304.547C21.9684 299.5 14.3304 293.503 7.69081 286.807ZM159.502 135.185C151.066 126.69 141.431 119.094 130.698 112.697C67.9461 75.2166 -8.03444 92.8075 -38.9858 152.027C-64.6455 201.151 -51.3165 263.419 -10.1811 304.647C-1.69445 313.143 7.94043 320.739 18.6236 327.136C81.3751 364.616 157.356 347.025 188.307 287.856C213.967 238.732 200.638 176.464 159.502 135.235V135.185Z" fill="url(#paint16_linear_6402_2)"/>
<path d="M129.699 183.86L116.37 190.806C113.524 186.009 110.18 181.661 106.386 177.863C106.186 177.663 106.036 177.513 105.837 177.313C101.793 173.365 97.5496 170.267 93.0567 168.018C88.6136 165.719 84.0209 164.47 79.3282 164.22C74.6356 163.97 69.9929 165.019 65.4501 167.368C59.2598 170.617 55.0663 174.515 52.8698 179.212C50.6732 183.86 49.575 188.757 49.575 193.854C49.575 199.002 50.3238 204.149 51.8214 209.396C53.3191 214.644 54.7668 219.491 56.0648 223.889C57.3627 228.337 58.2114 232.185 58.511 235.483C58.8105 238.781 57.812 241.03 55.5655 242.229C54.1677 242.929 52.4704 242.829 50.3737 241.93C49.3753 241.48 48.3769 240.78 47.4284 239.831C46.3301 238.731 45.2817 237.332 44.2334 235.583C41.3379 230.735 40.1897 225.638 40.6889 220.341C41.1881 214.994 43.5344 210.396 47.7778 206.598L34.7482 184.659L0.452148 202.55L13.4817 224.489L19.023 221.59C19.3724 228.337 20.4707 234.483 22.2678 240.031L7.99028 247.477L18.1743 264.568L31.2039 257.771C34.3988 262.719 37.9931 267.216 41.8371 271.214C42.0867 271.464 42.2864 271.664 42.536 271.914C46.2302 275.612 50.1241 278.56 54.2177 280.759C58.5609 283.108 63.0538 284.407 67.6965 284.657C72.3392 284.957 76.9819 283.858 81.6246 281.409C87.9147 278.111 92.208 274.113 94.5044 269.415C96.8008 264.668 97.8991 259.72 97.8991 254.573C97.8991 249.426 97.1003 244.128 95.5028 238.731C93.9552 233.384 92.5075 228.437 91.1596 223.939C89.8617 219.441 88.9631 215.493 88.5138 212.145C88.0645 208.797 89.013 206.548 91.3094 205.349C93.1565 204.399 95.1034 204.549 97.1502 205.848C97.9989 206.348 98.7977 206.998 99.5465 207.797C100.645 208.897 101.693 210.296 102.691 211.945C103.989 214.144 104.938 216.543 105.437 219.141C105.986 221.74 106.136 224.239 105.886 226.687C105.637 229.136 104.988 231.485 103.94 233.684C102.841 235.883 101.344 237.732 99.3967 239.231L112.576 261.419L146.073 243.928L132.894 221.74L127.203 224.738C127.203 222.839 127.003 220.541 126.604 217.892C126.205 215.193 125.606 212.295 124.707 209.147L140.033 201.151L129.849 184.06L129.699 183.86Z" fill="url(#paint17_linear_6402_2)"/>
<path d="M132.195 181.362L118.866 188.308C116.021 183.511 112.676 179.163 108.882 175.365C108.682 175.165 108.532 175.015 108.333 174.815C104.289 170.867 100.046 167.769 95.5528 165.52C91.1097 163.221 86.517 161.972 81.8243 161.722C77.1317 161.472 72.489 162.521 67.9461 164.87C61.7559 168.119 57.5624 172.016 55.3659 176.714C53.1693 181.362 52.071 186.259 52.071 191.356C52.071 196.504 52.8199 201.651 54.3175 206.898C55.8651 212.146 57.2629 216.993 58.5609 221.391C59.8588 225.839 60.7075 229.687 61.007 232.985C61.3066 236.283 60.3081 238.532 58.0616 239.731C56.6638 240.431 54.9665 240.331 52.8698 239.431C51.8714 238.982 50.873 238.282 49.9245 237.333C48.8262 236.233 47.7778 234.834 46.7295 233.085C43.834 228.237 42.6858 223.14 43.185 217.843C43.6842 212.495 46.0305 207.898 50.2739 204.1L37.2443 182.161L2.94824 200.052L15.9778 221.991L21.5191 219.092C21.8685 225.839 22.9668 231.985 24.7639 237.532L10.4864 244.979L20.6704 262.07L33.6999 255.273C36.8949 260.221 40.4892 264.718 44.3332 268.716C44.5828 268.966 44.7825 269.166 45.0321 269.416C48.7263 273.114 52.6202 276.062 56.7138 278.261C61.057 280.61 65.5499 281.909 70.1926 282.159C74.8353 282.459 79.478 281.36 84.1207 278.911C90.4108 275.613 94.7041 271.615 97.0005 266.917C99.2968 262.17 100.395 257.222 100.395 252.075C100.395 246.928 99.5964 241.63 97.9989 236.233C96.4513 230.886 95.0036 225.938 93.6557 221.441C92.3578 216.943 91.4592 212.995 91.0099 209.647C90.5606 206.299 91.5091 204.05 93.8055 202.85C95.6526 201.901 97.5995 202.051 99.6463 203.35C100.495 203.85 101.294 204.5 102.043 205.299C103.141 206.399 104.189 207.798 105.188 209.447C106.486 211.646 107.434 214.045 107.933 216.643C108.482 219.242 108.632 221.741 108.383 224.189C108.133 226.638 107.484 228.987 106.436 231.186C105.337 233.385 103.84 235.234 101.893 236.733L115.072 258.921L148.569 241.43L135.39 219.242L129.699 222.24C129.699 220.341 129.499 218.043 129.1 215.394C128.701 212.695 128.102 209.797 127.203 206.649L142.529 198.653L132.345 181.562L132.195 181.362Z" fill="url(#paint18_linear_6402_2)"/>
<path style="mix-blend-mode:screen" d="M-51.6162 217.193C-42.5804 220.991 -33.1452 224.739 -23.5602 228.287C-19.4667 249.726 -8.68364 270.365 7.69064 286.757C14.3801 293.453 21.9682 299.45 30.405 304.498C79.9272 334.082 139.933 320.189 164.345 273.464C170.335 261.97 173.63 249.526 174.429 236.883C184.513 232.835 193.449 228.487 201.037 224.339C202.584 246.128 198.591 268.017 188.307 287.756C157.356 346.926 81.3749 364.516 18.6235 327.036C7.89034 320.639 -1.74455 313.043 -10.1813 304.548C-34.2934 280.36 -48.8705 248.877 -51.6162 217.093V217.193Z" fill="url(#paint19_linear_6402_2)"/>
<path style="mix-blend-mode:screen" d="M70.143 282.059C74.7857 282.359 79.4284 281.26 84.0711 278.811C90.3612 275.513 94.6545 271.515 96.9509 266.817C99.2473 262.07 100.345 257.122 100.345 251.975C100.345 246.828 99.5468 241.531 97.9493 236.133C96.4017 230.786 94.954 225.839 93.6061 221.341C92.3082 216.843 91.4096 212.895 90.9603 209.547C90.511 206.199 91.4595 203.95 93.7559 202.751C95.603 201.801 97.5499 201.951 99.5967 203.25C100.445 203.75 101.244 204.4 101.993 205.199C103.091 206.299 104.14 207.698 105.138 209.347C106.436 211.546 107.384 213.945 107.884 216.544C108.433 219.142 108.583 221.641 108.333 224.09C108.083 226.538 107.434 228.887 106.386 231.086C105.288 233.285 103.79 235.134 101.843 236.633L115.022 258.822L148.52 241.331L135.341 219.142L129.65 222.141C129.65 220.242 129.45 217.943 129.05 215.294C128.651 212.596 128.052 209.697 127.153 206.549L142.479 198.553L132.295 181.462L118.966 188.408C116.121 183.611 112.776 179.263 108.982 175.465C108.782 175.265 108.633 175.115 108.433 174.915C104.389 170.967 100.146 167.869 95.6529 165.62C91.2098 163.321 86.6171 162.072 81.9244 161.822C78.0805 161.622 74.2365 162.322 70.4924 163.871C74.3863 185.26 79.2287 219.042 75.7342 239.981C72.9386 256.473 69.444 271.215 66.6484 281.76C67.8466 281.96 69.0447 282.109 70.2428 282.159L70.143 282.059Z" fill="url(#paint20_linear_6402_2)"/>
<defs>
<linearGradient id="paint0_linear_6402_2" x1="332.874" y1="171.36" x2="253.652" y2="6.2416" gradientUnits="userSpaceOnUse">
<stop offset="0.16" stop-color="#DE8200"/>
<stop offset="0.21" stop-color="#E08702"/>
<stop offset="0.27" stop-color="#E79708"/>
<stop offset="0.34" stop-color="#F3B213"/>
<stop offset="0.37" stop-color="#F8BD18"/>
<stop offset="0.43" stop-color="#F5AD1A"/>
<stop offset="0.47" stop-color="#F49F1C"/>
<stop offset="0.54" stop-color="#9F4000"/>
<stop offset="0.61" stop-color="#A04701"/>
<stop offset="0.71" stop-color="#FEC423"/>
<stop offset="1" stop-color="#B66300"/>
</linearGradient>
<linearGradient id="paint1_linear_6402_2" x1="329.832" y1="174.525" x2="249.28" y2="6.63477" gradientUnits="userSpaceOnUse">
<stop stop-color="#EBAB00"/>
<stop offset="0.08" stop-color="#FFC524"/>
<stop offset="0.15" stop-color="#FFD759"/>
<stop offset="0.41" stop-color="#FFF4A5"/>
<stop offset="0.42" stop-color="#FEF09F"/>
<stop offset="0.44" stop-color="#FDE68F"/>
<stop offset="0.46" stop-color="#FBD574"/>
<stop offset="0.48" stop-color="#F8BE4E"/>
<stop offset="0.5" stop-color="#F4A11F"/>
<stop offset="0.52" stop-color="#F28E00"/>
<stop offset="0.56" stop-color="#CA4E00"/>
<stop offset="0.61" stop-color="#A14D00"/>
<stop offset="0.65" stop-color="#EBA500"/>
<stop offset="0.66" stop-color="#EFB016"/>
<stop offset="0.67" stop-color="#F6C136"/>
<stop offset="0.68" stop-color="#FBCD4E"/>
<stop offset="0.69" stop-color="#FFD761"/>
<stop offset="0.73" stop-color="#FFD65F"/>
<stop offset="0.75" stop-color="#FFD558"/>
<stop offset="0.76" stop-color="#FFCF3B"/>
<stop offset="0.77" stop-color="#FFCB29"/>
<stop offset="0.78" stop-color="#FCC424"/>
<stop offset="0.8" stop-color="#F3B317"/>
<stop offset="0.82" stop-color="#E8A215"/>
<stop offset="0.83" stop-color="#F4C64B"/>
<stop offset="0.84" stop-color="#FBDB6B"/>
<stop offset="0.85" stop-color="#FDE072"/>
<stop offset="0.86" stop-color="#FEE275"/>
<stop offset="0.94" stop-color="#FEE47E"/>
<stop offset="1" stop-color="#FED94B"/>
</linearGradient>
<linearGradient id="paint2_linear_6402_2" x1="310.869" y1="183.622" x2="230.318" y2="15.7318" gradientUnits="userSpaceOnUse">
<stop offset="0.16" stop-color="#FFF8C7"/>
<stop offset="0.2" stop-color="#FEF5C1"/>
<stop offset="0.25" stop-color="#FEEFB1"/>
<stop offset="0.3" stop-color="#FEE596"/>
<stop offset="0.36" stop-color="#FDD870"/>
<stop offset="0.42" stop-color="#FCC641"/>
<stop offset="0.47" stop-color="#FCB717"/>
<stop offset="0.56" stop-color="#B45D05"/>
<stop offset="0.58" stop-color="#9F4200"/>
<stop offset="0.63" stop-color="#A04701"/>
<stop offset="0.68" stop-color="#DA9414"/>
<stop offset="0.7" stop-color="#FEC220"/>
<stop offset="0.81" stop-color="#E89A04"/>
<stop offset="0.82" stop-color="#EBA412"/>
<stop offset="0.83" stop-color="#F2B92F"/>
<stop offset="0.85" stop-color="#F7C946"/>
<stop offset="0.86" stop-color="#FBD456"/>
<stop offset="0.88" stop-color="#FDDB5F"/>
<stop offset="0.9" stop-color="#FEDE63"/>
<stop offset="1" stop-color="#FCC643"/>
</linearGradient>
<linearGradient id="paint3_linear_6402_2" x1="302.812" y1="166.845" x2="234.482" y2="24.4264" gradientUnits="userSpaceOnUse">
<stop offset="0.16" stop-color="#D27B00"/>
<stop offset="0.25" stop-color="#CD7500"/>
<stop offset="0.37" stop-color="#BF6500"/>
<stop offset="0.5" stop-color="#A84A00"/>
<stop offset="0.54" stop-color="#9F4000"/>
<stop offset="0.61" stop-color="#A04701"/>
<stop offset="0.71" stop-color="#FEBB00"/>
<stop offset="1" stop-color="#9F5800"/>
</linearGradient>
<radialGradient id="paint4_radial_6402_2" cx="0" cy="0" r="1" gradientUnits="userSpaceOnUse" gradientTransform="translate(267.398 106.718) rotate(-115.683) scale(72.4002 30.6899)">
<stop stop-color="#FEDE6D"/>
<stop offset="1" stop-color="#F2AC1A"/>
</radialGradient>
<linearGradient id="paint5_linear_6402_2" x1="232.038" y1="118.156" x2="304.597" y2="83.2621" gradientUnits="userSpaceOnUse">
<stop stop-color="#FFD651"/>
<stop offset="0.41" stop-color="#FFEC60"/>
<stop offset="0.48" stop-color="#FFE95A"/>
<stop offset="0.58" stop-color="#FFE04A"/>
<stop offset="0.69" stop-color="#FFD32F"/>
<stop offset="0.77" stop-color="#FFC718"/>
<stop offset="0.86" stop-color="#FED844"/>
<stop offset="0.94" stop-color="#FED949"/>
</linearGradient>
<linearGradient id="paint6_linear_6402_2" x1="286.487" y1="135.727" x2="253.085" y2="66.1079" gradientUnits="userSpaceOnUse">
<stop offset="0.16" stop-color="#D27B00"/>
<stop offset="0.25" stop-color="#CD7500"/>
<stop offset="0.37" stop-color="#BF6500"/>
<stop offset="0.5" stop-color="#A84A00"/>
<stop offset="0.54" stop-color="#9F4000"/>
<stop offset="0.61" stop-color="#A04701"/>
<stop offset="0.71" stop-color="#E08600"/>
<stop offset="1" stop-color="#9F5800"/>
</linearGradient>
<linearGradient id="paint7_linear_6402_2" x1="286.809" y1="135.572" x2="253.407" y2="65.9529" gradientUnits="userSpaceOnUse">
<stop offset="0.16" stop-color="#D27B00"/>
<stop offset="0.25" stop-color="#CD7500"/>
<stop offset="0.37" stop-color="#BF6500"/>
<stop offset="0.5" stop-color="#A84A00"/>
<stop offset="0.54" stop-color="#9F4000"/>
<stop offset="0.61" stop-color="#A04701"/>
<stop offset="0.71" stop-color="#E08600"/>
<stop offset="1" stop-color="#9F5800"/>
</linearGradient>
<linearGradient id="paint8_linear_6402_2" x1="232.039" y1="118.156" x2="304.598" y2="83.2624" gradientUnits="userSpaceOnUse">
<stop stop-color="#FFE48C"/>
<stop offset="0.41" stop-color="#FFF4A5"/>
<stop offset="0.46" stop-color="#FFF29F"/>
<stop offset="0.53" stop-color="#FFEC8F"/>
<stop offset="0.61" stop-color="#FFE374"/>
<stop offset="0.7" stop-color="#FFD74F"/>
<stop offset="0.77" stop-color="#FFCB29"/>
<stop offset="0.86" stop-color="#FEE275"/>
<stop offset="0.94" stop-color="#FEE47E"/>
</linearGradient>
<linearGradient id="paint9_linear_6402_2" x1="330.618" y1="132.752" x2="278.288" y2="108.705" gradientUnits="userSpaceOnUse">
<stop stop-color="#B7B7B7"/>
<stop offset="1"/>
</linearGradient>
<linearGradient id="paint10_linear_6402_2" x1="155.55" y1="329.116" x2="-34.4653" y2="139.035" gradientUnits="userSpaceOnUse">
<stop offset="0.16" stop-color="#DE8200"/>
<stop offset="0.21" stop-color="#E08702"/>
<stop offset="0.27" stop-color="#E79708"/>
<stop offset="0.34" stop-color="#F3B213"/>
<stop offset="0.37" stop-color="#F8BD18"/>
<stop offset="0.43" stop-color="#F5AD1A"/>
<stop offset="0.47" stop-color="#F49F1C"/>
<stop offset="0.54" stop-color="#9F4000"/>
<stop offset="0.61" stop-color="#A04701"/>
<stop offset="0.71" stop-color="#FEC423"/>
<stop offset="1" stop-color="#B66300"/>
</linearGradient>
<linearGradient id="paint11_linear_6402_2" x1="156.752" y1="327.916" x2="-33.2641" y2="137.835" gradientUnits="userSpaceOnUse">
<stop stop-color="#EBAB00"/>
<stop offset="0.08" stop-color="#FFC524"/>
<stop offset="0.15" stop-color="#FFD759"/>
<stop offset="0.41" stop-color="#FFF4A5"/>
<stop offset="0.42" stop-color="#FEF09F"/>
<stop offset="0.44" stop-color="#FDE68F"/>
<stop offset="0.46" stop-color="#FBD574"/>
<stop offset="0.48" stop-color="#F8BE4E"/>
<stop offset="0.5" stop-color="#F4A11F"/>
<stop offset="0.52" stop-color="#F28E00"/>
<stop offset="0.56" stop-color="#CA4E00"/>
<stop offset="0.61" stop-color="#A14D00"/>
<stop offset="0.65" stop-color="#EBA500"/>
<stop offset="0.66" stop-color="#EFB016"/>
<stop offset="0.67" stop-color="#F6C136"/>
<stop offset="0.68" stop-color="#FBCD4E"/>
<stop offset="0.69" stop-color="#FFD761"/>
<stop offset="0.73" stop-color="#FFD65F"/>
<stop offset="0.75" stop-color="#FFD558"/>
<stop offset="0.76" stop-color="#FFCF3B"/>
<stop offset="0.77" stop-color="#FFCB29"/>
<stop offset="0.78" stop-color="#FCC424"/>
<stop offset="0.8" stop-color="#F3B317"/>
<stop offset="0.82" stop-color="#E8A215"/>
<stop offset="0.83" stop-color="#F4C64B"/>
<stop offset="0.84" stop-color="#FBDB6B"/>
<stop offset="0.85" stop-color="#FDE072"/>
<stop offset="0.86" stop-color="#FEE275"/>
<stop offset="0.94" stop-color="#FEE47E"/>
<stop offset="1" stop-color="#FED94B"/>
</linearGradient>
<linearGradient id="paint12_linear_6402_2" x1="167.066" y1="317.605" x2="-22.9502" y2="127.523" gradientUnits="userSpaceOnUse">
<stop offset="0.16" stop-color="#FFF8C7"/>
<stop offset="0.2" stop-color="#FEF5C1"/>
<stop offset="0.25" stop-color="#FEEFB1"/>
<stop offset="0.3" stop-color="#FEE596"/>
<stop offset="0.36" stop-color="#FDD870"/>
<stop offset="0.42" stop-color="#FCC641"/>
<stop offset="0.47" stop-color="#FCB717"/>
<stop offset="0.56" stop-color="#B45D05"/>
<stop offset="0.58" stop-color="#9F4200"/>
<stop offset="0.63" stop-color="#A04701"/>
<stop offset="0.68" stop-color="#DA9414"/>
<stop offset="0.7" stop-color="#FEC220"/>
<stop offset="0.81" stop-color="#E89A04"/>
<stop offset="0.82" stop-color="#EBA412"/>
<stop offset="0.83" stop-color="#F2B92F"/>
<stop offset="0.85" stop-color="#F7C946"/>
<stop offset="0.86" stop-color="#FBD456"/>
<stop offset="0.88" stop-color="#FDDB5F"/>
<stop offset="0.9" stop-color="#FEDE63"/>
<stop offset="1" stop-color="#FCF1D6"/>
</linearGradient>
<linearGradient id="paint13_linear_6402_2" x1="150.491" y1="296.25" x2="-1.59967" y2="144.107" gradientUnits="userSpaceOnUse">
<stop offset="0.16" stop-color="#D27B00"/>
<stop offset="0.25" stop-color="#CD7500"/>
<stop offset="0.37" stop-color="#BF6500"/>
<stop offset="0.5" stop-color="#A84A00"/>
<stop offset="0.54" stop-color="#9F4000"/>
<stop offset="0.61" stop-color="#A04701"/>
<stop offset="0.71" stop-color="#FEBB00"/>
<stop offset="1" stop-color="#9F5800"/>
</linearGradient>
<radialGradient id="paint14_radial_6402_2" cx="0" cy="0" r="1" gradientUnits="userSpaceOnUse" gradientTransform="translate(67.6584 220.57) rotate(-134.93) scale(105.29 105.29)">
<stop stop-color="#FEDE6D"/>
<stop offset="1" stop-color="#EA9F00"/>
</radialGradient>
<radialGradient id="paint15_radial_6402_2" cx="0" cy="0" r="1" gradientUnits="userSpaceOnUse" gradientTransform="translate(36.0761 255.179) rotate(-134.93) scale(148.745 148.744)">
<stop stop-color="white"/>
<stop offset="0.66" stop-color="white"/>
<stop offset="0.77" stop-color="white"/>
<stop offset="0.85" stop-color="#FEFDFD"/>
<stop offset="0.88" stop-color="#FCF9F6"/>
<stop offset="0.91" stop-color="#F9F2EA"/>
<stop offset="0.92" stop-color="#F4E8D9"/>
<stop offset="0.94" stop-color="#EFDBC3"/>
<stop offset="0.95" stop-color="#E7CAA7"/>
<stop offset="0.97" stop-color="#DFB787"/>
<stop offset="0.98" stop-color="#D4A061"/>
<stop offset="0.99" stop-color="#C98735"/>
<stop offset="1" stop-color="#BB6700"/>
</radialGradient>
<linearGradient id="paint16_linear_6402_2" x1="159.463" y1="135.154" x2="-10.9445" y2="305.145" gradientUnits="userSpaceOnUse">
<stop stop-color="#FFDB66"/>
<stop offset="0.41" stop-color="#FFEF7F"/>
<stop offset="0.46" stop-color="#FFEC79"/>
<stop offset="0.53" stop-color="#FFE769"/>
<stop offset="0.61" stop-color="#FFDD4E"/>
<stop offset="0.7" stop-color="#FFCF29"/>
<stop offset="0.77" stop-color="#FFC203"/>
<stop offset="1" stop-color="#FEDC58"/>
</linearGradient>
<linearGradient id="paint17_linear_6402_2" x1="157.973" y1="138.383" x2="-12.3991" y2="308.339" gradientUnits="userSpaceOnUse">
<stop offset="0.16" stop-color="#CA7700"/>
<stop offset="0.26" stop-color="#C57100"/>
<stop offset="0.38" stop-color="#B86100"/>
<stop offset="0.51" stop-color="#A44600"/>
<stop offset="0.54" stop-color="#9F4000"/>
<stop offset="0.61" stop-color="#A04701"/>
<stop offset="0.71" stop-color="#B35C00"/>
<stop offset="1" stop-color="#9F5800"/>
</linearGradient>
<linearGradient id="paint18_linear_6402_2" x1="154.829" y1="141.527" x2="-10.8752" y2="306.826" gradientUnits="userSpaceOnUse">
<stop stop-color="#FFDB66"/>
<stop offset="0.41" stop-color="#FFEF7F"/>
<stop offset="0.46" stop-color="#FFEC79"/>
<stop offset="0.53" stop-color="#FFE769"/>
<stop offset="0.61" stop-color="#FFDD4E"/>
<stop offset="0.7" stop-color="#FFCF29"/>
<stop offset="0.77" stop-color="#FFC203"/>
<stop offset="0.86" stop-color="#FEDA4F"/>
<stop offset="0.94" stop-color="#FEDC58"/>
</linearGradient>
<linearGradient id="paint19_linear_6402_2" x1="87.5123" y1="350.801" x2="77.5369" y2="249.732" gradientUnits="userSpaceOnUse">
<stop stop-color="#B7B7B7"/>
<stop offset="1"/>
</linearGradient>
<linearGradient id="paint20_linear_6402_2" x1="145.055" y1="232.339" x2="73.506" y2="221.533" gradientUnits="userSpaceOnUse">
<stop stop-color="#B7B7B7"/>
<stop offset="1"/>
</linearGradient>
</defs>
</svg>
