<svg width="80" height="138" viewBox="0 0 80 138" fill="none" xmlns="http://www.w3.org/2000/svg">
<path d="M77.5967 22.7789C79.2501 13.0747 77.1435 4.62027 72.8899 3.89633C68.637 3.17143 63.8474 10.4504 62.1941 20.1545C60.5413 29.856 62.6479 38.3104 66.9025 39.0351C71.157 39.7598 75.9449 32.4811 77.5977 22.7796L77.5967 22.7789Z" fill="url(#paint0_linear_4557_159)"/>
<path d="M77.3502 6.84104C79.1513 10.3339 79.7345 16.3593 78.6115 22.9525C77.4882 29.5439 74.9424 35.0342 72.0859 37.7333L71.6739 40.1542L67.5803 39.4554C67.5662 39.4536 67.5521 39.4518 67.538 39.45C67.5239 39.4483 67.5096 39.4447 67.4953 39.4412L67.4475 39.4331L67.4483 39.4321C63.1825 38.5916 61.0807 30.0463 62.7499 20.2492C64.4192 10.4537 69.2291 3.0899 73.5302 3.70232L73.5317 3.7004L77.7622 4.42016L77.3502 6.84104Z" fill="url(#paint1_linear_4557_159)"/>
<path d="M82.5519 23.624C84.2335 13.7559 82.0907 5.15829 77.7653 4.42121C73.4398 3.68413 68.5703 11.0863 66.8887 20.9543C65.207 30.8207 67.3505 39.4174 71.676 40.1545C76.0014 40.8916 80.871 33.4894 82.5519 23.624Z" fill="url(#paint2_linear_4557_159)"/>
<path d="M77.9879 7.22248C74.4516 6.61964 70.4273 12.9283 68.9987 21.3126C67.57 29.6969 69.2786 36.982 72.8139 37.5841C76.3502 38.187 80.3745 31.8783 81.8032 23.494C83.2318 15.1097 81.5232 7.82458 77.9879 7.22248Z" fill="url(#paint3_linear_4557_159)"/>
<path d="M77.2613 8.44962C74.0024 7.89445 70.303 13.6524 68.998 21.3121C67.6921 28.971 69.2767 35.6295 72.5348 36.1856C75.7938 36.7408 79.4931 30.9829 80.7981 23.3232C82.1031 15.6635 80.5195 9.00574 77.2613 8.44962Z" fill="url(#paint4_radial_4557_159)"/>
<path style="mix-blend-mode:multiply" d="M77.2613 8.44962C74.0024 7.89445 70.303 13.6524 68.998 21.3121C67.6921 28.971 69.2767 35.6295 72.5348 36.1856C75.7938 36.7408 79.4931 30.9829 80.7981 23.3232C82.1031 15.6635 80.5195 9.00574 77.2613 8.44962Z" fill="url(#paint5_radial_4557_159)"/>
<path d="M69.19 21.3471C70.495 13.6874 74.2748 7.94163 77.6321 8.51372C80.9893 9.08581 82.6521 15.7593 81.3471 23.419C80.0427 31.076 76.2629 36.8219 72.9056 36.2498C69.5483 35.6777 67.8856 29.0041 69.19 21.3471ZM82.9707 23.6951C84.6241 13.991 82.5175 5.53656 78.2629 4.81186C74.01 4.08696 69.2204 11.3659 67.5671 21.07C65.9143 30.7715 68.0209 39.226 72.2755 39.9507C76.5301 40.6754 81.318 33.3966 82.9707 23.6951Z" fill="url(#paint6_linear_4557_159)"/>
<path d="M79.0314 24.3886L79.4813 21.7463L78.5237 21.5835C78.6563 20.8023 78.736 20.0508 78.764 19.3237C78.7919 18.5965 78.7674 17.946 78.6888 17.3739C78.6107 16.8052 78.4734 16.3373 78.279 15.9734C78.0856 15.6102 77.8238 15.401 77.4969 15.3454C77.0513 15.2691 76.6588 15.4131 76.3163 15.7793C75.9744 16.1446 75.6692 16.6132 75.3991 17.1869C75.1299 17.7613 74.8891 18.3984 74.6812 19.094C74.4726 19.7906 74.2801 20.4331 74.1056 21.0232C73.9302 21.6125 73.7624 22.1055 73.6007 22.4962C73.4401 22.8894 73.2779 23.0718 73.1139 23.0436C73.0156 23.0267 72.9432 22.8921 72.8983 22.6397C72.8541 22.3847 72.8754 22.0029 72.962 21.4909C73.0893 20.7459 73.3048 20.0919 73.6071 19.5265C73.9106 18.9636 74.2572 18.616 74.6469 18.4854L75.223 15.1033L72.7586 14.6835L72.1825 18.0655L72.582 18.1334C72.2422 18.9159 71.9678 19.6801 71.7568 20.4291L70.73 20.2537L70.2802 22.896L71.2156 23.0554C71.0971 23.8384 71.0193 24.5914 70.9798 25.3156C70.9402 26.0397 70.956 26.6896 71.0271 27.2574C71.0986 27.8286 71.2301 28.292 71.4205 28.6512C71.6123 29.0084 71.8756 29.2157 72.2105 29.273C72.6632 29.3501 73.0642 29.2052 73.4144 28.8372C73.7636 28.4684 74.0748 27.9922 74.3471 27.4078C74.6189 26.8261 74.8612 26.1793 75.0747 25.4648C75.2874 24.7513 75.4843 24.0952 75.6614 23.4978C75.839 22.8978 76.0072 22.3944 76.1639 21.9904C76.3212 21.5838 76.4819 21.3954 76.6458 21.4236C76.7786 21.446 76.8569 21.6007 76.8794 21.8913C76.9024 22.1793 76.8782 22.5371 76.8064 22.9614C76.7487 23.3006 76.6634 23.6336 76.5499 23.963C76.4381 24.2923 76.3106 24.5843 76.1712 24.8421C76.0324 25.0973 75.8803 25.3142 75.7159 25.4856C75.5509 25.6598 75.3874 25.7591 75.222 25.784L74.6392 29.2042L77.046 29.6144L77.6288 26.1942L77.2187 26.1242C77.3169 25.9068 77.4295 25.6356 77.5531 25.3111C77.6773 24.9839 77.803 24.6113 77.929 24.1971L79.0291 24.3837L79.0314 24.3886Z" fill="url(#paint7_linear_4557_159)"/>
<path d="M79.417 24.4541L79.8677 21.8125L78.9102 21.6497C79.0438 20.8692 79.1225 20.117 79.1505 19.3899C79.1784 18.6627 79.1539 18.0122 79.0745 17.441C78.9964 16.8724 78.8591 16.4045 78.6647 16.0406C78.4713 15.6774 78.2095 15.4682 77.8826 15.4125C77.437 15.3363 77.0445 15.4803 76.7012 15.8475C76.3594 16.2127 76.0542 16.6813 75.7841 17.255C75.5149 17.8295 75.274 18.4665 75.0662 19.1621C74.8575 19.8587 74.665 20.5012 74.4906 21.0913C74.3152 21.6807 74.1474 22.1736 73.9857 22.5643C73.8251 22.9575 73.6628 23.14 73.4989 23.1118C73.4006 23.0948 73.3281 22.9603 73.2833 22.7079C73.239 22.4528 73.2604 22.071 73.3469 21.5591C73.4735 20.815 73.6888 20.1593 73.9921 19.5947C74.2956 19.0317 74.6421 18.6841 75.0319 18.5535L75.6079 15.1715L73.1436 14.7516L72.5675 18.1337L72.967 18.2015C72.6271 18.984 72.3528 19.7483 72.1417 20.4972L71.115 20.3218L70.6652 22.9642L71.6006 23.1235C71.4821 23.9065 71.4043 24.6595 71.3647 25.3837C71.3251 26.1079 71.3409 26.7577 71.412 27.3255C71.4836 27.8967 71.6151 28.3601 71.8047 28.7202C71.9965 29.0775 72.2599 29.2848 72.5947 29.3421C73.0474 29.4192 73.4484 29.2743 73.7986 28.9062C74.1478 28.5375 74.459 28.0613 74.7314 27.4769C75.0031 26.8952 75.2445 26.2476 75.4589 25.5339C75.6716 24.8204 75.8685 24.1643 76.0456 23.5669C76.2232 22.9669 76.3924 22.4642 76.5482 22.0595C76.7064 21.6536 76.8661 21.4645 77.03 21.4927C77.1628 21.515 77.2411 21.6697 77.2636 21.9604C77.2866 22.2484 77.2624 22.6062 77.1896 23.0297C77.132 23.369 77.0467 23.702 76.9341 24.0321C76.8223 24.3613 76.6948 24.6534 76.5554 24.9112C76.4166 25.1664 76.2636 25.3825 76.0991 25.554C75.9342 25.7281 75.7699 25.8284 75.6045 25.8533L75.0217 29.2734L77.4285 29.6836L78.0113 26.2635L77.6012 26.1934C77.7004 25.9768 77.812 25.7049 77.9357 25.3804C78.0598 25.0531 78.1856 24.6806 78.3106 24.2656L79.4116 24.453L79.417 24.4541Z" fill="url(#paint8_linear_4557_159)"/>
<path style="mix-blend-mode:multiply" d="M79.692 5.40003C79.1098 4.89054 78.4694 4.54157 77.7635 4.42172L73.5319 3.70122L73.5304 3.70313C72.9258 3.61807 72.3114 3.70515 71.6964 3.91899C67.7756 4.56131 63.6938 11.3489 62.1931 20.1558C60.6929 28.96 62.2972 36.7166 65.7837 38.6219C66.2948 39.0288 66.8479 39.3153 67.4485 39.4329L67.4478 39.4339L67.4956 39.4421C67.5099 39.4456 67.5233 39.4483 67.5383 39.4509C67.5524 39.4527 67.5665 39.4544 67.5806 39.4562L71.6742 40.155C72.3801 40.2748 73.0996 40.1588 73.8185 39.8701C77.6299 38.8919 81.5138 32.2355 82.9691 23.6952C84.4248 15.1524 82.9636 7.58437 79.692 5.40003Z" fill="url(#paint9_linear_4557_159)"/>
<path d="M45.7406 117.99C60.3622 120.925 75.5367 114.951 82.3664 102.514C90.5943 87.5248 83.5705 68.8133 66.677 60.7308C63.7917 59.3499 60.8054 58.3689 57.7971 57.765C43.1795 54.8308 28.0061 60.8035 21.1775 73.239C12.9503 88.2334 19.9749 106.941 36.8662 115.026C39.7486 116.405 42.7322 117.386 45.7406 117.99Z" fill="url(#paint10_linear_4557_159)"/>
<path d="M17.5394 84.8258L17.7387 84.8651C16.797 96.999 23.9295 109.296 36.7785 115.447C39.661 116.826 42.6446 117.807 45.653 118.411C60.2746 121.346 75.4491 115.372 82.2788 102.935C83.12 101.401 83.7937 99.8287 84.3225 98.2318L84.5298 98.2728L85.2606 94.6197L85.2525 94.618C87.6706 81.5933 80.4624 67.7894 66.5894 61.1518C63.704 59.771 60.7178 58.7899 57.7094 58.1861C43.0919 55.2518 27.9174 61.226 21.0899 73.6601C19.7258 76.1451 18.7895 78.7344 18.2385 81.3592L18.2356 81.3569L17.538 84.8246L17.5394 84.8258Z" fill="url(#paint11_linear_4557_159)"/>
<path d="M44.922 122.054C59.5436 124.989 74.7181 119.015 81.5478 106.578C89.7757 91.5888 82.7519 72.8774 65.8572 64.7963C62.9719 63.4154 59.9857 62.4344 56.9773 61.8305C42.3597 58.8963 27.1864 64.869 20.3578 77.3045C12.1294 92.3003 19.1537 111.005 36.0464 119.092C38.9288 120.47 41.9125 121.452 44.9208 122.056L44.922 122.054Z" fill="url(#paint12_linear_4557_159)"/>
<path d="M45.9826 116.828C51.4781 117.931 57.3259 117.533 62.7292 115.357C76.2523 109.908 81.8634 95.384 75.27 82.9121C71.3078 75.4265 63.8483 70.3817 55.5921 68.7245C50.0966 67.6217 44.2474 68.0187 38.8444 70.1975C25.3262 75.6432 19.7102 90.1701 26.3085 102.639C30.2669 110.126 37.7264 115.171 45.9826 116.828Z" fill="url(#paint13_linear_4557_159)"/>
<path d="M46.5182 115.722C51.9384 116.81 57.7055 116.419 63.0332 114.27C76.3695 108.897 81.9032 94.5732 75.4011 82.2718C71.4945 74.8887 64.1367 69.9146 55.9949 68.2792C50.5748 67.1911 44.8065 67.5837 39.4788 69.7325C26.1462 75.1035 20.6088 89.4292 27.1158 101.727C31.0198 109.111 38.3764 114.086 46.5179 115.719L46.5182 115.722Z" fill="url(#paint14_radial_4557_159)"/>
<path style="mix-blend-mode:multiply" d="M46.5182 115.722C51.9384 116.81 57.7055 116.419 63.0332 114.27C76.3695 108.897 81.9032 94.5732 75.4011 82.2718C71.4945 74.8887 64.1367 69.9146 55.9949 68.2792C50.5748 67.1911 44.8065 67.5837 39.4788 69.7325C26.1462 75.1035 20.6088 89.4292 27.1158 101.727C31.0198 109.111 38.3764 114.086 46.5179 115.719L46.5182 115.722Z" fill="url(#paint15_radial_4557_159)"/>
<path d="M55.498 69.2297C57.8558 69.702 60.1938 70.4711 62.4521 71.5534C75.6897 77.8881 81.1934 92.5443 74.7445 104.294C69.3957 114.035 57.5069 118.715 46.0539 116.416C43.6961 115.944 41.3581 115.174 39.0998 114.092C25.8622 107.757 20.3571 93.1002 26.8065 81.3552C32.155 71.6118 44.0461 66.9291 55.498 69.2297ZM44.7894 122.717C59.3033 125.63 74.3686 119.7 81.1489 107.355C89.3174 92.4743 82.3428 73.9002 65.572 65.8767C62.7089 64.5063 59.7432 63.532 56.7562 62.9309C42.2449 60.0169 27.1822 65.9475 20.4045 78.2915C12.2352 93.1764 19.2105 111.746 35.9805 119.774C38.8421 121.143 41.8038 122.117 44.7905 122.715L44.7894 122.717Z" fill="url(#paint16_linear_4557_159)"/>
<path d="M44.8217 108.334L46.6638 104.985C47.9486 105.597 49.2618 106.038 50.6015 106.306C50.6662 106.319 50.732 106.331 50.7967 106.344C52.2053 106.605 53.5422 106.662 54.8097 106.511C56.0749 106.362 57.2248 105.985 58.2578 105.377C59.2897 104.77 60.1225 103.894 60.7488 102.752C61.6017 101.194 61.9381 99.7703 61.7448 98.4788C61.5556 97.1883 61.1037 95.9986 60.3794 94.9164C59.661 93.8295 58.7705 92.842 57.7083 91.9472C56.6462 91.0524 55.6653 90.2333 54.7634 89.4811C53.8615 88.7289 53.1416 88.026 52.6126 87.37C52.0833 86.7115 51.9776 86.0997 52.2905 85.5262C52.4821 85.1813 52.8625 84.9546 53.4383 84.8558C53.7112 84.8075 54.0186 84.8169 54.3567 84.8857C54.7393 84.9637 55.1645 85.1128 55.6316 85.3372C56.9222 85.9537 57.8899 86.8611 58.5362 88.0604C59.1853 89.262 59.3303 90.5671 58.9718 91.9715L64.8217 94.7698L69.555 86.1512L63.705 83.3529L62.9409 84.7505C61.9207 83.3696 60.8223 82.2255 59.6556 81.3142L61.6291 77.7208L57.0642 75.5371L55.2667 78.8086C53.8895 78.2155 52.5034 77.7681 51.119 77.4677C51.0393 77.4495 50.9584 77.4329 50.879 77.4174C49.5823 77.1578 48.3419 77.0834 47.1634 77.1988C45.9124 77.3228 44.776 77.6803 43.7605 78.281C42.7403 78.8757 41.9121 79.7578 41.2707 80.9278C40.3977 82.5145 40.0563 83.9629 40.2388 85.2858C40.4214 86.6087 40.8806 87.8158 41.6191 88.9069C42.3522 89.996 43.2648 91.0032 44.3527 91.916C45.4422 92.8299 46.4428 93.6716 47.3525 94.4347C48.267 95.2038 49.0057 95.9097 49.5741 96.5544C50.135 97.2026 50.2588 97.8122 49.9445 98.3846C49.6885 98.8502 49.2534 99.0926 48.6397 99.1052C48.3895 99.1127 48.129 99.0885 47.8585 99.0353C47.4652 98.956 47.0498 98.8122 46.6135 98.6027C46.0284 98.3253 45.4984 97.9481 45.0187 97.4742C44.5434 97.0037 44.1577 96.4911 43.8619 95.9388C43.5712 95.3858 43.3769 94.803 43.2925 94.1822C43.208 93.5613 43.2686 92.956 43.4785 92.3671L37.5631 89.5386L32.9417 97.9585L38.857 100.787L39.6439 99.3487C39.9192 99.751 40.2808 100.205 40.7374 100.717C41.1941 101.229 41.7405 101.755 42.3752 102.295L40.2591 106.147L44.824 108.331L44.8217 108.334Z" fill="url(#paint17_linear_4557_159)"/>
<path d="M44.6449 109.215L46.4871 105.866C47.7719 106.478 49.085 106.919 50.4248 107.187C50.4894 107.2 50.5553 107.212 50.6211 107.224C52.0297 107.485 53.3666 107.541 54.6326 107.389C55.8979 107.241 57.0477 106.863 58.0822 106.256C59.114 105.65 59.9469 104.774 60.5732 103.632C61.4261 102.074 61.7625 100.65 61.5692 99.3582C61.38 98.0676 60.9281 96.8781 60.2037 95.7958C59.4854 94.7089 58.5949 93.7213 57.5328 92.8266C56.4706 91.9318 55.4897 91.1127 54.5878 90.3605C53.6859 89.6083 52.966 88.9054 52.437 88.2494C51.9089 87.5894 51.802 86.9791 52.1149 86.4056C52.3065 86.0607 52.6869 85.834 53.2627 85.7352C53.5356 85.6869 53.843 85.6963 54.1811 85.7651C54.5634 85.8405 54.9889 85.9922 55.456 86.2166C56.7477 86.8317 57.7143 87.7405 58.3605 88.9398C59.0097 90.1414 59.1547 91.4465 58.7962 92.8509L64.6461 95.6492L69.3793 87.0306L63.5294 84.2323L62.7653 85.6299C61.7451 84.249 60.6466 83.1049 59.48 82.1936L61.4523 78.6016L56.8875 76.4179L55.0911 79.6879C53.7139 79.0949 52.3278 78.6475 50.9434 78.3471C50.8637 78.329 50.7828 78.3123 50.7034 78.2968C49.4053 78.036 48.1662 77.9628 46.9878 78.0782C45.7368 78.2022 44.6003 78.5597 43.5849 79.1604C42.5647 79.7551 41.7365 80.6372 41.0951 81.8072C40.2221 83.3939 39.8807 84.8423 40.0618 86.164C40.2443 87.487 40.7036 88.6941 41.4421 89.7851C42.1752 90.8742 43.0877 91.8815 44.1757 92.7943C45.2651 93.7081 46.2657 94.5498 47.1755 95.3129C48.0899 96.082 48.8286 96.7879 49.397 97.4327C49.9579 98.0809 50.0818 98.6905 49.7675 99.2629C49.5114 99.7285 49.0763 99.9709 48.4626 99.9835C48.2125 99.991 47.9508 99.9682 47.6814 99.9136C47.2882 99.8342 46.8742 99.6916 46.4364 99.4809C45.8513 99.2036 45.3214 98.8264 44.8428 98.351C44.3675 97.8806 43.9806 97.3693 43.6859 96.8156C43.3953 96.2626 43.201 95.6798 43.118 95.0601C43.0335 94.4392 43.0942 93.834 43.304 93.2451L37.3887 90.4165L32.7661 98.8379L38.6814 101.666L39.4683 100.228C39.7436 100.63 40.1052 101.084 40.5618 101.596C41.0185 102.108 41.5649 102.635 42.1996 103.174L40.0835 107.027L44.6484 109.21L44.6449 109.215Z" fill="url(#paint18_linear_4557_159)"/>
<g style="mix-blend-mode:screen">
<path d="M59.5137 94.862C59.7545 95.1738 59.985 95.4868 60.2037 95.7998C59.9904 95.4769 59.7576 95.1668 59.5137 94.862Z" fill="url(#paint19_linear_4557_159)"/>
</g>
<path style="mix-blend-mode:multiply" d="M81.5395 106.595C81.5395 106.595 81.5486 106.584 81.5506 106.578C83.0193 103.9 83.9941 101.104 84.5203 98.2721L84.531 98.2734L85.2617 94.6204L85.2588 94.6181C87.9121 81.4706 80.7007 67.4412 66.6786 60.7332C63.7933 59.3524 60.807 58.3713 57.7987 57.7675C43.1811 54.8332 28.0066 60.8074 21.1792 73.2415C19.7545 75.8363 18.7992 78.5421 18.2599 81.2864C18.2549 81.3107 18.2462 81.3367 18.2412 81.361L18.2383 81.3587L17.5421 84.8276L17.545 84.8299C16.9186 87.7265 16.7698 90.6701 17.075 93.5742C17.8547 104.193 24.6958 114.374 35.9837 119.778C38.8453 121.147 41.8069 122.121 44.7936 122.719C59.3075 125.633 74.3729 119.702 81.1517 107.356C81.2886 107.105 81.4109 106.851 81.5412 106.599L81.5395 106.595Z" fill="url(#paint20_linear_4557_159)"/>
<defs>
<linearGradient id="paint0_linear_4557_159" x1="58.751" y1="28.2693" x2="81.1148" y2="14.7878" gradientUnits="userSpaceOnUse">
<stop offset="0.16" stop-color="#FFF8C7"/>
<stop offset="0.2" stop-color="#FEF5C1"/>
<stop offset="0.25" stop-color="#FEEFB1"/>
<stop offset="0.3" stop-color="#FDE596"/>
<stop offset="0.36" stop-color="#FDD870"/>
<stop offset="0.42" stop-color="#FBC641"/>
<stop offset="0.47" stop-color="#FBB718"/>
<stop offset="0.54" stop-color="#B15D1F"/>
<stop offset="0.56" stop-color="#9E4522"/>
<stop offset="0.61" stop-color="#A04A23"/>
<stop offset="0.65" stop-color="#DB9723"/>
<stop offset="0.66" stop-color="#FDC223"/>
<stop offset="0.81" stop-color="#E89C23"/>
<stop offset="0.82" stop-color="#ECAA31"/>
<stop offset="0.84" stop-color="#F3C147"/>
<stop offset="0.85" stop-color="#F8D157"/>
<stop offset="0.87" stop-color="#FCDA61"/>
<stop offset="0.9" stop-color="#FDDE64"/>
<stop offset="1" stop-color="#FCC744"/>
</linearGradient>
<linearGradient id="paint1_linear_4557_159" x1="67.5679" y1="39.3661" x2="73.6553" y2="3.63064" gradientUnits="userSpaceOnUse">
<stop stop-color="#EBAB21"/>
<stop offset="0.08" stop-color="#FFC62A"/>
<stop offset="0.15" stop-color="#FFD75A"/>
<stop offset="0.41" stop-color="#FFF5A6"/>
<stop offset="0.42" stop-color="#FEF0A0"/>
<stop offset="0.44" stop-color="#FCE490"/>
<stop offset="0.47" stop-color="#F9CF75"/>
<stop offset="0.49" stop-color="#F5B34F"/>
<stop offset="0.52" stop-color="#F08F21"/>
<stop offset="0.56" stop-color="#C95127"/>
<stop offset="0.61" stop-color="#A14F24"/>
<stop offset="0.65" stop-color="#EAA622"/>
<stop offset="0.66" stop-color="#F1B637"/>
<stop offset="0.67" stop-color="#F8C84F"/>
<stop offset="0.68" stop-color="#FDD35D"/>
<stop offset="0.69" stop-color="#FFD762"/>
<stop offset="0.73" stop-color="#FFD660"/>
<stop offset="0.75" stop-color="#FFD559"/>
<stop offset="0.76" stop-color="#FFD24D"/>
<stop offset="0.77" stop-color="#FFCC2C"/>
<stop offset="0.78" stop-color="#FBC52B"/>
<stop offset="0.8" stop-color="#F2B429"/>
<stop offset="0.82" stop-color="#E6A133"/>
<stop offset="0.83" stop-color="#F5CB5D"/>
<stop offset="0.84" stop-color="#F9D86B"/>
<stop offset="0.85" stop-color="#FCDF72"/>
<stop offset="0.86" stop-color="#FDE275"/>
<stop offset="0.94" stop-color="#FDE47F"/>
<stop offset="1" stop-color="#FED84C"/>
</linearGradient>
<linearGradient id="paint2_linear_4557_159" x1="63.3875" y1="29.2066" x2="86.1293" y2="15.4973" gradientUnits="userSpaceOnUse">
<stop offset="0.16" stop-color="#DD8326"/>
<stop offset="0.21" stop-color="#DF8824"/>
<stop offset="0.27" stop-color="#E69821"/>
<stop offset="0.35" stop-color="#F1B31B"/>
<stop offset="0.37" stop-color="#F6BD1A"/>
<stop offset="0.43" stop-color="#F4AD1C"/>
<stop offset="0.47" stop-color="#F4A01E"/>
<stop offset="0.54" stop-color="#9E4322"/>
<stop offset="0.61" stop-color="#A04A23"/>
<stop offset="0.71" stop-color="#FFC527"/>
<stop offset="1" stop-color="#B56628"/>
</linearGradient>
<linearGradient id="paint3_linear_4557_159" x1="73.8265" y1="40.4793" x2="78.9919" y2="10.1567" gradientUnits="userSpaceOnUse">
<stop offset="0.16" stop-color="#D07D28"/>
<stop offset="0.23" stop-color="#CB7727"/>
<stop offset="0.31" stop-color="#BD6725"/>
<stop offset="0.41" stop-color="#A64C22"/>
<stop offset="0.43" stop-color="#9E4322"/>
<stop offset="0.61" stop-color="#A04A23"/>
<stop offset="1" stop-color="#BB5427"/>
</linearGradient>
<radialGradient id="paint4_radial_4557_159" cx="0" cy="0" r="1" gradientUnits="userSpaceOnUse" gradientTransform="translate(73.2621 18.6394) rotate(-80.3326) scale(14.0907 5.96972)">
<stop stop-color="#DDA027"/>
<stop offset="1" stop-color="#C87729"/>
</radialGradient>
<radialGradient id="paint5_radial_4557_159" cx="0" cy="0" r="1" gradientUnits="userSpaceOnUse" gradientTransform="translate(80.7513 19.1009) rotate(-80.3326) scale(20.5374 11.9148)">
<stop stop-color="white"/>
<stop offset="0.59" stop-color="white"/>
<stop offset="0.69" stop-color="white"/>
<stop offset="0.8" stop-color="#FEFDFD"/>
<stop offset="0.85" stop-color="#FCF8F6"/>
<stop offset="0.88" stop-color="#F8F0EA"/>
<stop offset="0.91" stop-color="#F2E4D9"/>
<stop offset="0.93" stop-color="#EBD5C3"/>
<stop offset="0.95" stop-color="#E3C2A7"/>
<stop offset="0.96" stop-color="#D8AB87"/>
<stop offset="0.98" stop-color="#CC9061"/>
<stop offset="1" stop-color="#BA6928"/>
</radialGradient>
<linearGradient id="paint6_linear_4557_159" x1="85.7937" y1="39.8414" x2="67.9406" y2="10.2257" gradientUnits="userSpaceOnUse">
<stop stop-color="#E79824"/>
<stop offset="0.41" stop-color="#F5B21A"/>
<stop offset="0.52" stop-color="#F2AC1B"/>
<stop offset="0.67" stop-color="#EA9C20"/>
<stop offset="0.77" stop-color="#E48E25"/>
<stop offset="1" stop-color="#D36827"/>
</linearGradient>
<linearGradient id="paint7_linear_4557_159" x1="76.1481" y1="14.6763" x2="73.623" y2="29.4991" gradientUnits="userSpaceOnUse">
<stop offset="0.01" stop-color="#A14323"/>
<stop offset="0.06" stop-color="#A54B24"/>
<stop offset="0.13" stop-color="#B06227"/>
<stop offset="0.16" stop-color="#B66D29"/>
<stop offset="0.27" stop-color="#B26728"/>
<stop offset="0.41" stop-color="#A95725"/>
<stop offset="0.54" stop-color="#9E4322"/>
<stop offset="0.61" stop-color="#A04A23"/>
<stop offset="0.71" stop-color="#B35E27"/>
<stop offset="1" stop-color="#9E5B25"/>
</linearGradient>
<linearGradient id="paint8_linear_4557_159" x1="82.8796" y1="23.6022" x2="67.4333" y2="20.9709" gradientUnits="userSpaceOnUse">
<stop stop-color="#EEA620"/>
<stop offset="0.41" stop-color="#FFC60A"/>
<stop offset="0.52" stop-color="#FCC00D"/>
<stop offset="0.66" stop-color="#F5B016"/>
<stop offset="0.77" stop-color="#EE9F21"/>
<stop offset="1" stop-color="#C16D29"/>
</linearGradient>
<linearGradient id="paint9_linear_4557_159" x1="86.401" y1="25.9415" x2="131.406" y2="38.879" gradientUnits="userSpaceOnUse">
<stop stop-color="white"/>
<stop offset="0.11" stop-color="#FCFAF9"/>
<stop offset="0.24" stop-color="#F5ECEB"/>
<stop offset="0.39" stop-color="#E9D5D2"/>
<stop offset="0.54" stop-color="#D8B5B0"/>
<stop offset="0.7" stop-color="#C38C85"/>
<stop offset="0.86" stop-color="#A95B50"/>
<stop offset="1" stop-color="#902B1D"/>
</linearGradient>
<linearGradient id="paint10_linear_4557_159" x1="18.8843" y1="95.306" x2="84.5292" y2="80.7738" gradientUnits="userSpaceOnUse">
<stop offset="0.16" stop-color="#FFF8C7"/>
<stop offset="0.2" stop-color="#FEF5C1"/>
<stop offset="0.25" stop-color="#FEEFB1"/>
<stop offset="0.3" stop-color="#FDE596"/>
<stop offset="0.36" stop-color="#FDD870"/>
<stop offset="0.42" stop-color="#FBC641"/>
<stop offset="0.47" stop-color="#FBB718"/>
<stop offset="0.54" stop-color="#B15D1F"/>
<stop offset="0.56" stop-color="#9E4522"/>
<stop offset="0.61" stop-color="#A04A23"/>
<stop offset="0.65" stop-color="#DB9723"/>
<stop offset="0.66" stop-color="#FDC223"/>
<stop offset="0.81" stop-color="#E89C23"/>
<stop offset="0.82" stop-color="#ECAA31"/>
<stop offset="0.84" stop-color="#F3C147"/>
<stop offset="0.85" stop-color="#F8D157"/>
<stop offset="0.87" stop-color="#FCDA61"/>
<stop offset="0.9" stop-color="#FDDE64"/>
<stop offset="1" stop-color="#FCC744"/>
</linearGradient>
<linearGradient id="paint11_linear_4557_159" x1="85.1933" y1="95.0633" x2="18.2061" y2="81.6081" gradientUnits="userSpaceOnUse">
<stop stop-color="#EBAB21"/>
<stop offset="0.08" stop-color="#FFC62A"/>
<stop offset="0.15" stop-color="#FFD75A"/>
<stop offset="0.41" stop-color="#FFF5A6"/>
<stop offset="0.42" stop-color="#FEF0A0"/>
<stop offset="0.44" stop-color="#FCE490"/>
<stop offset="0.47" stop-color="#F9CF75"/>
<stop offset="0.49" stop-color="#F5B34F"/>
<stop offset="0.52" stop-color="#F08F21"/>
<stop offset="0.56" stop-color="#C95127"/>
<stop offset="0.61" stop-color="#A14F24"/>
<stop offset="0.65" stop-color="#EAA622"/>
<stop offset="0.66" stop-color="#F1B637"/>
<stop offset="0.67" stop-color="#F8C84F"/>
<stop offset="0.68" stop-color="#FDD35D"/>
<stop offset="0.69" stop-color="#FFD762"/>
<stop offset="0.73" stop-color="#FFD660"/>
<stop offset="0.75" stop-color="#FFD559"/>
<stop offset="0.76" stop-color="#FFD24D"/>
<stop offset="0.77" stop-color="#FFCC2C"/>
<stop offset="0.78" stop-color="#FBC52B"/>
<stop offset="0.8" stop-color="#F2B429"/>
<stop offset="0.82" stop-color="#E6A133"/>
<stop offset="0.83" stop-color="#F5CB5D"/>
<stop offset="0.84" stop-color="#F9D86B"/>
<stop offset="0.85" stop-color="#FCDF72"/>
<stop offset="0.86" stop-color="#FDE275"/>
<stop offset="0.94" stop-color="#FDE47F"/>
<stop offset="1" stop-color="#FED84C"/>
</linearGradient>
<linearGradient id="paint12_linear_4557_159" x1="18.067" y1="99.3691" x2="83.7119" y2="84.8369" gradientUnits="userSpaceOnUse">
<stop offset="0.16" stop-color="#DD8326"/>
<stop offset="0.21" stop-color="#DF8824"/>
<stop offset="0.27" stop-color="#E69821"/>
<stop offset="0.35" stop-color="#F1B31B"/>
<stop offset="0.37" stop-color="#F6BD1A"/>
<stop offset="0.43" stop-color="#F4AD1C"/>
<stop offset="0.47" stop-color="#F4A01E"/>
<stop offset="0.54" stop-color="#9E4322"/>
<stop offset="0.61" stop-color="#A04A23"/>
<stop offset="0.71" stop-color="#FFC527"/>
<stop offset="1" stop-color="#B56628"/>
</linearGradient>
<linearGradient id="paint13_linear_4557_159" x1="24.4525" y1="98.7542" x2="76.9955" y2="87.1224" gradientUnits="userSpaceOnUse">
<stop offset="0.16" stop-color="#D07D28"/>
<stop offset="0.23" stop-color="#CB7727"/>
<stop offset="0.31" stop-color="#BD6725"/>
<stop offset="0.41" stop-color="#A64C22"/>
<stop offset="0.43" stop-color="#9E4322"/>
<stop offset="0.61" stop-color="#A04A23"/>
<stop offset="1" stop-color="#BB5427"/>
</linearGradient>
<radialGradient id="paint14_radial_4557_159" cx="0" cy="0" r="1" gradientUnits="userSpaceOnUse" gradientTransform="translate(52.6974 92.3216) rotate(-12.4826) scale(26.7885 26.7885)">
<stop stop-color="#DDA027"/>
<stop offset="1" stop-color="#C87729"/>
</radialGradient>
<radialGradient id="paint15_radial_4557_159" cx="0" cy="0" r="1" gradientUnits="userSpaceOnUse" gradientTransform="translate(54.5765 111.989) rotate(-12.4826) scale(41.915 41.915)">
<stop stop-color="white"/>
<stop offset="0.66" stop-color="white"/>
<stop offset="0.77" stop-color="white"/>
<stop offset="0.85" stop-color="#FEFDFD"/>
<stop offset="0.89" stop-color="#FCF8F6"/>
<stop offset="0.91" stop-color="#F8F0EA"/>
<stop offset="0.93" stop-color="#F2E4D9"/>
<stop offset="0.95" stop-color="#EBD5C3"/>
<stop offset="0.96" stop-color="#E3C2A7"/>
<stop offset="0.97" stop-color="#D8AB87"/>
<stop offset="0.99" stop-color="#CC9061"/>
<stop offset="1" stop-color="#BA6928"/>
</radialGradient>
<linearGradient id="paint16_linear_4557_159" x1="43.9976" y1="62.6571" x2="57.473" y2="123.528" gradientUnits="userSpaceOnUse">
<stop stop-color="#EEA620"/>
<stop offset="0.41" stop-color="#FFC60A"/>
<stop offset="0.53" stop-color="#FCC00C"/>
<stop offset="0.7" stop-color="#F5B012"/>
<stop offset="0.88" stop-color="#E9951D"/>
<stop offset="1" stop-color="#E08126"/>
</linearGradient>
<linearGradient id="paint17_linear_4557_159" x1="45.2417" y1="121.984" x2="57.2912" y2="61.9949" gradientUnits="userSpaceOnUse">
<stop offset="0.16" stop-color="#C87829"/>
<stop offset="0.26" stop-color="#C37228"/>
<stop offset="0.38" stop-color="#B66226"/>
<stop offset="0.52" stop-color="#A14722"/>
<stop offset="0.54" stop-color="#9E4322"/>
<stop offset="0.61" stop-color="#A04A23"/>
<stop offset="0.71" stop-color="#B35E27"/>
<stop offset="1" stop-color="#9E5B25"/>
</linearGradient>
<linearGradient id="paint18_linear_4557_159" x1="45.4649" y1="120.871" x2="57.1825" y2="62.5344" gradientUnits="userSpaceOnUse">
<stop stop-color="#EEA620"/>
<stop offset="0.41" stop-color="#FFC60A"/>
<stop offset="0.52" stop-color="#FCC00D"/>
<stop offset="0.66" stop-color="#F5B016"/>
<stop offset="0.77" stop-color="#EE9F21"/>
<stop offset="1" stop-color="#C16D29"/>
</linearGradient>
<linearGradient id="paint19_linear_4557_159" x1="59.7427" y1="96.0002" x2="60.0084" y2="94.6772" gradientUnits="userSpaceOnUse">
<stop stop-color="#B7B7B8"/>
<stop offset="1" stop-color="#010101"/>
</linearGradient>
<linearGradient id="paint20_linear_4557_159" x1="102.345" y1="88.7609" x2="203.241" y2="85.525" gradientUnits="userSpaceOnUse">
<stop stop-color="white"/>
<stop offset="0.11" stop-color="#FCFAF9"/>
<stop offset="0.24" stop-color="#F5ECEB"/>
<stop offset="0.39" stop-color="#E9D5D2"/>
<stop offset="0.54" stop-color="#D8B5B0"/>
<stop offset="0.7" stop-color="#C38C85"/>
<stop offset="0.86" stop-color="#A95B50"/>
<stop offset="1" stop-color="#902B1D"/>
</linearGradient>
</defs>
</svg>
