<svg width="80" height="139" viewBox="0 0 80 139" fill="none" xmlns="http://www.w3.org/2000/svg">
<path d="M77.7056 23.1714C79.359 13.4673 77.2524 5.01285 72.9987 4.28891C68.7459 3.56401 63.9563 10.8429 62.303 20.5471C60.6502 30.2486 62.7568 38.703 67.0113 39.4277C71.2659 40.1524 76.0538 32.8737 77.7066 23.1722L77.7056 23.1714Z" fill="url(#paint0_linear_0_9658)"/>
<path d="M77.4596 7.23362C79.2607 10.7265 79.8439 16.7519 78.7208 23.345C77.5976 29.9365 75.0518 35.4268 72.1952 38.1259L71.7833 40.5467L67.6897 39.848C67.6756 39.8462 67.6615 39.8444 67.6474 39.8426C67.6333 39.8408 67.619 39.8373 67.6047 39.8338L67.5569 39.8256L67.5576 39.8247C63.2919 38.9841 61.1901 30.4389 62.8592 20.6417C64.5286 10.8463 69.3385 3.48248 73.6395 4.09489L73.641 4.09298L77.8716 4.81273L77.4596 7.23362Z" fill="url(#paint1_linear_0_9658)"/>
<path d="M82.6603 24.0166C84.3419 14.1485 82.1991 5.55087 77.8737 4.81379C73.5482 4.0767 68.6787 11.4788 66.9971 21.3469C65.3154 31.2133 67.4589 39.81 71.7844 40.5471C76.1098 41.2841 80.9794 33.882 82.6603 24.0166Z" fill="url(#paint2_linear_0_9658)"/>
<path d="M78.0968 7.61506C74.5605 7.01222 70.5362 13.3209 69.1075 21.7052C67.6789 30.0895 69.3875 37.3746 72.9228 37.9767C76.4591 38.5795 80.4834 32.2709 81.9121 23.8866C83.3407 15.5023 81.632 8.21715 78.0968 7.61506Z" fill="url(#paint3_linear_0_9658)"/>
<path d="M77.3707 8.84219C74.1117 8.28703 70.4124 14.0449 69.1074 21.7046C67.8015 29.3636 69.386 36.0221 72.6442 36.5782C75.9031 37.1334 79.6025 31.3755 80.9075 23.7158C82.2125 16.0561 80.6288 9.39832 77.3707 8.84219Z" fill="url(#paint4_radial_0_9658)"/>
<path style="mix-blend-mode:multiply" d="M77.3707 8.84219C74.1117 8.28703 70.4124 14.0449 69.1074 21.7046C67.8015 29.3636 69.386 36.0221 72.6442 36.5782C75.9031 37.1334 79.6025 31.3755 80.9075 23.7158C82.2125 16.0561 80.6288 9.39832 77.3707 8.84219Z" fill="url(#paint5_radial_0_9658)"/>
<path d="M69.2989 21.7397C70.6039 14.08 74.3837 8.33421 77.7409 8.9063C81.0982 9.47839 82.761 16.1519 81.456 23.8116C80.1516 31.4686 76.3718 37.2144 73.0145 36.6423C69.6572 36.0702 67.9945 29.3967 69.2989 21.7397ZM83.0796 24.0877C84.733 14.3836 82.6264 5.92914 78.3718 5.20444C74.1189 4.47954 69.3293 11.7585 67.676 21.4626C66.0232 31.1641 68.1298 39.6185 72.3844 40.3432C76.639 41.0679 81.4268 33.7892 83.0796 24.0877Z" fill="url(#paint6_linear_0_9658)"/>
<path d="M79.1403 24.7812L79.5901 22.1389L78.6326 21.9761C78.7652 21.1948 78.8449 20.4433 78.8729 19.7162C78.9008 18.9891 78.8763 18.3386 78.7977 17.7665C78.7196 17.1978 78.5822 16.7299 78.3879 16.366C78.1945 16.0028 77.9327 15.7936 77.6058 15.738C77.1602 15.6617 76.7677 15.8057 76.4251 16.1719C76.0833 16.5372 75.7781 17.0057 75.508 17.5794C75.2388 18.1539 74.998 18.791 74.7901 19.4866C74.5815 20.1831 74.389 20.8257 74.2145 21.4158C74.0391 22.0051 73.8713 22.4981 73.7096 22.8888C73.549 23.2819 73.3867 23.4644 73.2228 23.4362C73.1245 23.4193 73.052 23.2847 73.0072 23.0323C72.963 22.7772 72.9843 22.3954 73.0709 21.8835C73.1982 21.1385 73.4137 20.4845 73.716 19.9191C74.0195 19.3562 74.366 19.0086 74.7558 18.878L75.3319 15.4959L72.8675 15.0761L72.2914 18.4581L72.6909 18.526C72.351 19.3084 72.0767 20.0727 71.8656 20.8216L70.8389 20.6463L70.3891 23.2886L71.3245 23.448C71.206 24.231 71.1282 24.984 71.0887 25.7082C71.0491 26.4323 71.0649 27.0822 71.136 27.65C71.2075 28.2212 71.339 28.6845 71.5294 29.0437C71.7212 29.401 71.9845 29.6083 72.3194 29.6656C72.772 29.7427 73.1731 29.5978 73.5232 29.2297C73.8724 28.861 74.1837 28.3848 74.456 27.8004C74.7278 27.2187 74.9701 26.5719 75.1836 25.8574C75.3962 25.1439 75.5932 24.4877 75.7702 23.8904C75.9478 23.2904 76.1161 22.787 76.2728 22.383C76.4301 21.9763 76.5907 21.788 76.7547 21.8162C76.8875 21.8385 76.9658 21.9932 76.9883 22.2839C77.0113 22.5719 76.9871 22.9297 76.9153 23.354C76.8576 23.6932 76.7723 24.0262 76.6588 24.3556C76.547 24.6848 76.4195 24.9769 76.2801 25.2347C76.1413 25.4899 75.9892 25.7068 75.8248 25.8782C75.6598 26.0524 75.4963 26.1517 75.3309 26.1766L74.7481 29.5967L77.1549 30.0069L77.7377 26.5868L77.3276 26.5167C77.4258 26.2994 77.5384 26.0282 77.662 25.7036C77.7862 25.3764 77.9119 25.0039 78.0379 24.5897L79.138 24.7763L79.1403 24.7812Z" fill="url(#paint7_linear_0_9658)"/>
<path d="M79.5258 24.8467L79.9766 22.2051L79.0191 22.0423C79.1526 21.2618 79.2314 20.5095 79.2593 19.7824C79.2873 19.0553 79.2627 18.4048 79.1834 17.8336C79.1053 17.2649 78.968 16.797 78.7736 16.4331C78.5802 16.07 78.3184 15.8608 77.9915 15.8051C77.5459 15.7289 77.1534 15.8728 76.8101 16.24C76.4683 16.6053 76.1631 17.0739 75.893 17.6476C75.6238 18.222 75.3829 18.8591 75.175 19.5547C74.9664 20.2513 74.7739 20.8938 74.5995 21.4839C74.4241 22.0732 74.2563 22.5662 74.0945 22.9569C73.934 23.3501 73.7717 23.5326 73.6078 23.5043C73.5095 23.4874 73.437 23.3528 73.3922 23.1004C73.3479 22.8454 73.3693 22.4636 73.4558 21.9516C73.5824 21.2076 73.7977 20.5519 74.101 19.9872C74.4045 19.4243 74.751 19.0767 75.1407 18.9461L75.7168 15.564L73.2525 15.1442L72.6764 18.5262L73.0759 18.5941C72.736 19.3766 72.4617 20.1408 72.2506 20.8898L71.2239 20.7144L70.7741 23.3567L71.7095 23.5161C71.591 24.2991 71.5132 25.0521 71.4736 25.7763C71.434 26.5004 71.4498 27.1503 71.5209 27.7181C71.5924 28.2893 71.724 28.7527 71.9136 29.1128C72.1054 29.4701 72.3687 29.6774 72.7036 29.7347C73.1563 29.8118 73.5573 29.6668 73.9075 29.2988C74.2567 28.9301 74.5679 28.4539 74.8402 27.8695C75.112 27.2877 75.3534 26.6402 75.5678 25.9265C75.7805 25.213 75.9774 24.5568 76.1545 23.9595C76.3321 23.3595 76.5013 22.8568 76.657 22.4521C76.8152 22.0462 76.975 21.857 77.1389 21.8853C77.2717 21.9076 77.35 22.0623 77.3725 22.353C77.3955 22.641 77.3713 22.9988 77.2985 23.4223C77.2409 23.7615 77.1556 24.0945 77.043 24.4247C76.9312 24.7539 76.8037 25.0459 76.6643 25.3038C76.5255 25.559 76.3725 25.7751 76.208 25.9465C76.0431 26.1207 75.8788 26.221 75.7134 26.2459L75.1306 29.666L77.5374 30.0762L78.1202 26.6561L77.7101 26.586C77.8092 26.3694 77.9209 26.0975 78.0445 25.7729C78.1687 25.4457 78.2944 25.0732 78.4195 24.6582L79.5205 24.8456L79.5258 24.8467Z" fill="url(#paint8_linear_0_9658)"/>
<path style="mix-blend-mode:multiply" d="M79.8009 5.79261C79.2187 5.28312 78.5783 4.93415 77.8723 4.8143L73.6408 4.0938L73.6393 4.09571C73.0347 4.01064 72.4203 4.09773 71.8053 4.31157C67.8845 4.95389 63.8027 11.7415 62.3019 20.5484C60.8018 29.3525 62.4061 37.1092 65.8926 39.0145C66.4037 39.4214 66.9568 39.7078 67.5574 39.8255L67.5567 39.8264L67.6045 39.8346C67.6188 39.8381 67.6322 39.8409 67.6472 39.8434C67.6613 39.8452 67.6754 39.847 67.6895 39.8488L71.7831 40.5476C72.489 40.6674 73.2085 40.5513 73.9274 40.2626C77.7388 39.2845 81.6227 32.628 83.0779 24.0878C84.5337 15.5449 83.0725 7.97695 79.8009 5.79261Z" fill="url(#paint9_linear_0_9658)"/>
<path d="M45.85 118.382C60.4716 121.317 75.6461 115.343 82.4758 102.906C90.7037 87.9169 83.6799 69.2054 66.7864 61.1229C63.901 59.742 60.9148 58.761 57.9065 58.1571C43.2889 55.2229 28.1155 61.1956 21.2869 73.6311C13.0597 88.6255 20.0843 107.333 36.9756 115.418C39.858 116.797 42.8416 117.778 45.85 118.382Z" fill="url(#paint10_linear_0_9658)"/>
<path d="M17.6493 85.2183L17.8485 85.2577C16.9068 97.3916 24.0394 109.689 36.8884 115.84C39.7708 117.218 42.7545 118.2 45.7628 118.804C60.3845 121.739 75.559 115.765 82.3887 103.328C83.2299 101.793 83.9036 100.221 84.4323 98.6243L84.6397 98.6654L85.3704 95.0123L85.3623 95.0106C87.7805 81.9858 80.5723 68.182 66.6992 61.5444C63.8139 60.1636 60.8277 59.1825 57.8193 58.5787C43.2017 55.6444 28.0272 61.6186 21.1998 74.0526C19.8357 76.5377 18.8993 79.1269 18.3484 81.7517L18.3455 81.7495L17.6478 85.2172L17.6493 85.2183Z" fill="url(#paint11_linear_0_9658)"/>
<path d="M45.0313 122.447C59.653 125.382 74.8275 119.408 81.6572 106.971C89.8851 91.9814 82.8613 73.2699 65.9666 65.1889C63.0813 63.808 60.095 62.8269 57.0867 62.2231C42.4691 59.2888 27.2958 65.2616 20.4672 77.6971C12.2388 92.6929 19.2631 111.398 36.1558 119.484C39.0382 120.863 42.0219 121.844 45.0302 122.448L45.0313 122.447Z" fill="url(#paint12_linear_0_9658)"/>
<path d="M46.0924 117.22C51.588 118.323 57.4357 117.925 62.839 115.749C76.3621 110.3 81.9732 95.7761 75.3798 83.3042C71.4177 75.8186 63.9581 70.7738 55.702 69.1166C50.2065 68.0138 44.3573 68.4108 38.9543 70.5896C25.4361 76.0353 19.8201 90.5622 26.4184 103.031C30.3767 110.518 37.8363 115.563 46.0924 117.22Z" fill="url(#paint13_linear_0_9658)"/>
<path d="M46.6276 116.114C52.0478 117.202 57.8149 116.811 63.1426 114.662C76.4789 109.289 82.0126 94.9653 75.5105 82.6639C71.6039 75.2808 64.2461 70.3067 56.1043 68.6713C50.6841 67.5832 44.9159 67.9758 39.5882 70.1246C26.2556 75.4956 20.7182 89.8212 27.2252 102.119C31.1291 109.503 38.4858 114.478 46.6273 116.111L46.6276 116.114Z" fill="url(#paint14_radial_0_9658)"/>
<path style="mix-blend-mode:multiply" d="M46.6276 116.114C52.0478 117.202 57.8149 116.811 63.1426 114.662C76.4789 109.289 82.0126 94.9653 75.5105 82.6639C71.6039 75.2808 64.2461 70.3067 56.1043 68.6713C50.6841 67.5832 44.9159 67.9758 39.5882 70.1246C26.2556 75.4956 20.7182 89.8212 27.2252 102.119C31.1291 109.503 38.4858 114.478 46.6273 116.111L46.6276 116.114Z" fill="url(#paint15_radial_0_9658)"/>
<path d="M55.6074 69.6218C57.9652 70.0941 60.3032 70.8632 62.5614 71.9454C75.7991 78.2802 81.3027 92.9363 74.8539 104.686C69.5051 114.427 57.6163 119.107 46.1632 116.808C43.8054 116.336 41.4675 115.567 39.2092 114.484C25.9716 108.15 20.4665 93.4923 26.9159 81.7473C32.2644 72.0039 44.1555 67.3212 55.6074 69.6218ZM44.8987 123.109C59.4127 126.023 74.478 120.092 81.2582 107.747C89.4267 92.8664 82.4522 74.2923 65.6814 66.2688C62.8183 64.8984 59.8526 63.9241 56.8656 63.323C42.3543 60.4089 27.2915 66.3396 20.5139 78.6836C12.3445 93.5685 19.3199 112.139 36.0899 120.166C38.9515 121.535 41.9132 122.509 44.8999 123.107L44.8987 123.109Z" fill="url(#paint16_linear_0_9658)"/>
<path d="M44.9306 108.726L46.7727 105.377C48.0575 105.989 49.3707 106.43 50.7104 106.698C50.7751 106.711 50.8409 106.723 50.9056 106.737C52.3142 106.997 53.6511 107.054 54.9186 106.903C56.1838 106.755 57.3337 106.377 58.3667 105.769C59.3985 105.162 60.2314 104.286 60.8577 103.144C61.7106 101.586 62.0469 100.162 61.8537 98.8709C61.6645 97.5804 61.2126 96.3907 60.4882 95.3085C59.7699 94.2216 58.8794 93.2341 57.8172 92.3393C56.7551 91.4445 55.7742 90.6254 54.8723 89.8732C53.9704 89.121 53.2505 88.4181 52.7215 87.7621C52.1922 87.1036 52.0865 86.4918 52.3994 85.9182C52.591 85.5734 52.9714 85.3467 53.5472 85.2479C53.8201 85.1996 54.1275 85.209 54.4656 85.2778C54.8482 85.3558 55.2734 85.5049 55.7405 85.7293C57.0311 86.3458 57.9988 87.2532 58.645 88.4525C59.2942 89.6541 59.4392 90.9591 59.0807 92.3636L64.9306 95.1618L69.6638 86.5433L63.8139 83.745L63.0498 85.1426C62.0296 83.7617 60.9311 82.6176 59.7645 81.7063L61.7379 78.1129L57.1731 75.9292L55.3755 79.2006C53.9984 78.6076 52.6123 78.1601 51.2279 77.8597C51.1482 77.8416 51.0673 77.825 50.9879 77.8095C49.6912 77.5499 48.4507 77.4755 47.2723 77.5909C46.0213 77.7149 44.8848 78.0724 43.8694 78.6731C42.8492 79.2678 42.021 80.1499 41.3796 81.3199C40.5066 82.9065 40.1651 84.355 40.3477 85.6779C40.5302 87.0008 40.9895 88.2079 41.728 89.299C42.4611 90.3881 43.3737 91.3953 44.4616 92.3081C45.551 93.222 46.5517 94.0636 47.4614 94.8267C48.3759 95.5959 49.1146 96.3018 49.6829 96.9465C50.2439 97.5947 50.3677 98.2043 50.0534 98.7767C49.7974 99.2423 49.3622 99.4847 48.7486 99.4973C48.4984 99.5048 48.2379 99.4806 47.9674 99.4274C47.5741 99.3481 47.1587 99.2043 46.7223 98.9947C46.1372 98.7174 45.6073 98.3402 45.1276 97.8663C44.6523 97.3958 44.2665 96.8832 43.9707 96.3309C43.6801 95.7779 43.4858 95.1951 43.4014 94.5742C43.3169 93.9534 43.3775 93.3481 43.5874 92.7592L37.672 89.9307L33.0506 98.3506L38.9659 101.179L39.7527 99.7408C40.0281 100.143 40.3897 100.597 40.8463 101.109C41.303 101.621 41.8494 102.147 42.4841 102.687L40.368 106.539L44.9329 108.723L44.9306 108.726Z" fill="url(#paint17_linear_0_9658)"/>
<path d="M44.7543 109.607L46.5965 106.258C47.8813 106.87 49.1944 107.311 50.5341 107.579C50.5988 107.592 50.6646 107.604 50.7305 107.616C52.139 107.877 53.4759 107.933 54.742 107.781C56.0072 107.633 57.1571 107.255 58.1916 106.648C59.2234 106.042 60.0563 105.166 60.6826 104.024C61.5354 102.466 61.8718 101.042 61.6786 99.7503C61.4894 98.4597 61.0375 97.2701 60.3131 96.1879C59.5948 95.101 58.7043 94.1134 57.6421 93.2186C56.58 92.3239 55.5991 91.5048 54.6972 90.7526C53.7953 90.0004 53.0754 89.2975 52.5464 88.6415C52.0183 87.9815 51.9114 87.3712 52.2243 86.7977C52.4158 86.4528 52.7963 86.2261 53.3721 86.1273C53.645 86.079 53.9523 86.0884 54.2905 86.1572C54.6727 86.2326 55.0983 86.3843 55.5654 86.6087C56.8571 87.2238 57.8236 88.1326 58.4699 89.3319C59.1191 90.5335 59.264 91.8385 58.9056 93.243L64.7555 96.0413L69.4887 87.4227L63.6388 84.6244L62.8746 86.022C61.8545 84.6411 60.756 83.497 59.5894 82.5857L61.5617 78.9937L56.9968 76.81L55.2004 80.08C53.8233 79.4869 52.4371 79.0396 51.0527 78.7391C50.973 78.721 50.8922 78.7044 50.8128 78.6888C49.5146 78.4281 48.2756 78.3549 47.0972 78.4703C45.8462 78.5943 44.7097 78.9518 43.6942 79.5525C42.6741 80.1472 41.8459 81.0293 41.2045 82.1993C40.3314 83.786 39.99 85.2344 40.1711 86.5561C40.3537 87.879 40.8129 89.0862 41.5515 90.1772C42.2845 91.2663 43.1971 92.2736 44.2851 93.1863C45.3745 94.1002 46.3751 94.9419 47.2849 95.705C48.1993 96.4741 48.938 97.18 49.5064 97.8247C50.0673 98.473 50.1912 99.0826 49.8768 99.655C49.6208 100.121 49.1857 100.363 48.572 100.376C48.3219 100.383 48.0602 100.36 47.7908 100.306C47.3975 100.226 46.9836 100.084 46.5458 99.873C45.9607 99.5957 45.4307 99.2185 44.9522 98.7431C44.4769 98.2726 44.09 97.7614 43.7953 97.2077C43.5047 96.6547 43.3104 96.0719 43.2274 95.4522C43.1429 94.8313 43.2036 94.2261 43.4134 93.6372L37.4981 90.8086L32.8754 99.23L38.7908 102.059L39.5776 100.62C39.853 101.022 40.2146 101.476 40.6712 101.988C41.1279 102.5 41.6743 103.027 42.309 103.566L40.1929 107.419L44.7577 109.602L44.7543 109.607Z" fill="url(#paint18_linear_0_9658)"/>
<g style="mix-blend-mode:screen">
<path d="M59.6225 95.2541C59.8634 95.5659 60.0939 95.8789 60.3126 96.1919C60.0993 95.869 59.8665 95.5589 59.6225 95.2541Z" fill="url(#paint19_linear_0_9658)"/>
</g>
<path style="mix-blend-mode:multiply" d="M81.6493 106.987C81.6493 106.987 81.6585 106.976 81.6604 106.97C83.1291 104.293 84.1039 101.496 84.6302 98.6642L84.6408 98.6655L85.3716 95.0125L85.3687 95.0102C88.022 81.8627 80.8106 67.8332 66.7885 61.1253C63.9032 59.7445 60.9169 58.7634 57.9086 58.1596C43.291 55.2253 28.1165 61.1995 21.289 73.6336C19.8644 76.2284 18.9091 78.9342 18.3698 81.6785C18.3648 81.7028 18.356 81.7288 18.351 81.753L18.3481 81.7508L17.6519 85.2197L17.6548 85.2219C17.0285 88.1186 16.8797 91.0622 17.1848 93.9662C17.9646 104.585 24.8057 114.766 36.0935 120.17C38.9551 121.539 41.9168 122.513 44.9035 123.111C59.4174 126.025 74.4827 120.094 81.2615 107.749C81.3985 107.497 81.5208 107.243 81.6511 106.991L81.6493 106.987Z" fill="url(#paint20_linear_0_9658)"/>
<defs>
<linearGradient id="paint0_linear_0_9658" x1="58.8598" y1="28.6619" x2="81.2237" y2="15.1803" gradientUnits="userSpaceOnUse">
<stop offset="0.16" stop-color="#FFF8C7"/>
<stop offset="0.2" stop-color="#FEF5C1"/>
<stop offset="0.25" stop-color="#FEEFB1"/>
<stop offset="0.3" stop-color="#FDE596"/>
<stop offset="0.36" stop-color="#FDD870"/>
<stop offset="0.42" stop-color="#FBC641"/>
<stop offset="0.47" stop-color="#FBB718"/>
<stop offset="0.54" stop-color="#B15D1F"/>
<stop offset="0.56" stop-color="#9E4522"/>
<stop offset="0.61" stop-color="#A04A23"/>
<stop offset="0.65" stop-color="#DB9723"/>
<stop offset="0.66" stop-color="#FDC223"/>
<stop offset="0.81" stop-color="#E89C23"/>
<stop offset="0.82" stop-color="#ECAA31"/>
<stop offset="0.84" stop-color="#F3C147"/>
<stop offset="0.85" stop-color="#F8D157"/>
<stop offset="0.87" stop-color="#FCDA61"/>
<stop offset="0.9" stop-color="#FDDE64"/>
<stop offset="1" stop-color="#FCC744"/>
</linearGradient>
<linearGradient id="paint1_linear_0_9658" x1="67.6772" y1="39.7587" x2="73.7647" y2="4.02322" gradientUnits="userSpaceOnUse">
<stop stop-color="#EBAB21"/>
<stop offset="0.08" stop-color="#FFC62A"/>
<stop offset="0.15" stop-color="#FFD75A"/>
<stop offset="0.41" stop-color="#FFF5A6"/>
<stop offset="0.42" stop-color="#FEF0A0"/>
<stop offset="0.44" stop-color="#FCE490"/>
<stop offset="0.47" stop-color="#F9CF75"/>
<stop offset="0.49" stop-color="#F5B34F"/>
<stop offset="0.52" stop-color="#F08F21"/>
<stop offset="0.56" stop-color="#C95127"/>
<stop offset="0.61" stop-color="#A14F24"/>
<stop offset="0.65" stop-color="#EAA622"/>
<stop offset="0.66" stop-color="#F1B637"/>
<stop offset="0.67" stop-color="#F8C84F"/>
<stop offset="0.68" stop-color="#FDD35D"/>
<stop offset="0.69" stop-color="#FFD762"/>
<stop offset="0.73" stop-color="#FFD660"/>
<stop offset="0.75" stop-color="#FFD559"/>
<stop offset="0.76" stop-color="#FFD24D"/>
<stop offset="0.77" stop-color="#FFCC2C"/>
<stop offset="0.78" stop-color="#FBC52B"/>
<stop offset="0.8" stop-color="#F2B429"/>
<stop offset="0.82" stop-color="#E6A133"/>
<stop offset="0.83" stop-color="#F5CB5D"/>
<stop offset="0.84" stop-color="#F9D86B"/>
<stop offset="0.85" stop-color="#FCDF72"/>
<stop offset="0.86" stop-color="#FDE275"/>
<stop offset="0.94" stop-color="#FDE47F"/>
<stop offset="1" stop-color="#FED84C"/>
</linearGradient>
<linearGradient id="paint2_linear_0_9658" x1="63.4959" y1="29.5992" x2="86.2377" y2="15.8899" gradientUnits="userSpaceOnUse">
<stop offset="0.16" stop-color="#DD8326"/>
<stop offset="0.21" stop-color="#DF8824"/>
<stop offset="0.27" stop-color="#E69821"/>
<stop offset="0.35" stop-color="#F1B31B"/>
<stop offset="0.37" stop-color="#F6BD1A"/>
<stop offset="0.43" stop-color="#F4AD1C"/>
<stop offset="0.47" stop-color="#F4A01E"/>
<stop offset="0.54" stop-color="#9E4322"/>
<stop offset="0.61" stop-color="#A04A23"/>
<stop offset="0.71" stop-color="#FFC527"/>
<stop offset="1" stop-color="#B56628"/>
</linearGradient>
<linearGradient id="paint3_linear_0_9658" x1="73.9354" y1="40.8719" x2="79.1007" y2="10.5493" gradientUnits="userSpaceOnUse">
<stop offset="0.16" stop-color="#D07D28"/>
<stop offset="0.23" stop-color="#CB7727"/>
<stop offset="0.31" stop-color="#BD6725"/>
<stop offset="0.41" stop-color="#A64C22"/>
<stop offset="0.43" stop-color="#9E4322"/>
<stop offset="0.61" stop-color="#A04A23"/>
<stop offset="1" stop-color="#BB5427"/>
</linearGradient>
<radialGradient id="paint4_radial_0_9658" cx="0" cy="0" r="1" gradientUnits="userSpaceOnUse" gradientTransform="translate(73.3715 19.032) rotate(-80.3326) scale(14.0907 5.96972)">
<stop stop-color="#DDA027"/>
<stop offset="1" stop-color="#C87729"/>
</radialGradient>
<radialGradient id="paint5_radial_0_9658" cx="0" cy="0" r="1" gradientUnits="userSpaceOnUse" gradientTransform="translate(80.8607 19.4935) rotate(-80.3326) scale(20.5374 11.9148)">
<stop stop-color="white"/>
<stop offset="0.59" stop-color="white"/>
<stop offset="0.69" stop-color="white"/>
<stop offset="0.8" stop-color="#FEFDFD"/>
<stop offset="0.85" stop-color="#FCF8F6"/>
<stop offset="0.88" stop-color="#F8F0EA"/>
<stop offset="0.91" stop-color="#F2E4D9"/>
<stop offset="0.93" stop-color="#EBD5C3"/>
<stop offset="0.95" stop-color="#E3C2A7"/>
<stop offset="0.96" stop-color="#D8AB87"/>
<stop offset="0.98" stop-color="#CC9061"/>
<stop offset="1" stop-color="#BA6928"/>
</radialGradient>
<linearGradient id="paint6_linear_0_9658" x1="85.9026" y1="40.234" x2="68.0495" y2="10.6183" gradientUnits="userSpaceOnUse">
<stop stop-color="#E79824"/>
<stop offset="0.41" stop-color="#F5B21A"/>
<stop offset="0.52" stop-color="#F2AC1B"/>
<stop offset="0.67" stop-color="#EA9C20"/>
<stop offset="0.77" stop-color="#E48E25"/>
<stop offset="1" stop-color="#D36827"/>
</linearGradient>
<linearGradient id="paint7_linear_0_9658" x1="76.257" y1="15.0689" x2="73.7319" y2="29.8917" gradientUnits="userSpaceOnUse">
<stop offset="0.01" stop-color="#A14323"/>
<stop offset="0.06" stop-color="#A54B24"/>
<stop offset="0.13" stop-color="#B06227"/>
<stop offset="0.16" stop-color="#B66D29"/>
<stop offset="0.27" stop-color="#B26728"/>
<stop offset="0.41" stop-color="#A95725"/>
<stop offset="0.54" stop-color="#9E4322"/>
<stop offset="0.61" stop-color="#A04A23"/>
<stop offset="0.71" stop-color="#B35E27"/>
<stop offset="1" stop-color="#9E5B25"/>
</linearGradient>
<linearGradient id="paint8_linear_0_9658" x1="82.9885" y1="23.9947" x2="67.5422" y2="21.3635" gradientUnits="userSpaceOnUse">
<stop stop-color="#EEA620"/>
<stop offset="0.41" stop-color="#FFC60A"/>
<stop offset="0.52" stop-color="#FCC00D"/>
<stop offset="0.66" stop-color="#F5B016"/>
<stop offset="0.77" stop-color="#EE9F21"/>
<stop offset="1" stop-color="#C16D29"/>
</linearGradient>
<linearGradient id="paint9_linear_0_9658" x1="86.5099" y1="26.3341" x2="131.515" y2="39.2716" gradientUnits="userSpaceOnUse">
<stop stop-color="white"/>
<stop offset="0.11" stop-color="#FCFAF9"/>
<stop offset="0.24" stop-color="#F5ECEB"/>
<stop offset="0.39" stop-color="#E9D5D2"/>
<stop offset="0.54" stop-color="#D8B5B0"/>
<stop offset="0.7" stop-color="#C38C85"/>
<stop offset="0.86" stop-color="#A95B50"/>
<stop offset="1" stop-color="#902B1D"/>
</linearGradient>
<linearGradient id="paint10_linear_0_9658" x1="18.9936" y1="95.6981" x2="84.6386" y2="81.1659" gradientUnits="userSpaceOnUse">
<stop offset="0.16" stop-color="#FFF8C7"/>
<stop offset="0.2" stop-color="#FEF5C1"/>
<stop offset="0.25" stop-color="#FEEFB1"/>
<stop offset="0.3" stop-color="#FDE596"/>
<stop offset="0.36" stop-color="#FDD870"/>
<stop offset="0.42" stop-color="#FBC641"/>
<stop offset="0.47" stop-color="#FBB718"/>
<stop offset="0.54" stop-color="#B15D1F"/>
<stop offset="0.56" stop-color="#9E4522"/>
<stop offset="0.61" stop-color="#A04A23"/>
<stop offset="0.65" stop-color="#DB9723"/>
<stop offset="0.66" stop-color="#FDC223"/>
<stop offset="0.81" stop-color="#E89C23"/>
<stop offset="0.82" stop-color="#ECAA31"/>
<stop offset="0.84" stop-color="#F3C147"/>
<stop offset="0.85" stop-color="#F8D157"/>
<stop offset="0.87" stop-color="#FCDA61"/>
<stop offset="0.9" stop-color="#FDDE64"/>
<stop offset="1" stop-color="#FCC744"/>
</linearGradient>
<linearGradient id="paint11_linear_0_9658" x1="85.3032" y1="95.4559" x2="18.316" y2="82.0007" gradientUnits="userSpaceOnUse">
<stop stop-color="#EBAB21"/>
<stop offset="0.08" stop-color="#FFC62A"/>
<stop offset="0.15" stop-color="#FFD75A"/>
<stop offset="0.41" stop-color="#FFF5A6"/>
<stop offset="0.42" stop-color="#FEF0A0"/>
<stop offset="0.44" stop-color="#FCE490"/>
<stop offset="0.47" stop-color="#F9CF75"/>
<stop offset="0.49" stop-color="#F5B34F"/>
<stop offset="0.52" stop-color="#F08F21"/>
<stop offset="0.56" stop-color="#C95127"/>
<stop offset="0.61" stop-color="#A14F24"/>
<stop offset="0.65" stop-color="#EAA622"/>
<stop offset="0.66" stop-color="#F1B637"/>
<stop offset="0.67" stop-color="#F8C84F"/>
<stop offset="0.68" stop-color="#FDD35D"/>
<stop offset="0.69" stop-color="#FFD762"/>
<stop offset="0.73" stop-color="#FFD660"/>
<stop offset="0.75" stop-color="#FFD559"/>
<stop offset="0.76" stop-color="#FFD24D"/>
<stop offset="0.77" stop-color="#FFCC2C"/>
<stop offset="0.78" stop-color="#FBC52B"/>
<stop offset="0.8" stop-color="#F2B429"/>
<stop offset="0.82" stop-color="#E6A133"/>
<stop offset="0.83" stop-color="#F5CB5D"/>
<stop offset="0.84" stop-color="#F9D86B"/>
<stop offset="0.85" stop-color="#FCDF72"/>
<stop offset="0.86" stop-color="#FDE275"/>
<stop offset="0.94" stop-color="#FDE47F"/>
<stop offset="1" stop-color="#FED84C"/>
</linearGradient>
<linearGradient id="paint12_linear_0_9658" x1="18.1763" y1="99.7617" x2="83.8213" y2="85.2294" gradientUnits="userSpaceOnUse">
<stop offset="0.16" stop-color="#DD8326"/>
<stop offset="0.21" stop-color="#DF8824"/>
<stop offset="0.27" stop-color="#E69821"/>
<stop offset="0.35" stop-color="#F1B31B"/>
<stop offset="0.37" stop-color="#F6BD1A"/>
<stop offset="0.43" stop-color="#F4AD1C"/>
<stop offset="0.47" stop-color="#F4A01E"/>
<stop offset="0.54" stop-color="#9E4322"/>
<stop offset="0.61" stop-color="#A04A23"/>
<stop offset="0.71" stop-color="#FFC527"/>
<stop offset="1" stop-color="#B56628"/>
</linearGradient>
<linearGradient id="paint13_linear_0_9658" x1="24.5623" y1="99.1463" x2="77.1053" y2="87.5145" gradientUnits="userSpaceOnUse">
<stop offset="0.16" stop-color="#D07D28"/>
<stop offset="0.23" stop-color="#CB7727"/>
<stop offset="0.31" stop-color="#BD6725"/>
<stop offset="0.41" stop-color="#A64C22"/>
<stop offset="0.43" stop-color="#9E4322"/>
<stop offset="0.61" stop-color="#A04A23"/>
<stop offset="1" stop-color="#BB5427"/>
</linearGradient>
<radialGradient id="paint14_radial_0_9658" cx="0" cy="0" r="1" gradientUnits="userSpaceOnUse" gradientTransform="translate(52.8068 92.7137) rotate(-12.4826) scale(26.7885 26.7885)">
<stop stop-color="#DDA027"/>
<stop offset="1" stop-color="#C87729"/>
</radialGradient>
<radialGradient id="paint15_radial_0_9658" cx="0" cy="0" r="1" gradientUnits="userSpaceOnUse" gradientTransform="translate(54.6859 112.381) rotate(-12.4826) scale(41.915 41.915)">
<stop stop-color="white"/>
<stop offset="0.66" stop-color="white"/>
<stop offset="0.77" stop-color="white"/>
<stop offset="0.85" stop-color="#FEFDFD"/>
<stop offset="0.89" stop-color="#FCF8F6"/>
<stop offset="0.91" stop-color="#F8F0EA"/>
<stop offset="0.93" stop-color="#F2E4D9"/>
<stop offset="0.95" stop-color="#EBD5C3"/>
<stop offset="0.96" stop-color="#E3C2A7"/>
<stop offset="0.97" stop-color="#D8AB87"/>
<stop offset="0.99" stop-color="#CC9061"/>
<stop offset="1" stop-color="#BA6928"/>
</radialGradient>
<linearGradient id="paint16_linear_0_9658" x1="44.107" y1="63.0492" x2="57.5824" y2="123.92" gradientUnits="userSpaceOnUse">
<stop stop-color="#EEA620"/>
<stop offset="0.41" stop-color="#FFC60A"/>
<stop offset="0.53" stop-color="#FCC00C"/>
<stop offset="0.7" stop-color="#F5B012"/>
<stop offset="0.88" stop-color="#E9951D"/>
<stop offset="1" stop-color="#E08126"/>
</linearGradient>
<linearGradient id="paint17_linear_0_9658" x1="45.3506" y1="122.376" x2="57.4001" y2="62.387" gradientUnits="userSpaceOnUse">
<stop offset="0.16" stop-color="#C87829"/>
<stop offset="0.26" stop-color="#C37228"/>
<stop offset="0.38" stop-color="#B66226"/>
<stop offset="0.52" stop-color="#A14722"/>
<stop offset="0.54" stop-color="#9E4322"/>
<stop offset="0.61" stop-color="#A04A23"/>
<stop offset="0.71" stop-color="#B35E27"/>
<stop offset="1" stop-color="#9E5B25"/>
</linearGradient>
<linearGradient id="paint18_linear_0_9658" x1="45.5743" y1="121.263" x2="57.2919" y2="62.9265" gradientUnits="userSpaceOnUse">
<stop stop-color="#EEA620"/>
<stop offset="0.41" stop-color="#FFC60A"/>
<stop offset="0.52" stop-color="#FCC00D"/>
<stop offset="0.66" stop-color="#F5B016"/>
<stop offset="0.77" stop-color="#EE9F21"/>
<stop offset="1" stop-color="#C16D29"/>
</linearGradient>
<linearGradient id="paint19_linear_0_9658" x1="59.8516" y1="96.3923" x2="60.1172" y2="95.0693" gradientUnits="userSpaceOnUse">
<stop stop-color="#B7B7B8"/>
<stop offset="1" stop-color="#010101"/>
</linearGradient>
<linearGradient id="paint20_linear_0_9658" x1="102.455" y1="89.153" x2="203.35" y2="85.9171" gradientUnits="userSpaceOnUse">
<stop stop-color="white"/>
<stop offset="0.11" stop-color="#FCFAF9"/>
<stop offset="0.24" stop-color="#F5ECEB"/>
<stop offset="0.39" stop-color="#E9D5D2"/>
<stop offset="0.54" stop-color="#D8B5B0"/>
<stop offset="0.7" stop-color="#C38C85"/>
<stop offset="0.86" stop-color="#A95B50"/>
<stop offset="1" stop-color="#902B1D"/>
</linearGradient>
</defs>
</svg>
