<svg width="400" height="186" viewBox="0 0 400 186" fill="none" xmlns="http://www.w3.org/2000/svg">
<path d="M269.446 116.678C338.138 132.92 399.641 121.676 406.78 91.4914C413.919 61.3571 363.948 23.7266 295.255 7.43511C226.513 -8.80645 165.01 2.43772 157.921 32.622C150.782 62.8064 200.754 100.387 269.496 116.678H269.446Z" fill="url(#paint0_linear_6402_3)"/>
<path d="M164.861 70.4022C182.882 92.091 221.072 112.83 267.749 123.874C314.425 134.919 357.807 133.469 383.667 122.125L400.79 126.173L407.629 97.1384C407.629 97.1384 407.679 96.9385 407.729 96.8385C407.729 96.7386 407.729 96.6386 407.779 96.5387L407.879 96.1889C414.269 65.6547 363.698 27.7744 294.307 11.3829C224.916 -5.00856 162.814 6.13564 154.826 36.32L147.737 66.3044L164.861 70.3523V70.4022Z" fill="url(#paint1_linear_6402_3)"/>
<path d="M261.159 151.81C331.049 168.351 393.551 156.907 400.789 126.223C408.028 95.5391 357.258 57.309 287.368 40.7676C217.477 24.2262 154.926 35.7202 147.687 66.3543C140.449 97.0383 191.219 135.268 261.159 151.81Z" fill="url(#paint2_linear_6402_3)"/>
<path d="M165.609 75.6494C171.55 50.5624 224.467 41.6171 283.873 55.7098C343.28 69.7525 386.612 101.486 380.671 126.523C374.731 151.61 321.814 160.555 262.407 146.463C203 132.42 159.668 100.686 165.609 75.6494Z" fill="url(#paint3_linear_6402_3)"/>
<path d="M175.743 74.3008C181.184 51.2128 229.608 42.8671 283.823 55.7104C338.088 68.5537 377.626 97.6886 372.184 120.777C366.743 143.865 318.319 152.21 264.104 139.367C209.839 126.524 170.301 97.3888 175.743 74.3008Z" fill="url(#paint4_radial_6402_3)"/>
<path d="M283.524 57.0597C337.739 69.903 377.177 99.5876 371.586 123.375C365.945 147.163 317.421 156.058 263.206 143.265C208.941 130.422 169.503 100.737 175.145 76.9494C180.786 53.1617 229.31 44.2663 283.574 57.1097L283.524 57.0597ZM260.461 154.759C329.153 171 390.656 159.756 397.795 129.572C404.933 99.4377 354.962 61.8072 286.27 45.5157C217.528 29.2741 156.025 40.5183 148.936 70.7026C141.797 100.887 191.768 138.467 260.51 154.759H260.461Z" fill="url(#paint5_linear_6402_3)"/>
<path d="M257.165 126.723L275.886 131.171L277.484 124.374C283.025 125.673 288.367 126.573 293.558 127.123C298.75 127.672 303.443 127.772 307.536 127.473C311.63 127.173 315.074 126.423 317.77 125.174C320.466 123.974 322.063 122.175 322.613 119.876C323.361 116.728 322.513 113.83 320.017 111.231C317.571 108.632 314.326 106.234 310.332 104.035C306.338 101.836 301.895 99.8369 297.003 98.0379C292.111 96.2388 287.618 94.5397 283.474 93.0404C279.331 91.5412 275.886 90.092 273.14 88.7427C270.395 87.3934 269.147 86.144 269.446 84.9946C269.596 84.295 270.594 83.8452 272.441 83.6453C274.289 83.4454 277.034 83.7453 280.629 84.6448C285.92 85.8942 290.513 87.7432 294.407 90.1419C298.301 92.5907 300.647 95.2393 301.396 98.0878L325.358 103.735L329.502 86.244L305.54 80.5969L304.891 83.4454C299.449 80.6469 294.107 78.3481 288.816 76.499L290.513 69.2028L271.792 64.7551L270.245 71.4017C264.704 70.2023 259.312 69.3028 254.17 68.7031C248.978 68.1034 244.336 67.9035 240.242 68.1534C236.099 68.4032 232.754 69.1529 230.058 70.3522C227.412 71.5516 225.815 73.3506 225.266 75.7494C224.517 78.9477 225.365 81.8962 227.862 84.5948C230.358 87.2934 233.603 89.6922 237.696 91.941C241.74 94.1399 246.283 96.1888 251.275 98.0379C256.267 99.8869 260.91 101.586 265.103 103.135C269.296 104.684 272.841 106.134 275.686 107.433C278.532 108.732 279.78 109.982 279.53 111.131C279.331 112.081 278.183 112.58 276.086 112.58C273.989 112.58 271.443 112.28 268.448 111.581C266.052 111.031 263.705 110.232 261.409 109.282C259.112 108.333 257.066 107.283 255.268 106.184C253.521 105.084 252.024 103.885 250.875 102.635C249.727 101.386 249.078 100.137 248.978 98.9374L224.766 93.1904L220.723 110.281L244.935 116.028L245.634 113.13C247.131 113.93 249.028 114.879 251.325 115.879C253.621 116.928 256.217 117.977 259.112 119.077L257.265 126.873L257.165 126.723Z" fill="url(#paint6_linear_6402_3)"/>
<path d="M257.265 126.223L275.986 130.67L277.583 123.874C283.124 125.173 288.466 126.073 293.658 126.622C298.85 127.172 303.542 127.272 307.636 126.972C311.729 126.672 315.174 125.923 317.87 124.673C320.566 123.474 322.163 121.675 322.712 119.376C323.461 116.228 322.612 113.329 320.116 110.731C317.67 108.132 314.425 105.733 310.431 103.534C306.438 101.336 301.995 99.3366 297.102 97.5376C292.21 95.7385 287.717 94.0394 283.574 92.5402C279.43 91.0409 275.986 89.5917 273.24 88.2424C270.494 86.8931 269.246 85.6437 269.546 84.4943C269.696 83.7947 270.694 83.345 272.541 83.1451C274.388 82.9452 277.134 83.245 280.728 84.1445C286.02 85.3939 290.613 87.2429 294.507 89.6417C298.4 92.0904 300.747 94.739 301.496 97.5876L325.458 103.235L329.601 85.7437L305.639 80.0966L304.99 82.9452C299.549 80.1466 294.207 77.8478 288.915 75.9988L290.613 68.7026L271.892 64.2549L270.344 70.9014C264.803 69.7021 259.412 68.8025 254.27 68.2028C249.078 67.6031 244.435 67.4032 240.342 67.6531C236.198 67.903 232.853 68.6526 230.158 69.852C227.512 71.0513 225.914 72.8504 225.365 75.2492C224.616 78.4475 225.465 81.396 227.961 84.0946C230.457 86.7932 233.702 89.1919 237.796 91.4408C241.839 93.6396 246.382 95.6885 251.374 97.5376C256.366 99.3866 261.009 101.086 265.202 102.635C269.396 104.184 272.94 105.633 275.786 106.933C278.631 108.232 279.879 109.481 279.63 110.631C279.43 111.58 278.282 112.08 276.185 112.08C274.089 112.08 271.543 111.78 268.547 111.081C266.151 110.531 263.805 109.731 261.508 108.782C259.212 107.832 257.165 106.783 255.368 105.683C253.621 104.584 252.123 103.385 250.975 102.135C249.827 100.886 249.178 99.6365 249.078 98.4371L224.866 92.6901L220.822 109.731L245.034 115.478L245.733 112.58C247.231 113.379 249.128 114.329 251.424 115.328C253.721 116.378 256.317 117.427 259.212 118.527L257.365 126.323L257.265 126.223Z" fill="url(#paint7_linear_6402_3)"/>
<path d="M256.616 128.922L275.336 133.37L276.934 126.573C282.475 127.872 287.817 128.772 293.008 129.322C298.2 129.871 302.893 129.971 306.987 129.671C311.08 129.372 314.525 128.622 317.22 127.373C319.916 126.173 321.514 124.374 322.063 122.075C322.812 118.927 321.963 116.029 319.467 113.43C317.021 110.831 313.776 108.433 309.782 106.234C305.788 104.035 301.345 102.036 296.453 100.237C291.561 98.4377 287.068 96.7386 282.924 95.2394C278.781 93.7402 275.336 92.2909 272.59 90.9416C269.845 89.5923 268.597 88.343 268.896 87.1936C269.046 86.4939 270.044 86.0442 271.892 85.8443C273.739 85.6444 276.484 85.9442 280.079 86.8437C285.37 88.0931 289.963 89.9421 293.857 92.3409C297.751 94.7896 300.097 97.4383 300.846 100.287L324.808 105.934L328.952 88.4429L304.99 82.7959L304.341 85.6444C298.899 82.8458 293.558 80.547 288.266 78.698L289.963 71.4018L271.243 66.9541L269.695 73.6006C264.154 72.4012 258.762 71.5017 253.62 70.9021C248.429 70.3024 243.786 70.1025 239.692 70.3523C235.549 70.6022 232.204 71.3518 229.508 72.5512C226.862 73.7505 225.265 75.5496 224.716 77.9484C223.967 81.1467 224.816 84.0952 227.312 86.7938C229.808 89.4424 233.053 91.8911 237.146 94.14C241.19 96.3388 245.733 98.3878 250.725 100.237C255.717 102.086 260.36 103.785 264.553 105.334C268.747 106.883 272.291 108.333 275.137 109.632C277.982 110.931 279.23 112.181 278.98 113.33C278.781 114.28 277.633 114.779 275.536 114.779C273.439 114.779 270.893 114.479 267.898 113.78C265.502 113.23 263.155 112.43 260.859 111.481C258.563 110.531 256.516 109.482 254.719 108.383C252.971 107.283 251.474 106.084 250.326 104.834C249.177 103.585 248.528 102.336 248.428 101.136L224.216 95.3893L220.173 112.48L244.385 118.227L245.084 115.329C246.581 116.129 248.478 117.078 250.775 118.078C253.071 119.127 255.667 120.176 258.563 121.276L256.715 129.072L256.616 128.922Z" fill="url(#paint8_linear_6402_3)"/>
<path style="mix-blend-mode:screen" d="M205.696 39.1184C212.036 43.1663 218.426 47.3141 224.766 51.5619C241.989 50.3625 262.307 52.0117 283.524 57.059C337.739 69.9024 377.177 99.587 371.586 123.375C368.191 137.717 349.171 146.662 322.762 148.661C325.109 153.359 327.056 157.857 328.753 162.054C365.994 160.655 393.252 149.061 397.844 129.571C404.983 99.437 355.012 61.8066 286.32 45.5151C256.916 38.5687 228.81 36.6697 205.746 39.1184H205.696Z" fill="url(#paint9_linear_6402_3)"/>
<path d="M31.0389 146.285C39.9608 157.062 51.4738 165.832 64.4026 170.86C96.8312 183.454 126.001 167.784 129.634 135.883C131.798 116.737 124.238 96.0669 110.855 79.9157C101.933 69.1394 90.4202 60.3685 77.4648 55.3413C45.0629 42.7734 15.8664 58.4165 12.2602 90.3444C10.0965 109.49 17.6561 130.161 31.0389 146.312V146.285Z" fill="url(#paint10_linear_6402_3)"/>
<path d="M25.5081 60.6094L16.7465 67.9095L17.7082 69.0593C13.5143 75.1026 10.7095 82.5365 9.74789 91.1201C7.53078 110.614 15.2239 131.632 28.8471 148.077C37.9293 159.041 49.6293 167.972 62.7984 173.079C78.0779 179.016 92.6627 178.775 104.256 173.56L105.244 174.737L113.685 167.731C122.019 160.779 127.682 150.457 129.152 137.461C131.342 117.967 123.676 96.9495 110.026 80.5042C100.944 69.5407 89.2435 60.6094 76.0477 55.502C56.4409 47.881 37.9827 50.4481 25.4547 60.5827L25.5081 60.6094Z" fill="url(#paint11_linear_6402_3)"/>
<path d="M20.3797 155.136C29.4619 166.1 41.1618 175.031 54.331 180.138C87.3206 192.947 117.025 177.01 120.711 144.52C122.901 125.027 115.235 104.009 101.585 87.5633C92.5028 76.5998 80.8028 67.6685 67.6069 62.5611C34.6173 49.7525 4.91333 65.6897 1.25375 98.1792C-0.963362 117.673 6.72975 138.691 20.353 155.136H20.3797Z" fill="url(#paint12_linear_6402_3)"/>
<path d="M25.9635 150.484C33.1491 159.174 42.4183 166.234 52.8628 170.298C78.9873 180.433 102.521 167.812 105.432 142.087C107.169 126.658 101.078 109.999 90.2866 96.9497C83.101 88.2591 73.8319 81.1996 63.3874 77.1351C37.2628 67.0005 13.7293 79.6219 10.8177 105.346C9.08136 120.775 15.1451 137.434 25.9635 150.457V150.484Z" fill="url(#paint13_linear_6402_3)"/>
<path d="M29.2754 147.756C36.3541 156.313 45.5165 163.292 55.8007 167.277C81.578 177.277 104.791 164.816 107.649 139.467C109.359 124.251 103.375 107.806 92.717 94.9708C85.6382 86.4139 76.476 79.4346 66.1917 75.4503C40.4411 65.4495 17.2015 77.9105 14.3433 103.26C12.607 118.476 18.6172 134.894 29.2754 147.756Z" fill="url(#paint14_radial_6402_3)"/>
<path style="mix-blend-mode:multiply" d="M29.2754 147.756C36.3541 156.313 45.5165 163.292 55.8007 167.277C81.578 177.277 104.791 164.816 107.649 139.467C109.359 124.251 103.375 107.806 92.717 94.9708C85.6382 86.4139 76.476 79.4346 66.1917 75.4503C40.4411 65.4495 17.2015 77.9105 14.3433 103.26C12.607 118.476 18.6172 134.894 29.2754 147.756Z" fill="url(#paint15_radial_6402_3)"/>
<path d="M91.221 96.1737C101.879 109.036 107.863 125.454 106.153 140.67C103.295 166.046 80.082 178.48 54.3047 168.479C44.0205 164.495 34.8582 157.489 27.7794 148.932C17.1212 136.07 11.1377 119.652 12.8473 104.436C15.7055 79.0866 38.9185 66.6256 64.6958 76.6265C74.98 80.6108 84.1423 87.5901 91.221 96.147V96.1737ZM19.3117 156.019C28.287 166.848 39.8801 175.699 52.9157 180.753C85.558 193.428 114.968 177.651 118.601 145.51C120.765 126.203 113.179 105.399 99.6888 89.1142C90.7135 78.2844 79.1204 69.4334 66.0581 64.3794C33.4158 51.7045 4.00559 67.4813 0.372725 99.6232C-1.81768 118.903 5.79527 139.707 19.285 155.992L19.3117 156.019Z" fill="url(#paint16_linear_6402_3)"/>
<path style="mix-blend-mode:screen" d="M59.3798 74.9155C61.1428 75.3969 62.9058 75.9584 64.6955 76.6537C74.9797 80.638 84.142 87.6172 91.2208 96.1741C101.879 109.036 107.862 125.455 106.153 140.67C103.455 164.629 82.5927 177.037 58.6051 169.951C56.0675 173.721 53.5031 177.117 51.0723 180.005C51.6866 180.272 52.301 180.513 52.9154 180.754C85.5578 193.429 114.968 177.652 118.601 145.51C120.764 126.203 113.178 105.399 99.6886 89.1146C90.7133 78.2848 79.1202 69.4338 66.0579 64.3798C61.5435 62.615 57.0825 61.4384 52.7284 60.7432C54.9455 65.2355 57.1894 69.9953 59.3531 74.8888L59.3798 74.9155Z" fill="url(#paint17_linear_6402_3)"/>
<path d="M37.7159 91.7351L36.7276 100.586L39.8796 101.816C39.3454 102.378 38.731 103.127 38.0899 104.062C37.4488 104.972 36.8611 106.068 36.2734 107.325L27.8324 104.036L26.4434 105.186L27.2982 106.763L27.5118 106.843L26.844 112.78L34.1899 115.641C33.8961 118.235 33.9763 120.829 34.4304 123.476C34.8845 126.096 35.6591 128.583 36.781 130.883C37.5824 132.568 38.5707 134.092 39.7461 135.509C40.1735 136.044 40.6543 136.552 41.1351 137.033C42.9248 138.852 45.0885 140.242 47.5995 141.205C51.0187 142.515 53.8234 142.916 56.0672 142.355C58.3111 141.793 60.181 140.777 61.7036 139.279C63.1994 137.782 64.4282 135.99 65.3631 133.878C66.298 131.792 67.1528 129.84 67.9542 128.075C68.7289 126.284 69.557 124.866 70.4118 123.797C71.2666 122.727 72.3083 122.433 73.5638 122.914C74.0446 123.102 74.472 123.449 74.8727 123.93C75.1131 124.225 75.3268 124.546 75.5405 124.947C76.1014 125.989 76.2884 127.353 76.1014 129.038C75.8343 131.525 74.7925 133.45 73.0295 134.814C71.2665 136.204 68.9692 136.659 66.1645 136.231L64.7754 137.381L65.8974 138.557L64.8823 147.435L79.8678 153.265L82.4055 155.939L83.7945 154.789L85.05 143.585L81.9781 142.381C83.8213 140.296 85.2103 138.076 86.1185 135.803L91.6747 137.969L92.6363 140.028L94.0254 138.878L95.0137 130.134L87.8281 127.353C87.9884 124.733 87.9082 122.112 87.5342 119.518C87.187 116.925 86.4658 114.491 85.424 112.191C84.6494 110.48 83.661 108.929 82.4857 107.512C82.085 107.031 81.6576 106.549 81.2035 106.095C79.4404 104.33 77.2768 102.939 74.7124 101.923C71.2398 100.586 68.3549 100.185 66.0577 100.72C63.7604 101.281 61.8638 102.298 60.3412 103.822C58.8186 105.346 57.5899 107.191 56.6282 109.33C55.6666 111.469 54.785 113.448 53.9837 115.267C53.1823 117.058 52.3809 118.529 51.5529 119.679C50.7515 120.802 49.7098 121.149 48.4543 120.641C47.8666 120.401 47.3591 120.053 46.9851 119.572C46.6912 119.224 46.4775 118.823 46.2905 118.342C45.8631 117.219 45.7029 115.935 45.8632 114.545C45.9968 113.422 46.3173 112.379 46.8782 111.416C47.4392 110.453 48.107 109.678 48.9351 109.036C49.7365 108.394 50.6981 107.967 51.7933 107.699C52.1406 107.619 52.5145 107.565 52.8885 107.539L53.8501 108.902L55.2392 107.753L56.5214 96.4147L38.0632 89.2483L36.6742 90.3981L37.7694 91.7351H37.7159Z" fill="url(#paint18_linear_6402_3)"/>
<path d="M38.331 136.632C38.7584 137.166 39.2392 137.674 39.72 138.156C41.5097 139.974 43.6735 141.365 46.1844 142.327C49.6036 143.638 52.4083 144.039 54.6521 143.477C56.896 142.916 58.7659 141.899 60.2885 140.402C61.7844 138.905 63.0131 137.113 63.948 135C64.883 132.915 65.7378 130.963 66.5391 129.198C67.3138 127.406 68.1418 125.989 68.9966 124.919C69.8514 123.85 70.8932 123.556 72.1487 124.037C72.6295 124.224 73.0569 124.572 73.4576 125.053C73.698 125.347 73.9117 125.668 74.1254 126.069C74.6863 127.112 74.8733 128.476 74.6863 130.16C74.4192 132.647 73.3774 134.573 71.6144 135.936C69.8514 137.327 67.5541 137.781 64.7494 137.354L63.4939 148.558L82.4062 155.885L83.6617 144.68L80.5898 143.477C82.4329 141.391 83.8219 139.172 84.7301 136.899L92.6103 139.947L93.5986 131.203L86.413 128.422C86.5733 125.802 86.4931 123.181 86.1192 120.587C85.7719 117.994 85.0507 115.56 84.0089 113.261C83.2343 111.549 82.2459 109.998 81.0706 108.581C80.6699 108.1 80.2425 107.618 79.7884 107.164C78.0254 105.399 75.8617 104.008 73.2973 102.992C69.8247 101.655 66.9398 101.254 64.6426 101.789C62.3453 102.351 60.4487 103.367 58.9261 104.891C57.4035 106.415 56.1748 108.26 55.2132 110.399C54.2515 112.539 53.37 114.517 52.5686 116.336C51.7672 118.127 50.9658 119.598 50.1378 120.748C49.3364 121.871 48.2947 122.219 47.0392 121.711C46.4515 121.47 45.944 121.122 45.57 120.641C45.2762 120.293 45.0624 119.892 44.8755 119.411C44.4481 118.288 44.2879 117.004 44.4481 115.614C44.5817 114.491 44.9022 113.448 45.4631 112.485C46.0241 111.522 46.6919 110.747 47.52 110.105C48.3214 109.463 49.283 109.036 50.3782 108.768C51.4467 108.501 52.5953 108.528 53.8241 108.822L55.1063 97.4838L36.6481 90.3174L35.3659 101.655L38.518 102.885C37.9838 103.447 37.3693 104.196 36.7283 105.132C36.0872 106.041 35.4995 107.137 34.9118 108.394L26.4708 105.105L25.4824 113.849L32.8283 116.71C32.5345 119.304 32.6146 121.898 33.0687 124.545C33.5228 127.166 34.2975 129.652 35.4194 131.952C36.2207 133.637 37.2091 135.161 38.3844 136.578L38.331 136.632Z" fill="url(#paint19_linear_6402_3)"/>
<path style="mix-blend-mode:screen" d="M73.4575 125.026C73.6979 125.321 73.9116 125.641 74.1253 126.043C74.6863 127.085 74.8733 128.449 74.6863 130.134C74.4726 131.952 73.8849 133.45 72.8699 134.68C72.0952 140.242 70.6528 145.563 68.7295 150.59L82.3794 155.885L83.6349 144.681L80.563 143.477C82.4061 141.391 83.7951 139.172 84.7034 136.899L92.5835 139.947L93.5718 131.203L86.3862 128.422C86.5465 125.802 86.4664 123.181 86.0925 120.587C85.7452 117.994 85.0239 115.56 83.9822 113.261C83.2075 111.549 82.2191 109.998 81.0438 108.581C80.6431 108.1 80.2158 107.618 79.7617 107.164C77.9987 105.399 75.8349 104.008 73.2705 102.992C71.8815 102.458 70.5993 102.083 69.3973 101.843C71.7747 110.079 73.324 117.994 73.4575 125.026Z" fill="url(#paint20_linear_6402_3)"/>
<defs>
<linearGradient id="paint0_linear_6402_3" x1="407.479" y1="62.0068" x2="157.222" y2="62.0068" gradientUnits="userSpaceOnUse">
<stop offset="0.16" stop-color="#DE8200"/>
<stop offset="0.21" stop-color="#E08702"/>
<stop offset="0.27" stop-color="#E79708"/>
<stop offset="0.34" stop-color="#F3B213"/>
<stop offset="0.37" stop-color="#F8BD18"/>
<stop offset="0.43" stop-color="#F5AD1A"/>
<stop offset="0.47" stop-color="#F49F1C"/>
<stop offset="0.54" stop-color="#9F4000"/>
<stop offset="0.61" stop-color="#A04701"/>
<stop offset="0.71" stop-color="#FEC423"/>
<stop offset="1" stop-color="#B66300"/>
</linearGradient>
<linearGradient id="paint1_linear_6402_3" x1="407.577" y1="97.4732" x2="154.472" y2="37.751" gradientUnits="userSpaceOnUse">
<stop stop-color="#EBAB00"/>
<stop offset="0.08" stop-color="#FFC524"/>
<stop offset="0.15" stop-color="#FFD759"/>
<stop offset="0.41" stop-color="#FFF4A5"/>
<stop offset="0.42" stop-color="#FEF09F"/>
<stop offset="0.44" stop-color="#FDE68F"/>
<stop offset="0.46" stop-color="#FBD574"/>
<stop offset="0.48" stop-color="#F8BE4E"/>
<stop offset="0.5" stop-color="#F4A11F"/>
<stop offset="0.52" stop-color="#F28E00"/>
<stop offset="0.56" stop-color="#CA4E00"/>
<stop offset="0.61" stop-color="#A14D00"/>
<stop offset="0.65" stop-color="#EBA500"/>
<stop offset="0.66" stop-color="#EFB016"/>
<stop offset="0.67" stop-color="#F6C136"/>
<stop offset="0.68" stop-color="#FBCD4E"/>
<stop offset="0.69" stop-color="#FFD761"/>
<stop offset="0.73" stop-color="#FFD65F"/>
<stop offset="0.75" stop-color="#FFD558"/>
<stop offset="0.76" stop-color="#FFCF3B"/>
<stop offset="0.77" stop-color="#FFCB29"/>
<stop offset="0.78" stop-color="#FCC424"/>
<stop offset="0.8" stop-color="#F3B317"/>
<stop offset="0.82" stop-color="#E8A215"/>
<stop offset="0.83" stop-color="#F4C64B"/>
<stop offset="0.84" stop-color="#FBDB6B"/>
<stop offset="0.85" stop-color="#FDE072"/>
<stop offset="0.86" stop-color="#FEE275"/>
<stop offset="0.94" stop-color="#FEE47E"/>
<stop offset="1" stop-color="#FED94B"/>
</linearGradient>
<linearGradient id="paint2_linear_6402_3" x1="401.488" y1="96.2387" x2="147.038" y2="96.2387" gradientUnits="userSpaceOnUse">
<stop offset="0.16" stop-color="#FFF8C7"/>
<stop offset="0.2" stop-color="#FEF5C1"/>
<stop offset="0.25" stop-color="#FEEFB1"/>
<stop offset="0.3" stop-color="#FEE596"/>
<stop offset="0.36" stop-color="#FDD870"/>
<stop offset="0.42" stop-color="#FCC641"/>
<stop offset="0.47" stop-color="#FCB717"/>
<stop offset="0.56" stop-color="#B45D05"/>
<stop offset="0.58" stop-color="#9F4200"/>
<stop offset="0.63" stop-color="#A04701"/>
<stop offset="0.68" stop-color="#DA9414"/>
<stop offset="0.7" stop-color="#FEC220"/>
<stop offset="0.81" stop-color="#E89A04"/>
<stop offset="0.82" stop-color="#EBA412"/>
<stop offset="0.83" stop-color="#F2B92F"/>
<stop offset="0.85" stop-color="#F7C946"/>
<stop offset="0.86" stop-color="#FBD456"/>
<stop offset="0.88" stop-color="#FDDB5F"/>
<stop offset="0.9" stop-color="#FEDE63"/>
<stop offset="1" stop-color="#FCC643"/>
</linearGradient>
<linearGradient id="paint3_linear_6402_3" x1="375.147" y1="121.29" x2="160.442" y2="70.6286" gradientUnits="userSpaceOnUse">
<stop offset="0.16" stop-color="#D27B00"/>
<stop offset="0.25" stop-color="#CD7500"/>
<stop offset="0.37" stop-color="#BF6500"/>
<stop offset="0.5" stop-color="#A84A00"/>
<stop offset="0.54" stop-color="#9F4000"/>
<stop offset="0.61" stop-color="#A04701"/>
<stop offset="0.71" stop-color="#FEBB00"/>
<stop offset="1" stop-color="#9F5800"/>
</linearGradient>
<radialGradient id="paint4_radial_6402_3" cx="0" cy="0" r="1" gradientUnits="userSpaceOnUse" gradientTransform="translate(279.935 103.542) rotate(-166.697) scale(101.11 42.8768)">
<stop stop-color="#FEDE6D"/>
<stop offset="1" stop-color="#F2AC1A"/>
</radialGradient>
<linearGradient id="paint5_linear_6402_3" x1="273.34" y1="161.655" x2="273.34" y2="37.22" gradientUnits="userSpaceOnUse">
<stop stop-color="#FFD651"/>
<stop offset="0.41" stop-color="#FFEC60"/>
<stop offset="0.48" stop-color="#FFE95A"/>
<stop offset="0.58" stop-color="#FFE04A"/>
<stop offset="0.69" stop-color="#FFD32F"/>
<stop offset="0.77" stop-color="#FFC718"/>
<stop offset="0.86" stop-color="#FED844"/>
<stop offset="0.94" stop-color="#FED949"/>
</linearGradient>
<linearGradient id="paint6_linear_6402_3" x1="327.454" y1="110.518" x2="222.451" y2="85.7418" gradientUnits="userSpaceOnUse">
<stop offset="0.16" stop-color="#D27B00"/>
<stop offset="0.25" stop-color="#CD7500"/>
<stop offset="0.37" stop-color="#BF6500"/>
<stop offset="0.5" stop-color="#A84A00"/>
<stop offset="0.54" stop-color="#9F4000"/>
<stop offset="0.61" stop-color="#A04701"/>
<stop offset="0.71" stop-color="#E08600"/>
<stop offset="1" stop-color="#9F5800"/>
</linearGradient>
<linearGradient id="paint7_linear_6402_3" x1="327.568" y1="110.031" x2="222.565" y2="85.255" gradientUnits="userSpaceOnUse">
<stop offset="0.16" stop-color="#D27B00"/>
<stop offset="0.25" stop-color="#CD7500"/>
<stop offset="0.37" stop-color="#BF6500"/>
<stop offset="0.5" stop-color="#A84A00"/>
<stop offset="0.54" stop-color="#9F4000"/>
<stop offset="0.61" stop-color="#A04701"/>
<stop offset="0.71" stop-color="#E08600"/>
<stop offset="1" stop-color="#9F5800"/>
</linearGradient>
<linearGradient id="paint8_linear_6402_3" x1="260.564" y1="154.216" x2="286.459" y2="44.7003" gradientUnits="userSpaceOnUse">
<stop stop-color="#FFE48C"/>
<stop offset="0.41" stop-color="#FFF4A5"/>
<stop offset="0.46" stop-color="#FFF29F"/>
<stop offset="0.53" stop-color="#FFEC8F"/>
<stop offset="0.61" stop-color="#FFE374"/>
<stop offset="0.7" stop-color="#FFD74F"/>
<stop offset="0.77" stop-color="#FFCB29"/>
<stop offset="0.86" stop-color="#FEE275"/>
<stop offset="0.94" stop-color="#FEE47E"/>
</linearGradient>
<linearGradient id="paint9_linear_6402_3" x1="362.88" y1="59.9458" x2="290.868" y2="95.6008" gradientUnits="userSpaceOnUse">
<stop stop-color="#B7B7B7"/>
<stop offset="1"/>
</linearGradient>
<linearGradient id="paint10_linear_6402_3" x1="114.583" y1="165.789" x2="27.4931" y2="60.85" gradientUnits="userSpaceOnUse">
<stop offset="0.16" stop-color="#DE8200"/>
<stop offset="0.21" stop-color="#E08702"/>
<stop offset="0.27" stop-color="#E79708"/>
<stop offset="0.34" stop-color="#F3B213"/>
<stop offset="0.37" stop-color="#F8BD18"/>
<stop offset="0.43" stop-color="#F5AD1A"/>
<stop offset="0.47" stop-color="#F49F1C"/>
<stop offset="0.54" stop-color="#9F4000"/>
<stop offset="0.61" stop-color="#A04701"/>
<stop offset="0.71" stop-color="#FEC423"/>
<stop offset="1" stop-color="#B66300"/>
</linearGradient>
<linearGradient id="paint11_linear_6402_3" x1="113.868" y1="167.945" x2="25.242" y2="61.1542" gradientUnits="userSpaceOnUse">
<stop stop-color="#EBAB00"/>
<stop offset="0.08" stop-color="#FFC524"/>
<stop offset="0.15" stop-color="#FFD759"/>
<stop offset="0.41" stop-color="#FFF4A5"/>
<stop offset="0.42" stop-color="#FEF09F"/>
<stop offset="0.44" stop-color="#FDE68F"/>
<stop offset="0.46" stop-color="#FBD574"/>
<stop offset="0.48" stop-color="#F8BE4E"/>
<stop offset="0.5" stop-color="#F4A11F"/>
<stop offset="0.52" stop-color="#F28E00"/>
<stop offset="0.56" stop-color="#CA4E00"/>
<stop offset="0.61" stop-color="#A14D00"/>
<stop offset="0.65" stop-color="#EBA500"/>
<stop offset="0.66" stop-color="#EFB016"/>
<stop offset="0.67" stop-color="#F6C136"/>
<stop offset="0.68" stop-color="#FBCD4E"/>
<stop offset="0.69" stop-color="#FFD761"/>
<stop offset="0.73" stop-color="#FFD65F"/>
<stop offset="0.75" stop-color="#FFD558"/>
<stop offset="0.76" stop-color="#FFCF3B"/>
<stop offset="0.77" stop-color="#FFCB29"/>
<stop offset="0.78" stop-color="#FCC424"/>
<stop offset="0.8" stop-color="#F3B317"/>
<stop offset="0.82" stop-color="#E8A215"/>
<stop offset="0.83" stop-color="#F4C64B"/>
<stop offset="0.84" stop-color="#FBDB6B"/>
<stop offset="0.85" stop-color="#FDE072"/>
<stop offset="0.86" stop-color="#FEE275"/>
<stop offset="0.94" stop-color="#FEE47E"/>
<stop offset="1" stop-color="#FED94B"/>
</linearGradient>
<linearGradient id="paint12_linear_6402_3" x1="105.396" y1="174.976" x2="16.7699" y2="68.1853" gradientUnits="userSpaceOnUse">
<stop offset="0.16" stop-color="#FFF8C7"/>
<stop offset="0.2" stop-color="#FEF5C1"/>
<stop offset="0.25" stop-color="#FEEFB1"/>
<stop offset="0.3" stop-color="#FEE596"/>
<stop offset="0.36" stop-color="#FDD870"/>
<stop offset="0.42" stop-color="#FCC641"/>
<stop offset="0.47" stop-color="#FCB717"/>
<stop offset="0.56" stop-color="#B45D05"/>
<stop offset="0.58" stop-color="#9F4200"/>
<stop offset="0.63" stop-color="#A04701"/>
<stop offset="0.68" stop-color="#DA9414"/>
<stop offset="0.7" stop-color="#FEC220"/>
<stop offset="0.81" stop-color="#E89A04"/>
<stop offset="0.82" stop-color="#EBA412"/>
<stop offset="0.83" stop-color="#F2B92F"/>
<stop offset="0.85" stop-color="#F7C946"/>
<stop offset="0.86" stop-color="#FBD456"/>
<stop offset="0.88" stop-color="#FDDB5F"/>
<stop offset="0.9" stop-color="#FEDE63"/>
<stop offset="1" stop-color="#FCC643"/>
</linearGradient>
<linearGradient id="paint13_linear_6402_3" x1="93.3325" y1="166.232" x2="23.1245" y2="81.6348" gradientUnits="userSpaceOnUse">
<stop offset="0.16" stop-color="#D27B00"/>
<stop offset="0.25" stop-color="#CD7500"/>
<stop offset="0.37" stop-color="#BF6500"/>
<stop offset="0.5" stop-color="#A84A00"/>
<stop offset="0.54" stop-color="#9F4000"/>
<stop offset="0.61" stop-color="#A04701"/>
<stop offset="0.71" stop-color="#FEBB00"/>
<stop offset="1" stop-color="#9F5800"/>
</linearGradient>
<radialGradient id="paint14_radial_6402_3" cx="0" cy="0" r="1" gradientUnits="userSpaceOnUse" gradientTransform="translate(61.1387 121.535) rotate(-129.63) scale(48.1654 48.156)">
<stop stop-color="#FEDE6D"/>
<stop offset="1" stop-color="#F2AC1A"/>
</radialGradient>
<radialGradient id="paint15_radial_6402_3" cx="0" cy="0" r="1" gradientUnits="userSpaceOnUse" gradientTransform="translate(86.4189 99.2698) rotate(-129.63) scale(75.7229 75.7081)">
<stop stop-color="white"/>
<stop offset="0.66" stop-color="white"/>
<stop offset="0.77" stop-color="white"/>
<stop offset="0.85" stop-color="#FEFDFD"/>
<stop offset="0.88" stop-color="#FCF9F6"/>
<stop offset="0.91" stop-color="#F9F2EA"/>
<stop offset="0.92" stop-color="#F4E8D9"/>
<stop offset="0.94" stop-color="#EFDBC3"/>
<stop offset="0.95" stop-color="#E7CAA7"/>
<stop offset="0.97" stop-color="#DFB787"/>
<stop offset="0.98" stop-color="#D4A061"/>
<stop offset="0.99" stop-color="#C98735"/>
<stop offset="1" stop-color="#BB6700"/>
</radialGradient>
<linearGradient id="paint16_linear_6402_3" x1="20.8943" y1="154.934" x2="97.9117" y2="91.1507" gradientUnits="userSpaceOnUse">
<stop stop-color="#FFDB66"/>
<stop offset="0.41" stop-color="#FFEF7F"/>
<stop offset="0.46" stop-color="#FFEC79"/>
<stop offset="0.53" stop-color="#FFE769"/>
<stop offset="0.61" stop-color="#FFDD4E"/>
<stop offset="0.7" stop-color="#FFCF29"/>
<stop offset="0.77" stop-color="#FFC203"/>
<stop offset="0.86" stop-color="#FEDA4F"/>
<stop offset="0.94" stop-color="#FEDC58"/>
</linearGradient>
<linearGradient id="paint17_linear_6402_3" x1="111.51" y1="126.97" x2="70.1752" y2="123.698" gradientUnits="userSpaceOnUse">
<stop stop-color="#B7B7B7"/>
<stop offset="1"/>
</linearGradient>
<linearGradient id="paint18_linear_6402_3" x1="22.5273" y1="154.1" x2="99.5448" y2="90.3163" gradientUnits="userSpaceOnUse">
<stop offset="0.16" stop-color="#CA7700"/>
<stop offset="0.26" stop-color="#C57100"/>
<stop offset="0.38" stop-color="#B86100"/>
<stop offset="0.51" stop-color="#A44600"/>
<stop offset="0.54" stop-color="#9F4000"/>
<stop offset="0.61" stop-color="#A04701"/>
<stop offset="0.71" stop-color="#B35C00"/>
<stop offset="1" stop-color="#9F5800"/>
</linearGradient>
<linearGradient id="paint19_linear_6402_3" x1="21.1502" y1="155.243" x2="98.1677" y2="91.4593" gradientUnits="userSpaceOnUse">
<stop stop-color="#FFE48C"/>
<stop offset="0.41" stop-color="#FFF4A5"/>
<stop offset="0.46" stop-color="#FFF29F"/>
<stop offset="0.53" stop-color="#FFEC8F"/>
<stop offset="0.61" stop-color="#FFE374"/>
<stop offset="0.7" stop-color="#FFD74F"/>
<stop offset="0.77" stop-color="#FFCB29"/>
<stop offset="0.86" stop-color="#FEE275"/>
<stop offset="0.94" stop-color="#FEE47E"/>
</linearGradient>
<linearGradient id="paint20_linear_6402_3" x1="89.2863" y1="131.138" x2="70.7965" y2="128.218" gradientUnits="userSpaceOnUse">
<stop stop-color="#B7B7B7"/>
<stop offset="1"/>
</linearGradient>
</defs>
</svg>
