<svg width="107" height="69" viewBox="0 0 107 69" fill="none" xmlns="http://www.w3.org/2000/svg">
<path d="M94.8189 27.2412C91.4975 19.8051 85.6341 13.623 78.6398 11.0722C66.9908 6.81881 56.6164 14.2521 55.4696 27.6675C55.0096 33.0288 56.0939 38.5353 58.305 43.486C61.6269 50.9231 67.4904 57.1053 74.4846 59.6586C86.1352 63.9075 96.508 56.4788 97.6554 43.0593C98.1143 37.6984 97.0291 32.1925 94.8179 27.2417L94.8189 27.2412Z" fill="url(#paint0_linear_2008_6)"/>
<path d="M66.122 10.5495L70.1385 8.76567L70.3775 9.30064C73.1808 8.88872 76.2233 9.19413 79.359 10.3394C86.477 12.9349 92.444 19.2263 95.8239 26.7941C98.0738 31.8324 99.1783 37.4352 98.7114 42.8917C98.1696 49.2177 95.6121 54.2327 91.8452 57.3665L92.0886 57.9109L88.2292 59.6332L88.2164 59.6329C84.4074 61.3365 79.874 61.5126 75.1312 59.784C68.0142 57.1854 62.0462 50.8945 58.6658 43.3256C56.4158 38.2873 55.3125 32.6841 55.7793 27.2276C56.4736 19.1089 60.4889 13.1434 66.1235 10.5526L66.1225 10.5505L66.122 10.5495Z" fill="url(#paint1_linear_2008_6)"/>
<path d="M99.6907 25.0683C96.3108 17.5005 90.3428 11.2096 83.2258 8.61354C71.3707 4.28538 60.8139 11.8495 59.6462 25.5018C59.1793 30.9583 60.2817 36.562 62.5327 41.5998C65.9126 49.1677 71.8811 55.4596 78.998 58.0582C90.8538 62.3823 101.41 54.8223 102.578 41.1659C103.044 35.7099 101.941 30.1066 99.6907 25.0683Z" fill="url(#paint2_linear_2008_6)"/>
<path d="M97.1347 26.2028C94.458 20.2081 89.7307 15.2248 84.093 13.1692C74.7021 9.74116 66.3402 15.732 65.4155 26.5463C65.045 30.868 65.9198 35.3077 67.7012 39.2984C70.379 45.2926 75.1057 50.2774 80.7434 52.3356C90.1353 55.7605 98.4971 49.7723 99.4214 38.9543C99.7909 34.6331 98.9166 30.1945 97.1337 26.2032L97.1347 26.2028Z" fill="url(#paint3_linear_2008_6)"/>
<path d="M95.6249 26.8771C92.9845 20.9647 88.3226 16.05 82.7628 14.0227C73.5017 10.6417 65.2542 16.5504 64.3425 27.2157C63.9772 31.4788 64.8388 35.8558 66.5966 39.7914C69.237 45.7037 73.8989 50.6184 79.4587 52.6484C88.7204 56.0252 96.9673 50.1206 97.8801 39.4522C98.2444 35.1896 97.3827 30.8126 95.6249 26.8771Z" fill="url(#paint4_radial_2008_6)"/>
<path d="M67.2753 39.4886C65.5175 35.5531 64.6553 31.1751 65.0201 26.9135C65.9353 16.2478 74.1808 10.34 83.4408 13.7189C89.0022 15.7468 93.6621 20.6599 96.3025 26.5723C98.0603 30.5078 98.9235 34.8879 98.5587 39.1495C97.6465 49.8137 89.401 55.7215 80.1378 52.3441C74.5785 50.3152 69.9171 45.4016 67.2763 39.4881L67.2753 39.4886ZM100.177 24.8503C96.8319 17.3606 90.9257 11.1336 83.881 8.56458C72.148 4.28071 61.6988 11.7671 60.5435 25.2797C60.0807 30.6807 61.1735 36.2264 63.4003 41.2131C66.7463 48.7039 72.6524 54.931 79.6971 57.5025C91.4317 61.7818 101.879 54.2999 103.035 40.7833C103.497 35.3828 102.404 29.837 100.178 24.8514L100.177 24.8503Z" fill="url(#paint5_linear_2008_6)"/>
<path d="M86.8638 47.124L88.1443 43.9295L87.0992 43.1429C87.361 42.9873 87.6572 42.7733 87.9906 42.4958C88.3222 42.223 88.6568 41.8812 88.9976 41.4752L91.7988 43.5859L92.43 43.3041L92.2742 42.6239L92.205 42.5738L93.0652 40.4312L90.6233 38.5932C90.9973 37.6576 91.2352 36.6803 91.3398 35.6513C91.4413 34.6238 91.4065 33.6211 91.2297 32.6448C91.1012 31.9339 90.8917 31.2549 90.6031 30.6069C90.4944 30.3636 90.3754 30.1252 90.2435 29.8917C89.7642 29.0277 89.1069 28.2823 88.2715 27.6556C87.139 26.8045 86.1278 26.3628 85.2381 26.3306C84.3504 26.3026 83.5472 26.4883 82.8303 26.8859C82.1169 27.2856 81.4778 27.8237 80.9158 28.509C80.354 29.1891 79.8345 29.8198 79.3612 30.4007C78.8893 30.9847 78.439 31.4297 78.0108 31.7418C77.582 32.0529 77.1607 32.0531 76.7458 31.7403C76.5881 31.621 76.4586 31.4488 76.3578 31.2248C76.2998 31.094 76.2513 30.946 76.2135 30.7802C76.1107 30.3326 76.1797 29.8039 76.4256 29.1915C76.7818 28.2986 77.3593 27.689 78.1599 27.3615C78.9606 27.034 79.8625 27.1 80.86 27.5558L81.4912 27.274L81.1968 26.718L82.4811 23.5154L77.5064 19.7676L76.8363 18.5053L76.2051 18.7871L74.5856 22.828L75.6034 23.5969C74.6999 24.1809 73.9639 24.8566 73.3939 25.6132L71.5524 24.2261L71.4094 23.3614L70.7782 23.6432L69.5149 26.7989L71.8965 28.5952C71.5631 29.5551 71.3286 30.5396 71.1973 31.5468C71.0655 32.5504 71.077 33.536 71.2336 34.4964C71.3502 35.2117 71.5546 35.8982 71.8471 36.552C71.9469 36.7765 72.0571 36.9961 72.1785 37.2129C72.654 38.0608 73.3144 38.8047 74.1695 39.449C75.3222 40.316 76.3521 40.7705 77.2642 40.81C78.1754 40.8448 78.9892 40.6629 79.7074 40.252C80.4276 39.8452 81.0738 39.2898 81.6508 38.591C82.2274 37.8912 82.7573 37.2479 83.2395 36.659C83.7197 36.0711 84.1714 35.6076 84.5914 35.27C85.0083 34.9339 85.4264 34.9187 85.8442 35.2351C86.0419 35.3828 86.188 35.5662 86.2864 35.785C86.3577 35.9439 86.402 36.1207 86.4209 36.3158C86.4679 36.7847 86.39 37.2705 86.1877 37.7768C86.0242 38.1806 85.7919 38.5327 85.4911 38.8306C85.1866 39.1288 84.8517 39.3521 84.4855 39.4985C84.1177 39.6494 83.7183 39.7119 83.2912 39.6919C83.1519 39.6863 83.0113 39.6647 82.8725 39.636L82.6507 39.0304L82.0195 39.3122L80.3817 43.4L86.5106 48.0179L87.1418 47.7361L86.8689 47.1241L86.8638 47.124Z" fill="url(#paint6_linear_2008_6)"/>
<path d="M91.233 30.3286C91.1243 30.0853 91.0053 29.8469 90.8734 29.6134C90.3941 28.7494 89.7368 28.0041 88.9014 27.3773C87.7688 26.5262 86.7578 26.0845 85.868 26.0523C84.9803 26.0243 84.1771 26.21 83.4602 26.6076C82.7468 27.0073 82.1077 27.5454 81.5457 28.2307C80.9839 28.9108 80.4645 29.5415 79.9911 30.1224C79.5192 30.7064 79.0689 31.1514 78.6407 31.4635C78.2119 31.7746 77.7906 31.7748 77.3757 31.462C77.218 31.3426 77.0885 31.1705 76.9877 30.9464C76.9297 30.8157 76.8813 30.6677 76.8434 30.5019C76.7407 30.0543 76.8096 29.5256 77.0545 28.9137C77.4107 28.0208 77.9882 27.4111 78.7888 27.0837C79.5895 26.7562 80.4914 26.8222 81.489 27.2779L83.1084 23.237L76.833 18.5098L75.2135 22.5507L76.2312 23.3196C75.3278 23.9035 74.5917 24.5792 74.0218 25.3359L71.4071 23.3653L70.1438 26.5211L72.5249 28.3163C72.1915 29.2762 71.957 30.2608 71.8256 31.268C71.6939 32.2716 71.7054 33.2572 71.862 34.2175C71.9786 34.9328 72.183 35.6193 72.4755 36.2731C72.5753 36.4976 72.6855 36.7172 72.8069 36.934C73.2824 37.7819 73.9428 38.5259 74.7979 39.1701C75.9506 40.0372 76.9809 40.4927 77.8936 40.5307C78.8038 40.566 79.6176 40.3841 80.3358 39.9731C81.056 39.5664 81.7032 39.0105 82.2792 38.3122C82.8558 37.6124 83.3857 36.969 83.8679 36.3801C84.3481 35.7922 84.7997 35.3287 85.2198 34.9911C85.6367 34.655 86.0547 34.6398 86.4721 34.9552C86.6697 35.1029 86.8175 35.2869 86.9143 35.5051C86.9856 35.664 87.0299 35.8408 87.0493 36.037C87.0962 36.5058 87.0179 36.9906 86.816 37.4979C86.6526 37.9017 86.4204 38.2538 86.1195 38.5517C85.8155 38.851 85.4801 39.0733 85.114 39.2196C84.7461 39.3705 84.3467 39.433 83.9196 39.413C83.4944 39.3971 83.0673 39.27 82.6474 39.0322L81.0092 43.119L87.1375 47.736L88.7753 43.6481L87.7302 42.8615C87.991 42.7064 88.2882 42.4919 88.6216 42.2145C88.9532 41.9416 89.2878 41.5998 89.6286 41.1938L92.4298 43.3045L93.6967 40.1509L91.2548 38.3129C91.6277 37.3777 91.8667 36.4 91.9713 35.371C92.0738 34.343 92.038 33.3408 91.8612 32.3645C91.7327 31.6535 91.5232 30.9746 91.2346 30.3266L91.233 30.3286Z" fill="url(#paint7_linear_2008_6)"/>
<g style="mix-blend-mode:screen">
<path d="M90.982 51.9299C93.0944 50.8702 94.8714 49.1756 96.1305 47.1621C97.3872 45.1408 98.1623 42.837 98.5247 40.4821C99.2485 35.7511 98.3721 30.853 96.4441 26.4903C95.9454 25.4034 95.3878 24.3443 94.767 23.3227C94.1337 22.3096 93.4465 21.3297 92.6932 20.4001C91.9316 19.4795 91.1152 18.604 90.2398 17.7908C89.3555 16.9882 88.4114 16.2521 87.4141 15.596C85.4093 14.3078 83.1821 13.339 80.8367 12.9234C78.4969 12.5142 76.0479 12.7012 73.8494 13.5708C76.067 12.7521 78.5036 12.6246 80.8081 13.0823C83.1227 13.5265 85.3121 14.5119 87.2753 15.8083C91.204 18.4383 94.2202 22.3185 96.1427 26.6239C98.0734 30.9279 98.9366 35.7633 98.2733 40.4428C97.9456 42.7749 97.2068 45.059 95.9922 47.0757C94.7919 49.0959 93.0687 50.8211 90.9805 51.9293L90.982 51.9299Z" fill="url(#paint8_linear_2008_6)"/>
</g>
<path style="mix-blend-mode:multiply" d="M58.6404 17.5964C56.9315 20.3505 55.8055 23.7513 55.4708 27.6671C55.0109 33.0285 56.0951 38.5349 58.3067 43.4867C61.6281 50.9228 67.492 57.106 74.4863 59.6593C75.7081 60.1047 76.9134 60.4138 78.0968 60.6094C81.7512 61.3526 85.211 60.9773 88.2166 59.6331L88.2294 59.6334L92.0888 57.9111L92.0869 57.9069C93.9846 57.057 95.702 55.8282 97.175 54.2645C100.387 51.1404 102.546 46.5053 103.036 40.7841C103.497 35.3836 102.405 29.8379 100.178 24.8522C96.8327 17.3625 90.9266 11.1355 83.8819 8.56646C81.2038 7.58884 78.5934 7.23099 76.144 7.41181C73.8956 7.47719 71.7716 7.9876 69.8419 8.90105L66.1221 10.5522L66.1231 10.5543C63.0542 11.9654 60.4732 14.3844 58.6393 17.5995L58.6404 17.5964Z" fill="url(#paint9_linear_2008_6)"/>
<path d="M20.1272 22.8107C12.203 31.3904 8.8266 41.1628 12.5882 44.6371C16.3492 48.1107 25.8245 43.9711 33.7486 35.3914C41.6748 26.8098 45.0506 17.0369 41.2897 13.5619C37.5274 10.0869 28.0534 14.2279 20.1278 22.8101L20.1272 22.8107Z" fill="url(#paint10_linear_2008_6)"/>
<path d="M35.289 11.4999C30.701 12.3364 24.6143 16.1501 19.2289 21.9799C13.8448 27.8085 10.5265 34.1787 10.0564 38.8184L8.07939 40.9585L11.7011 44.3011C11.7128 44.3127 11.7246 44.3244 11.7369 44.3367C11.75 44.3484 11.763 44.3587 11.7755 44.3698L11.8176 44.4082L11.819 44.407C15.6972 47.8081 25.2532 43.598 33.255 34.9334C41.256 26.2706 44.6963 16.416 41.0059 12.8155L41.0087 12.8131L37.2663 9.35597L35.2885 11.4967L35.289 11.4999Z" fill="url(#paint11_linear_2008_6)"/>
<path d="M15.7452 18.7636C7.68657 27.4883 4.25313 37.4257 8.07854 40.9597C11.9034 44.4917 21.5379 40.2824 29.5965 31.5577C37.6566 22.8305 41.0901 12.8918 37.2653 9.35978C33.4392 5.82639 23.806 10.0371 15.7446 18.7642L15.7452 18.7636Z" fill="url(#paint12_linear_2008_6)"/>
<path d="M34.4702 11.1789C37.5974 14.067 34.5799 22.4187 27.7322 29.8335C20.8838 37.2477 12.7979 40.9176 9.67078 38.0295C6.54362 35.1415 9.5611 26.7898 16.4089 19.3749C23.2573 11.9607 31.3431 8.29082 34.4702 11.1789Z" fill="url(#paint13_linear_2008_6)"/>
<path d="M33.8413 12.7505C36.7231 15.412 33.9879 23.0606 27.732 29.8335C21.476 36.6064 14.069 39.9398 11.1872 37.2782C8.3054 34.6167 11.0406 26.9681 17.2966 20.1952C23.5525 13.4223 30.9595 10.089 33.8413 12.7505Z" fill="url(#paint14_radial_2008_6)"/>
<path style="mix-blend-mode:multiply" d="M33.8413 12.7505C36.7231 15.412 33.9879 23.0606 27.732 29.8335C21.476 36.6064 14.069 39.9398 11.1872 37.2782C8.3054 34.6167 11.0406 26.9681 17.2966 20.1952C23.5525 13.4223 30.9595 10.089 33.8413 12.7505Z" fill="url(#paint15_radial_2008_6)"/>
<path d="M27.5616 29.6768C21.3077 36.4478 13.8287 39.7166 10.8602 36.9741C7.89042 34.2315 10.5563 26.5184 16.8109 19.7467C23.0675 12.9732 30.5452 9.70445 33.515 12.447C36.4836 15.1882 33.8183 22.9033 27.5623 29.6762L27.5616 29.6768ZM15.3752 18.4211C7.45107 27.0008 4.07465 36.7731 7.83628 40.2474C11.5973 43.7211 21.0725 39.5814 28.9967 31.0017C36.9229 22.4202 40.2987 12.6472 36.5383 9.17298C32.7761 5.69798 23.3021 9.83896 15.3759 18.4205L15.3752 18.4211Z" fill="url(#paint16_linear_2008_6)"/>
<path d="M19.743 20.2781L17.5854 22.6147L18.4324 23.3966C17.7946 24.0875 17.2286 24.784 16.7303 25.4884C16.2319 26.1929 15.8362 26.8565 15.5432 27.4767C15.2524 28.0937 15.0867 28.6471 15.0451 29.1341C15.0028 29.6204 15.127 29.9984 15.4157 30.2648C15.8098 30.6286 16.2933 30.7401 16.8714 30.597C17.4475 30.4557 18.0548 30.1862 18.695 29.7906C19.3341 29.3936 19.9863 28.9156 20.6439 28.3588C21.3021 27.8013 21.9089 27.2865 22.4643 26.812C23.0203 26.3382 23.5061 25.9575 23.9188 25.6736C24.3324 25.3864 24.6126 25.3099 24.757 25.4437C24.8443 25.5241 24.8293 25.7056 24.71 25.9849C24.5886 26.2674 24.3208 26.634 23.9028 27.0856C23.2946 27.7436 22.6562 28.2561 21.9895 28.6224C21.3236 28.9856 20.7531 29.1071 20.2806 28.9845L17.5189 31.974L19.6974 33.9868L22.4585 30.9965L22.1059 30.6704C22.9504 30.1114 23.7189 29.5297 24.4122 28.9207L25.3199 29.7589L27.4776 27.4224L26.6498 26.6577C27.2745 25.9551 27.8393 25.2573 28.3482 24.5618C28.8565 23.8669 29.2615 23.2109 29.5585 22.6007C29.8564 21.9859 30.0262 21.4399 30.0701 20.9595C30.11 20.4802 29.982 20.1033 29.6871 19.8301C29.2868 19.4608 28.7944 19.3449 28.2068 19.4843C27.6203 19.6251 27.0032 19.8974 26.354 20.3022C25.7076 20.7046 25.0477 21.192 24.3725 21.7635C23.6993 22.3359 23.0791 22.8603 22.5156 23.3396C21.9502 23.8207 21.456 24.2127 21.0398 24.5133C20.619 24.8156 20.3385 24.8986 20.1941 24.7661C20.0763 24.6576 20.099 24.4531 20.265 24.1489C20.4289 23.8465 20.6849 23.5079 21.0309 23.1324C21.3075 22.8331 21.6084 22.5552 21.934 22.3019C22.259 22.0466 22.5744 21.8382 22.88 21.6721C23.1835 21.5078 23.4748 21.3916 23.7499 21.3271C24.0264 21.2614 24.2544 21.2678 24.4345 21.3496L27.2278 18.3253L25.0988 16.3592L22.3055 19.3835L22.6686 19.7185C22.4293 19.8705 22.1435 20.068 21.8094 20.3105C21.4739 20.5556 21.1076 20.8444 20.7145 21.176L19.7411 20.2774L19.743 20.2781Z" fill="url(#paint17_linear_2008_6)"/>
<path d="M19.402 19.9633L17.2443 22.2999L18.0913 23.0818C17.4542 23.772 16.8875 24.4691 16.3892 25.1736C15.8908 25.8781 15.4944 26.5423 15.2022 27.1618C14.9113 27.7789 14.745 28.3328 14.704 28.8192C14.6618 29.3056 14.7859 29.6836 15.0747 29.95C15.4688 30.3138 15.9522 30.4253 16.5303 30.2821C17.1064 30.1408 17.7137 29.8714 18.354 29.4758C18.993 29.0788 19.6453 28.6008 20.3028 28.0439C20.961 27.4864 21.5678 26.9717 22.1232 26.4972C22.6792 26.0234 23.1657 25.642 23.5784 25.3581C23.992 25.071 24.2722 24.9944 24.4166 25.1283C24.5039 25.2086 24.4889 25.3901 24.3696 25.6695C24.2482 25.952 23.9804 26.3185 23.5617 26.7708C22.9535 27.4288 22.3151 27.9412 21.6484 28.3076C20.9826 28.6707 20.412 28.7922 19.9395 28.6696L17.1771 31.6598L19.3563 33.6719L22.118 30.6824L21.7655 30.3563C22.6106 29.7979 23.3784 29.2155 24.0724 28.606L24.9807 29.4449L27.1384 27.1083L26.3106 26.3436C26.9354 25.641 27.5002 24.9432 28.0091 24.2477C28.518 23.5522 28.9224 22.8968 29.2194 22.2853C29.5173 21.6705 29.6877 21.1252 29.7304 20.6434C29.7703 20.1641 29.6429 19.7879 29.3473 19.514C28.9471 19.1447 28.4548 19.0289 27.8671 19.1683C27.2806 19.3091 26.6629 19.5806 26.0143 19.9862C25.3679 20.3886 24.7073 20.8765 24.0328 21.4475C23.3596 22.0198 22.7394 22.5442 22.1759 23.0235C21.6104 23.5046 21.1163 23.8966 20.6995 24.1978C20.2786 24.5001 19.9981 24.5832 19.8531 24.45C19.7353 24.3415 19.758 24.137 19.9233 23.8334C20.0873 23.531 20.3432 23.1924 20.6892 22.8168C20.9658 22.5176 21.2667 22.2397 21.5923 21.9864C21.9173 21.7311 22.2328 21.5227 22.5383 21.3566C22.8418 21.1923 23.1331 21.0761 23.4082 21.0116C23.6854 20.9452 23.9127 20.9523 24.0928 21.0341L26.8861 18.0098L24.7577 16.0443L21.9644 19.0686L22.3275 19.4037C22.0882 19.5556 21.8024 19.7532 21.4684 19.9957C21.1329 20.2407 20.7672 20.5303 20.3735 20.8612L19.4 19.9626L19.402 19.9633Z" fill="url(#paint18_linear_2008_6)"/>
<path style="mix-blend-mode:multiply" d="M13.7864 45.3865C18.1016 47.2866 26.5568 43.1782 33.7478 35.3916C40.9409 27.6031 44.366 18.8511 42.1308 14.6993C41.8872 13.9662 41.5235 13.3243 41.0049 12.8185L41.0077 12.8161L37.2653 9.35894C36.6413 8.78296 35.8495 8.43263 34.9485 8.25384C30.5244 6.75941 22.3522 10.8654 15.3747 18.4209C8.39859 25.9739 4.9533 34.4466 6.79414 38.7372C7.04307 39.6211 7.45524 40.3823 8.07914 40.9595L11.7008 44.3022C11.7126 44.3138 11.7243 44.3254 11.7366 44.3377C11.7491 44.3487 11.7628 44.3598 11.7752 44.3708L11.8173 44.4093L11.8187 44.4081C12.3652 44.8873 13.035 45.1997 13.7865 45.3851L13.7864 45.3865Z" fill="url(#paint19_linear_2008_6)"/>
<defs>
<linearGradient id="paint0_linear_2008_6" x1="98.5683" y1="40.8793" x2="54.5966" y2="30.0864" gradientUnits="userSpaceOnUse">
<stop offset="0.16" stop-color="#FFF8C7"/>
<stop offset="0.2" stop-color="#FEF5C1"/>
<stop offset="0.25" stop-color="#FEEFB1"/>
<stop offset="0.3" stop-color="#FDE596"/>
<stop offset="0.36" stop-color="#FDD870"/>
<stop offset="0.42" stop-color="#FBC641"/>
<stop offset="0.47" stop-color="#FBB718"/>
<stop offset="0.54" stop-color="#B15D1F"/>
<stop offset="0.56" stop-color="#9E4522"/>
<stop offset="0.61" stop-color="#A04A23"/>
<stop offset="0.65" stop-color="#DB9723"/>
<stop offset="0.66" stop-color="#FDC223"/>
<stop offset="0.81" stop-color="#E89C23"/>
<stop offset="0.82" stop-color="#ECAA31"/>
<stop offset="0.84" stop-color="#F3C147"/>
<stop offset="0.85" stop-color="#F8D157"/>
<stop offset="0.87" stop-color="#FCDA61"/>
<stop offset="0.9" stop-color="#FDDE64"/>
<stop offset="1" stop-color="#FCC744"/>
</linearGradient>
<linearGradient id="paint1_linear_2008_6" x1="88.1488" y1="59.6606" x2="66.209" y2="10.4993" gradientUnits="userSpaceOnUse">
<stop stop-color="#EBAB21"/>
<stop offset="0.08" stop-color="#FFC62A"/>
<stop offset="0.15" stop-color="#FFD75A"/>
<stop offset="0.41" stop-color="#FFF5A6"/>
<stop offset="0.42" stop-color="#FEF0A0"/>
<stop offset="0.44" stop-color="#FCE490"/>
<stop offset="0.47" stop-color="#F9CF75"/>
<stop offset="0.49" stop-color="#F5B34F"/>
<stop offset="0.52" stop-color="#F08F21"/>
<stop offset="0.56" stop-color="#C95127"/>
<stop offset="0.61" stop-color="#A14F24"/>
<stop offset="0.65" stop-color="#EAA622"/>
<stop offset="0.66" stop-color="#F1B637"/>
<stop offset="0.67" stop-color="#F8C84F"/>
<stop offset="0.68" stop-color="#FDD35D"/>
<stop offset="0.69" stop-color="#FFD762"/>
<stop offset="0.73" stop-color="#FFD660"/>
<stop offset="0.75" stop-color="#FFD559"/>
<stop offset="0.76" stop-color="#FFD24D"/>
<stop offset="0.77" stop-color="#FFCC2C"/>
<stop offset="0.78" stop-color="#FBC52B"/>
<stop offset="0.8" stop-color="#F2B429"/>
<stop offset="0.82" stop-color="#E6A133"/>
<stop offset="0.83" stop-color="#F5CB5D"/>
<stop offset="0.84" stop-color="#F9D86B"/>
<stop offset="0.85" stop-color="#FCDF72"/>
<stop offset="0.86" stop-color="#FDE275"/>
<stop offset="0.94" stop-color="#FDE47F"/>
<stop offset="1" stop-color="#FED84C"/>
</linearGradient>
<linearGradient id="paint2_linear_2008_6" x1="103.505" y1="38.9481" x2="58.7562" y2="27.9644" gradientUnits="userSpaceOnUse">
<stop offset="0.16" stop-color="#DD8326"/>
<stop offset="0.21" stop-color="#DF8824"/>
<stop offset="0.27" stop-color="#E69821"/>
<stop offset="0.35" stop-color="#F1B31B"/>
<stop offset="0.37" stop-color="#F6BD1A"/>
<stop offset="0.43" stop-color="#F4AD1C"/>
<stop offset="0.47" stop-color="#F4A01E"/>
<stop offset="0.54" stop-color="#9E4322"/>
<stop offset="0.61" stop-color="#A04A23"/>
<stop offset="0.71" stop-color="#FFC527"/>
<stop offset="1" stop-color="#B56628"/>
</linearGradient>
<linearGradient id="paint3_linear_2008_6" x1="100.168" y1="37.1868" x2="64.7224" y2="28.4866" gradientUnits="userSpaceOnUse">
<stop offset="0.16" stop-color="#D07D28"/>
<stop offset="0.23" stop-color="#CB7727"/>
<stop offset="0.31" stop-color="#BD6725"/>
<stop offset="0.41" stop-color="#A64C22"/>
<stop offset="0.43" stop-color="#9E4322"/>
<stop offset="0.61" stop-color="#A04A23"/>
<stop offset="1" stop-color="#BB5427"/>
</linearGradient>
<radialGradient id="paint4_radial_2008_6" cx="0" cy="0" r="1" gradientUnits="userSpaceOnUse" gradientTransform="translate(81.1724 33.2853) rotate(-165.771) scale(18.6007 18.6288)">
<stop stop-color="#DDA027"/>
<stop offset="1" stop-color="#C87729"/>
</radialGradient>
<linearGradient id="paint5_linear_2008_6" x1="76.2584" y1="55.7675" x2="87.7044" y2="10.631" gradientUnits="userSpaceOnUse">
<stop stop-color="#EEA620"/>
<stop offset="0.41" stop-color="#FFC60A"/>
<stop offset="0.53" stop-color="#FCC00C"/>
<stop offset="0.7" stop-color="#F5B012"/>
<stop offset="0.88" stop-color="#E9951D"/>
<stop offset="1" stop-color="#E08126"/>
</linearGradient>
<linearGradient id="paint6_linear_2008_6" x1="98.9169" y1="25.6009" x2="63.7604" y2="41.3049" gradientUnits="userSpaceOnUse">
<stop offset="0.16" stop-color="#C87829"/>
<stop offset="0.26" stop-color="#C37228"/>
<stop offset="0.38" stop-color="#B66226"/>
<stop offset="0.52" stop-color="#A14722"/>
<stop offset="0.54" stop-color="#9E4322"/>
<stop offset="0.61" stop-color="#A04A23"/>
<stop offset="0.71" stop-color="#B35E27"/>
<stop offset="1" stop-color="#9E5B25"/>
</linearGradient>
<linearGradient id="paint7_linear_2008_6" x1="99.5478" y1="25.3197" x2="64.3913" y2="41.0236" gradientUnits="userSpaceOnUse">
<stop stop-color="#EEA620"/>
<stop offset="0.41" stop-color="#FFC60A"/>
<stop offset="0.52" stop-color="#FCC00D"/>
<stop offset="0.66" stop-color="#F5B016"/>
<stop offset="0.77" stop-color="#EE9F21"/>
<stop offset="1" stop-color="#C16D29"/>
</linearGradient>
<linearGradient id="paint8_linear_2008_6" x1="97.9228" y1="48.824" x2="80.8004" y2="10.4573" gradientUnits="userSpaceOnUse">
<stop stop-color="#FBAA19"/>
<stop offset="0.5" stop-color="#FEEE7F"/>
<stop offset="0.58" stop-color="#FBE87A"/>
<stop offset="0.69" stop-color="#F4D86C"/>
<stop offset="0.82" stop-color="#E9BD55"/>
<stop offset="0.95" stop-color="#D99836"/>
<stop offset="1" stop-color="#D28829"/>
</linearGradient>
<linearGradient id="paint9_linear_2008_6" x1="69.7956" y1="70.6088" x2="85.9965" y2="10.5051" gradientUnits="userSpaceOnUse">
<stop stop-color="white"/>
<stop offset="0.11" stop-color="#FCFAF9"/>
<stop offset="0.24" stop-color="#F5ECEB"/>
<stop offset="0.39" stop-color="#E9D5D2"/>
<stop offset="0.54" stop-color="#D8B5B0"/>
<stop offset="0.7" stop-color="#C38C85"/>
<stop offset="0.86" stop-color="#A95B50"/>
<stop offset="1" stop-color="#902B1D"/>
</linearGradient>
<linearGradient id="paint10_linear_2008_6" x1="26.0988" y1="12.8476" x2="27.6733" y2="45.2775" gradientUnits="userSpaceOnUse">
<stop offset="0.16" stop-color="#FFF8C7"/>
<stop offset="0.2" stop-color="#FEF5C1"/>
<stop offset="0.25" stop-color="#FEEFB1"/>
<stop offset="0.3" stop-color="#FDE596"/>
<stop offset="0.36" stop-color="#FDD870"/>
<stop offset="0.42" stop-color="#FBC641"/>
<stop offset="0.47" stop-color="#FBB718"/>
<stop offset="0.54" stop-color="#B15D1F"/>
<stop offset="0.56" stop-color="#9E4522"/>
<stop offset="0.61" stop-color="#A04A23"/>
<stop offset="0.65" stop-color="#DB9723"/>
<stop offset="0.66" stop-color="#FDC223"/>
<stop offset="0.81" stop-color="#E89C23"/>
<stop offset="0.82" stop-color="#ECAA31"/>
<stop offset="0.84" stop-color="#F3C147"/>
<stop offset="0.85" stop-color="#F8D157"/>
<stop offset="0.87" stop-color="#FCDA61"/>
<stop offset="0.9" stop-color="#FDDE64"/>
<stop offset="1" stop-color="#FCC744"/>
</linearGradient>
<linearGradient id="paint11_linear_2008_6" x1="11.6493" y1="44.2657" x2="40.8387" y2="12.6671" gradientUnits="userSpaceOnUse">
<stop stop-color="#EBAB21"/>
<stop offset="0.08" stop-color="#FFC62A"/>
<stop offset="0.15" stop-color="#FFD75A"/>
<stop offset="0.41" stop-color="#FFF5A6"/>
<stop offset="0.42" stop-color="#FEF0A0"/>
<stop offset="0.44" stop-color="#FCE490"/>
<stop offset="0.47" stop-color="#F9CF75"/>
<stop offset="0.49" stop-color="#F5B34F"/>
<stop offset="0.52" stop-color="#F08F21"/>
<stop offset="0.56" stop-color="#C95127"/>
<stop offset="0.61" stop-color="#A14F24"/>
<stop offset="0.65" stop-color="#EAA622"/>
<stop offset="0.66" stop-color="#F1B637"/>
<stop offset="0.67" stop-color="#F8C84F"/>
<stop offset="0.68" stop-color="#FDD35D"/>
<stop offset="0.69" stop-color="#FFD762"/>
<stop offset="0.73" stop-color="#FFD660"/>
<stop offset="0.75" stop-color="#FFD559"/>
<stop offset="0.76" stop-color="#FFD24D"/>
<stop offset="0.77" stop-color="#FFCC2C"/>
<stop offset="0.78" stop-color="#FBC52B"/>
<stop offset="0.8" stop-color="#F2B429"/>
<stop offset="0.82" stop-color="#E6A133"/>
<stop offset="0.83" stop-color="#F5CB5D"/>
<stop offset="0.84" stop-color="#F9D86B"/>
<stop offset="0.85" stop-color="#FCDF72"/>
<stop offset="0.86" stop-color="#FDE275"/>
<stop offset="0.94" stop-color="#FDE47F"/>
<stop offset="1" stop-color="#FED84C"/>
</linearGradient>
<linearGradient id="paint12_linear_2008_6" x1="21.8189" y1="8.63189" x2="23.42" y2="41.6109" gradientUnits="userSpaceOnUse">
<stop offset="0.16" stop-color="#DD8326"/>
<stop offset="0.21" stop-color="#DF8824"/>
<stop offset="0.27" stop-color="#E69821"/>
<stop offset="0.35" stop-color="#F1B31B"/>
<stop offset="0.37" stop-color="#F6BD1A"/>
<stop offset="0.43" stop-color="#F4AD1C"/>
<stop offset="0.47" stop-color="#F4A01E"/>
<stop offset="0.54" stop-color="#9E4322"/>
<stop offset="0.61" stop-color="#A04A23"/>
<stop offset="0.71" stop-color="#FFC527"/>
<stop offset="1" stop-color="#B56628"/>
</linearGradient>
<linearGradient id="paint13_linear_2008_6" x1="9.78473" y1="39.1361" x2="34.5503" y2="12.3171" gradientUnits="userSpaceOnUse">
<stop offset="0.16" stop-color="#D07D28"/>
<stop offset="0.23" stop-color="#CB7727"/>
<stop offset="0.31" stop-color="#BD6725"/>
<stop offset="0.41" stop-color="#A64C22"/>
<stop offset="0.43" stop-color="#9E4322"/>
<stop offset="0.61" stop-color="#A04A23"/>
<stop offset="1" stop-color="#BB5427"/>
</linearGradient>
<radialGradient id="paint14_radial_2008_6" cx="0" cy="0" r="1" gradientUnits="userSpaceOnUse" gradientTransform="translate(22.2738 23.6527) rotate(-47.2695) scale(16.7218 7.08443)">
<stop stop-color="#DDA027"/>
<stop offset="1" stop-color="#C87729"/>
</radialGradient>
<radialGradient id="paint15_radial_2008_6" cx="0" cy="0" r="1" gradientUnits="userSpaceOnUse" gradientTransform="translate(17.985 18.275) rotate(-47.2695) scale(24.3698 14.1382)">
<stop stop-color="white"/>
<stop offset="0.59" stop-color="white"/>
<stop offset="0.69" stop-color="white"/>
<stop offset="0.8" stop-color="#FEFDFD"/>
<stop offset="0.85" stop-color="#FCF8F6"/>
<stop offset="0.88" stop-color="#F8F0EA"/>
<stop offset="0.91" stop-color="#F2E4D9"/>
<stop offset="0.93" stop-color="#EBD5C3"/>
<stop offset="0.95" stop-color="#E3C2A7"/>
<stop offset="0.96" stop-color="#D8AB87"/>
<stop offset="0.98" stop-color="#CC9061"/>
<stop offset="1" stop-color="#BA6928"/>
</radialGradient>
<linearGradient id="paint16_linear_2008_6" x1="-0.958018" y1="25.7942" x2="38.3564" y2="23.8855" gradientUnits="userSpaceOnUse">
<stop stop-color="#E79824"/>
<stop offset="0.41" stop-color="#F5B21A"/>
<stop offset="0.52" stop-color="#F2AC1B"/>
<stop offset="0.67" stop-color="#EA9C20"/>
<stop offset="0.77" stop-color="#E48E25"/>
<stop offset="1" stop-color="#D36827"/>
</linearGradient>
<linearGradient id="paint17_linear_2008_6" x1="16.3496" y1="31.7201" x2="28.4572" y2="18.6132" gradientUnits="userSpaceOnUse">
<stop offset="0.01" stop-color="#A14323"/>
<stop offset="0.06" stop-color="#A54B24"/>
<stop offset="0.13" stop-color="#B06227"/>
<stop offset="0.16" stop-color="#B66D29"/>
<stop offset="0.27" stop-color="#B26728"/>
<stop offset="0.41" stop-color="#A95725"/>
<stop offset="0.54" stop-color="#9E4322"/>
<stop offset="0.61" stop-color="#A04A23"/>
<stop offset="0.71" stop-color="#B35E27"/>
<stop offset="1" stop-color="#9E5B25"/>
</linearGradient>
<linearGradient id="paint18_linear_2008_6" x1="15.4331" y1="18.4838" x2="29.0919" y2="31.1012" gradientUnits="userSpaceOnUse">
<stop stop-color="#EEA620"/>
<stop offset="0.41" stop-color="#FFC60A"/>
<stop offset="0.52" stop-color="#FCC00D"/>
<stop offset="0.66" stop-color="#F5B016"/>
<stop offset="0.77" stop-color="#EE9F21"/>
<stop offset="1" stop-color="#C16D29"/>
</linearGradient>
<linearGradient id="paint19_linear_2008_6" x1="0.61284" y1="21.0909" x2="-27.5201" y2="14.302" gradientUnits="userSpaceOnUse">
<stop stop-color="white"/>
<stop offset="0.11" stop-color="#FCFAF9"/>
<stop offset="0.24" stop-color="#F5ECEB"/>
<stop offset="0.39" stop-color="#E9D5D2"/>
<stop offset="0.54" stop-color="#D8B5B0"/>
<stop offset="0.7" stop-color="#C38C85"/>
<stop offset="0.86" stop-color="#A95B50"/>
<stop offset="1" stop-color="#902B1D"/>
</linearGradient>
</defs>
</svg>
