<svg width="388" height="347" viewBox="0 0 388 347" fill="none" xmlns="http://www.w3.org/2000/svg">
<path d="M101.033 153.653C74.8514 146.503 46.5493 155.461 32.6022 177.191C15.7962 203.384 26.2222 238.234 55.8892 255.013C60.956 257.878 66.2563 260.033 71.6442 261.505C97.824 268.653 126.117 259.694 140.064 237.967C156.872 211.765 146.444 176.924 116.777 160.138C111.714 157.277 106.419 155.123 101.033 153.653Z" fill="url(#paint0_linear_2007_4)"/>
<path d="M148.111 217.384L147.753 217.286C150.971 195.369 139.554 172.154 116.986 159.385C111.923 156.524 106.628 154.37 101.242 152.9C75.0606 145.751 46.7585 154.708 32.8113 176.438C31.0926 179.12 29.673 181.892 28.5165 184.725L28.1441 184.623L26.3624 191.165L26.3772 191.168C20.3643 214.519 31.7376 240.48 56.0983 254.257C61.165 257.122 66.4653 259.277 71.8533 260.749C98.033 267.897 126.326 258.938 140.271 237.209C143.058 232.865 145.08 228.282 146.405 223.586L146.41 223.591L148.108 217.379L148.111 217.384Z" fill="url(#paint1_linear_2007_4)"/>
<path d="M103.025 146.38C76.8435 139.231 48.5414 148.188 34.5943 169.918C17.7883 196.111 28.2143 230.961 57.8831 247.739C62.9498 250.604 68.2484 252.76 73.6381 254.231C99.8178 261.378 128.111 252.419 142.056 230.691C158.864 204.489 148.436 169.648 118.771 152.863C113.708 150.002 108.411 147.847 103.027 146.378L103.025 146.38Z" fill="url(#paint2_linear_2007_4)"/>
<path d="M100.448 155.735C90.607 153.048 79.9384 153.041 69.8565 156.322C44.6233 164.532 32.6271 190.206 43.0461 213.671C49.3066 227.758 62.2247 237.846 77.0092 241.884C86.8501 244.571 97.5204 244.576 107.602 241.295C132.825 233.089 144.832 207.411 134.404 183.948C128.149 169.859 115.231 159.772 100.448 155.735Z" fill="url(#paint3_linear_2007_4)"/>
<path d="M99.3415 157.675C89.637 155.024 79.1158 155.019 69.1735 158.253C44.2891 166.349 32.457 191.669 42.7344 214.813C48.9086 228.703 61.649 238.655 76.2288 242.636C85.935 245.284 96.4582 245.291 106.4 242.054C131.278 233.961 143.117 208.638 132.832 185.498C126.665 171.603 113.925 161.656 99.3451 157.675L99.3415 157.675Z" fill="url(#paint4_radial_2007_4)"/>
<path style="mix-blend-mode:multiply" d="M99.3415 157.675C89.637 155.024 79.1158 155.019 69.1735 158.253C44.2891 166.349 32.457 191.669 42.7344 214.813C48.9086 228.703 61.649 238.655 76.2288 242.636C85.935 245.284 96.4582 245.291 106.4 242.054C131.278 233.961 143.117 208.638 132.832 185.498C126.665 171.603 113.925 161.656 99.3451 157.675L99.3415 157.675Z" fill="url(#paint5_radial_2007_4)"/>
<path d="M77.244 240.977C73.0215 239.825 68.874 238.138 64.9059 235.892C41.6607 222.743 33.4882 195.442 46.6625 174.911C57.5867 157.89 79.7589 150.873 100.269 156.47C104.491 157.622 108.639 159.309 112.607 161.554C135.854 174.705 144.024 202.005 130.853 222.528C119.928 239.555 97.7556 246.576 77.2458 240.975L77.244 240.977ZM103.349 145.19C77.356 138.093 49.2635 146.988 35.4176 168.56C18.7348 194.563 29.0826 229.159 58.5361 245.814C63.5655 248.659 68.825 250.798 74.1759 252.257C100.164 259.353 128.251 250.461 142.095 228.89C158.779 202.878 148.43 168.291 118.98 151.629C113.954 148.787 108.697 146.65 103.349 145.19Z" fill="url(#paint6_linear_2007_4)"/>
<path d="M101.503 171.299L97.741 177.151C95.484 175.882 93.155 174.915 90.756 174.259C90.6398 174.227 90.5219 174.196 90.404 174.166C87.8782 173.519 85.4584 173.246 83.1401 173.366C80.8233 173.477 78.6863 174.02 76.7364 174.993C74.7864 175.965 73.1642 177.452 71.8874 179.446C70.1453 182.169 69.358 184.712 69.5496 187.082C69.7319 189.449 70.4067 191.664 71.5865 193.721C72.7557 195.783 74.2497 197.689 76.0656 199.446C77.8814 201.202 79.5606 202.811 81.1043 204.291C82.6479 205.77 83.8658 207.135 84.749 208.391C85.6289 209.654 85.7452 210.778 85.1043 211.778C84.7144 212.381 83.9923 212.743 82.9375 212.852C82.4346 212.906 81.879 212.85 81.2706 212.684C80.5846 212.497 79.8335 212.171 79.0136 211.706C76.7453 210.427 75.0998 208.658 74.0808 206.4C73.0508 204.138 72.9493 201.75 73.7765 199.242L63.5027 193.434L53.8369 208.493L64.1107 214.301L65.6723 211.859C67.3538 214.492 69.2054 216.707 71.2088 218.505L67.1788 224.783L75.1953 229.315L78.8643 223.601C81.2911 224.847 83.7521 225.833 86.2305 226.55C86.3744 226.59 86.5166 226.632 86.6604 226.673C88.9837 227.305 91.2243 227.597 93.3797 227.531C95.6659 227.461 97.7738 226.954 99.6931 225.988C101.62 225.033 103.233 223.537 104.545 221.493C106.327 218.723 107.128 216.133 106.963 213.708C106.796 211.285 106.112 209.035 104.908 206.962C103.713 204.894 102.181 202.95 100.318 201.158C98.4545 199.361 96.7403 197.711 95.183 196.212C93.6178 194.703 92.365 193.327 91.4153 192.087C90.4744 190.841 90.3307 189.717 90.9717 188.717C91.4948 187.905 92.3156 187.519 93.4311 187.568C93.8867 187.585 94.356 187.66 94.841 187.794C95.5435 187.986 96.2793 188.299 97.0468 188.733C98.076 189.311 98.992 190.059 99.8021 190.983C100.606 191.897 101.243 192.875 101.711 193.915C102.171 194.954 102.449 196.037 102.524 197.175C102.599 198.313 102.414 199.403 101.961 200.448L112.349 206.321L121.79 191.606L111.402 185.732L109.793 188.246C109.344 187.48 108.742 186.613 107.976 185.626C107.21 184.639 106.285 183.616 105.198 182.559L109.52 175.828L101.503 171.296L101.503 171.299Z" fill="url(#paint7_linear_2007_4)"/>
<path d="M101.933 169.724L98.1707 175.576C95.9138 174.307 93.5847 173.34 91.1857 172.684C91.0695 172.651 90.9516 172.621 90.8337 172.59C88.3096 171.942 85.8881 171.671 83.5698 171.791C81.2529 171.901 79.1177 172.443 77.1661 173.418C75.2161 174.39 73.5939 175.877 72.3171 177.871C70.5749 180.593 69.7877 183.137 69.9793 185.506C70.1616 187.874 70.8364 190.088 72.0162 192.146C73.1853 194.208 74.6794 196.114 76.4952 197.87C78.311 199.627 79.9903 201.236 81.534 202.715C83.0776 204.195 84.2955 205.56 85.1787 206.816C86.0586 208.079 86.1749 209.203 85.534 210.202C85.1441 210.806 84.4221 211.167 83.3673 211.277C82.8644 211.331 82.3105 211.273 81.7003 211.109C81.0162 210.924 80.2632 210.596 79.4433 210.131C77.1749 208.852 75.5315 207.085 74.5106 204.824C73.4806 202.563 73.3809 200.176 74.2046 197.669L63.9307 191.86L54.2648 206.92L64.5387 212.728L66.1003 210.286C67.7818 212.918 69.6334 215.133 71.6368 216.932L67.6085 223.208L75.625 227.74L79.294 222.026C81.7208 223.271 84.1818 224.257 86.6602 224.975C86.8024 225.017 86.9462 225.057 87.0901 225.097C89.4133 225.73 91.6557 226.02 93.8094 225.955C96.0956 225.886 98.2034 225.379 100.123 224.413C102.05 223.458 103.663 221.962 104.975 219.918C106.759 217.146 107.56 214.556 107.393 212.133C107.226 209.709 106.542 207.459 105.338 205.387C104.143 203.319 102.611 201.375 100.747 199.582C98.8842 197.786 97.1701 196.135 95.6128 194.637C94.0476 193.127 92.7947 191.752 91.845 190.512C90.9041 189.266 90.7604 188.142 91.3995 187.14C91.9225 186.329 92.7434 185.942 93.8589 185.991C94.3145 186.009 94.7857 186.085 95.2705 186.215C95.9731 186.407 96.7089 186.72 97.4746 187.156C98.5039 187.734 99.4179 188.481 100.23 189.406C101.034 190.32 101.672 191.296 102.139 192.338C102.599 193.377 102.877 194.46 102.954 195.596C103.029 196.735 102.844 197.824 102.39 198.869L112.778 204.742L122.22 190.027L111.831 184.154L110.223 186.668C109.773 185.901 109.171 185.034 108.405 184.047C107.639 183.06 106.715 182.037 105.629 180.978L109.951 174.247L101.934 169.715L101.933 169.724Z" fill="url(#paint8_linear_2007_4)"/>
<g style="mix-blend-mode:screen">
<path d="M73.1483 193.935C72.7528 193.339 72.3682 192.741 72.0128 192.146C72.36 192.758 72.7425 193.35 73.1483 193.935Z" fill="url(#paint9_linear_2007_4)"/>
</g>
<path style="mix-blend-mode:multiply" d="M34.6149 169.888C34.6149 169.888 34.5977 169.907 34.5928 169.92C31.592 174.597 29.4744 179.554 28.165 184.632L28.1448 184.627L26.3631 191.169L26.3688 191.174C19.9144 214.715 31.2631 241.089 55.8893 255.013C60.9561 257.878 66.2564 260.033 71.6443 261.505C97.8223 268.655 126.117 259.694 140.064 237.967C142.972 233.435 145.047 228.637 146.366 223.724C146.379 223.68 146.398 223.635 146.409 223.589L146.415 223.594L148.113 217.382L148.109 217.379C149.606 212.197 150.244 206.869 150.053 201.559C149.958 182.18 138.805 162.842 118.982 151.627C113.956 148.785 108.699 146.648 103.351 145.189C77.3577 138.092 49.2652 146.986 35.4174 168.557C35.1357 168.994 34.8818 169.444 34.6166 169.886L34.6149 169.888Z" fill="url(#paint10_linear_2007_4)"/>
<path d="M97.9519 98.4337C99.0095 117.465 104.52 136.421 114.657 152.443C140.034 192.535 184.758 199.049 214.578 167.011C232.47 147.768 240.926 119 239.331 90.4067C238.268 71.3695 232.758 52.4137 222.621 36.3975C197.26 -3.68356 152.52 -10.2082 122.711 21.8458C104.807 41.0782 96.3573 69.8455 97.9519 98.4392V98.4337Z" fill="url(#paint11_linear_2007_4)"/>
<path d="M161.311 0.0483936L145.767 0.943299L145.881 2.99888C136.378 6.22598 127.288 12.0836 119.267 20.7072C101.049 40.2813 92.4463 69.5584 94.068 98.6511C95.1473 118.019 100.755 137.311 111.071 153.615C123.036 172.516 139.226 184.069 156.175 187.8L156.289 189.894L171.242 189.059L171.285 189.037C186.048 188.229 200.617 181.482 212.76 168.432C230.973 148.853 239.575 119.576 237.953 90.4776C236.874 71.1042 231.266 51.8121 220.945 35.5139C205.595 11.2592 183.272 -0.917018 161.316 0.0538226L161.311 0.0483936Z" fill="url(#paint12_linear_2007_4)"/>
<path d="M79.0829 99.4858C80.1622 118.854 85.7703 138.146 96.0862 154.45C121.908 195.252 167.43 201.88 197.775 169.272C215.988 149.688 224.59 120.416 222.968 91.3178C221.889 71.9443 216.281 52.6523 205.959 36.3541C180.148 -4.43208 134.616 -11.0761 104.281 21.542C86.0631 41.1161 77.4612 70.3877 79.0829 99.4858Z" fill="url(#paint13_linear_2007_4)"/>
<path d="M88.9755 98.9109C89.827 114.255 94.2691 129.533 102.443 142.447C122.895 174.767 158.952 180.017 182.99 154.189C197.417 138.677 204.229 115.486 202.943 92.4405C202.087 77.0968 197.645 61.8129 189.471 48.9045C169.024 16.5956 132.962 11.3346 108.929 37.173C94.4968 52.6794 87.6845 75.8657 88.9699 98.9164L88.9755 98.9109Z" fill="url(#paint14_linear_2007_4)"/>
<path d="M94.8221 98.5905C95.6628 113.723 100.045 128.79 108.105 141.524C128.276 173.399 163.833 178.574 187.54 153.104C201.767 137.804 208.487 114.938 207.223 92.2068C206.382 77.0747 202 62.0023 193.935 49.2674C173.769 17.4033 138.206 12.2182 114.505 37.6987C100.273 52.9881 93.553 75.8598 94.8221 98.5905Z" fill="url(#paint15_radial_2007_4)"/>
<path style="mix-blend-mode:multiply" d="M94.8221 98.5905C95.6628 113.723 100.045 128.79 108.105 141.524C128.276 173.399 163.833 178.574 187.54 153.104C201.767 137.804 208.487 114.938 207.223 92.2068C206.382 77.0747 202 62.0023 193.935 49.2674C173.769 17.4033 138.206 12.2182 114.505 37.6987C100.273 52.9881 93.553 75.8598 94.8221 98.5905Z" fill="url(#paint16_radial_2007_4)"/>
<path d="M204.598 92.3537C205.862 115.09 199.147 137.956 184.915 153.246C161.208 178.721 125.651 173.536 105.486 141.671C97.426 128.937 93.0436 113.859 92.1975 98.7266C90.9284 75.9959 97.6483 53.135 111.88 37.8402C135.576 12.3651 171.134 17.5502 191.31 49.4144C199.37 62.1492 203.752 77.2216 204.593 92.3483L204.598 92.3537ZM77.1955 99.5889C78.264 118.762 83.8126 137.853 94.0254 153.989C119.582 194.373 164.636 200.931 194.667 168.66C212.69 149.281 221.205 120.302 219.6 91.5022C218.532 72.3295 212.983 53.2381 202.765 37.1026C177.219 -3.26595 132.154 -9.83946 102.134 22.4424C84.0999 41.8158 75.5902 70.7891 77.1902 99.5889H77.1955Z" fill="url(#paint17_linear_2007_4)"/>
<path d="M149.483 44.0285L141.206 52.9234L143.674 56.8176C142.611 57.002 141.358 57.3329 139.904 57.8264C138.462 58.3091 136.921 59.0142 135.278 59.92L128.677 49.4794L126.231 49.6149L125.89 52.0448L126.058 52.2943L120.498 58.2603L126.258 67.3504C123.839 69.9538 121.816 72.8717 120.167 76.1205C118.529 79.3747 117.38 82.7103 116.729 86.1381C116.257 88.633 116.089 91.1279 116.23 93.6173C116.279 94.5502 116.376 95.4831 116.512 96.416C117.006 99.8546 118.242 103.125 120.211 106.233C122.885 110.447 125.673 113.159 128.58 114.379C131.487 115.583 134.378 115.974 137.252 115.567C140.116 115.144 142.915 114.173 145.643 112.627C148.365 111.098 150.882 109.671 153.182 108.359C155.481 107.03 157.537 106.13 159.348 105.642C161.16 105.154 162.554 105.685 163.535 107.231C163.909 107.822 164.121 108.549 164.164 109.411C164.192 109.91 164.165 110.458 164.083 111.055C163.855 112.655 162.96 114.303 161.377 116.006C159.066 118.496 156.387 119.776 153.322 119.852C150.258 119.928 147.356 118.583 144.628 115.838L142.182 115.974L142.459 118.17L134.161 127.087L145.892 145.625L146.516 150.609L148.962 150.474L159.435 139.22L157.038 135.418C160.769 134.631 164.056 133.33 166.898 131.556L171.242 138.417L170.619 141.438L173.065 141.302L181.233 132.511L175.619 123.632C177.935 120.893 179.958 117.953 181.667 114.808C183.375 111.678 184.579 108.419 185.273 105.072C185.794 102.577 185.984 100.066 185.843 97.5495C185.794 96.6872 185.708 95.8248 185.583 94.9624C185.078 91.5835 183.836 88.313 181.818 85.1239C179.101 80.8337 176.265 78.0514 173.293 76.7768C170.32 75.5185 167.397 75.1063 164.501 75.5565C161.605 75.9958 158.757 77.01 155.969 78.5829C153.176 80.1612 150.611 81.6147 148.268 82.9435C145.935 84.2723 143.853 85.2323 142.041 85.8181C140.235 86.4039 138.83 85.9266 137.849 84.37C137.382 83.6378 137.127 82.8513 137.079 82.0106C137.046 81.4032 137.122 80.7632 137.306 80.0961C137.746 78.4961 138.614 76.9992 139.926 75.589C140.978 74.4663 142.193 73.5985 143.565 72.9965C144.948 72.3944 146.342 72.0853 147.736 72.0582C149.141 72.0202 150.546 72.3131 151.934 72.9151C152.39 73.105 152.823 73.3544 153.252 73.6256L153.219 75.8982L155.666 75.7626L166.253 64.3782L151.804 41.5391L149.358 41.6747L149.488 44.0285H149.483Z" fill="url(#paint18_linear_2007_4)"/>
<path d="M113.783 93.7571C113.837 94.6899 113.93 95.6228 114.071 96.5557C114.564 99.9943 115.801 103.265 117.769 106.373C120.443 110.587 123.231 113.299 126.138 114.519C129.04 115.723 131.936 116.114 134.811 115.707C137.68 115.284 140.473 114.318 143.201 112.767C145.924 111.238 148.44 109.811 150.74 108.499C153.04 107.17 155.095 106.27 156.907 105.781C158.718 105.293 160.112 105.825 161.094 107.371C161.468 107.962 161.68 108.688 161.723 109.551C161.75 110.05 161.723 110.598 161.642 111.194C161.414 112.794 160.519 114.443 158.935 116.146C156.625 118.636 153.945 119.916 150.876 119.991C147.811 120.067 144.91 118.722 142.182 115.978L131.708 127.232L146.504 150.614L156.977 139.359L154.58 135.557C158.312 134.771 161.598 133.469 164.44 131.696L170.607 141.442L178.775 132.65L173.162 123.772C175.477 121.033 177.501 118.093 179.209 114.947C180.918 111.818 182.122 108.558 182.816 105.212C183.337 102.717 183.526 100.206 183.385 97.6892C183.336 96.8269 183.25 95.9645 183.125 95.1021C182.621 91.7232 181.379 88.4527 179.361 85.2635C176.644 80.968 173.807 78.1856 170.835 76.9165C167.863 75.6582 164.939 75.2406 162.043 75.6962C159.147 76.1355 156.299 77.1497 153.512 78.7226C150.718 80.3009 148.153 81.7544 145.81 83.0832C143.478 84.412 141.395 85.372 139.578 85.9578C137.772 86.5435 136.367 86.0663 135.391 84.5042C134.925 83.772 134.67 82.9856 134.621 82.1449C134.588 81.5375 134.664 80.8975 134.849 80.2304C135.288 78.6304 136.156 77.1334 137.468 75.7233C138.52 74.6006 139.73 73.7328 141.108 73.1308C142.491 72.5287 143.885 72.2196 145.279 72.1979C146.683 72.1599 148.088 72.4528 149.476 73.0548C150.865 73.6406 152.118 74.5897 153.208 75.8968L163.8 64.5125L149.352 41.6733L138.759 53.0577L141.227 56.9519C140.164 57.1363 138.911 57.4671 137.457 57.9607C136.015 58.4434 134.475 59.1485 132.837 60.0542L126.236 49.6136L118.051 58.3946L123.812 67.4847C121.393 70.0881 119.37 73.006 117.721 76.2548C116.083 79.509 114.933 82.8446 114.287 86.2724C113.816 88.7673 113.648 91.2621 113.789 93.7516L113.783 93.7571Z" fill="url(#paint19_linear_2007_4)"/>
<path style="mix-blend-mode:screen" d="M161.723 109.546C161.75 110.045 161.723 110.593 161.642 111.189C161.414 112.789 160.519 114.438 158.935 116.141C157.249 117.958 155.361 119.124 153.273 119.656C147.931 125.123 142.003 129.782 135.836 133.741L146.51 150.609L156.983 139.355L154.586 135.553C158.317 134.766 161.604 133.464 164.446 131.691L170.613 141.437L178.781 132.645L173.167 123.767C175.483 121.028 177.506 118.088 179.215 114.942C180.923 111.813 182.127 108.553 182.821 105.207C183.342 102.712 183.532 100.201 183.391 97.6843C183.342 96.8219 183.255 95.9596 183.131 95.0972C182.626 91.7183 181.384 88.4478 179.366 85.2586C178.276 83.5393 177.17 82.0749 176.042 80.8438C171.99 91.7942 167.25 101.736 161.723 109.546Z" fill="url(#paint20_linear_2007_4)"/>
<path style="mix-blend-mode:screen" d="M186.895 43.1825C188.435 45.135 189.916 47.2069 191.315 49.4143C199.375 62.1491 203.757 77.2216 204.598 92.3482C205.862 115.084 199.147 137.951 184.915 153.24C162.532 177.289 129.594 174.002 109.011 146.748C103.175 148.841 97.5993 150.441 92.5986 151.645C93.0651 152.426 93.5316 153.213 94.0197 153.983C119.576 194.368 164.625 200.925 194.662 168.654C212.685 149.275 221.2 120.297 219.595 91.4967C218.526 72.324 212.978 53.2326 202.759 37.0971C199.218 31.5053 195.296 26.5806 191.099 22.3013C189.894 29.0321 188.495 36.072 186.89 43.1771L186.895 43.1825Z" fill="url(#paint21_linear_2007_4)"/>
<path d="M437.908 332.832L437.91 332.828L444.718 328.724L441.853 326.215C442.837 317.055 434.715 300.575 417.327 279.177C391.088 246.895 351.572 212.98 318.928 193.464C309.701 187.943 301.024 183.578 293.35 180.724C283.716 177.136 276.687 176.318 272.253 177.877L269.969 175.878L267.304 182.518L267.318 182.539C264.097 190.925 272.008 208.58 291.235 232.236C317.466 264.521 356.988 298.426 389.634 317.95C398.861 323.471 407.538 327.836 415.209 330.695C426.079 334.739 433.649 335.273 437.895 332.832L437.908 332.832Z" fill="url(#paint22_linear_2007_4)"/>
<path d="M463.393 307.148L432.749 280.142C430.606 277.242 428.293 274.246 425.769 271.139C399.065 238.277 358.849 203.767 325.624 183.9C323.575 182.677 321.561 181.517 319.573 180.412L289.072 153.536L270.839 174.607L270.853 174.615C264.564 181.8 272.128 200.963 293.773 227.597C320.468 260.454 360.696 294.964 393.921 314.831C403.313 320.444 412.14 324.893 419.951 327.799C433.305 332.767 441.755 332.526 445.28 328.05L445.294 328.058L463.396 307.144L463.393 307.148Z" fill="url(#paint23_linear_2007_4)"/>
<path d="M464.373 305.556L464.396 305.549L464.452 305.37C464.785 304.626 465.046 303.829 465.195 302.938L466.147 299.813L465.288 299.058C464.447 289.335 456.154 273.843 440.311 254.342C413.606 221.48 373.391 186.97 340.166 167.103C330.773 161.49 321.944 157.046 314.135 154.136C306.488 151.29 300.457 150.158 296.03 150.542L295.423 150.01L292.776 151.199C292.105 151.429 291.483 151.699 290.927 152.032L290.869 152.056L290.861 152.071C281.632 157.7 288.576 177.765 311.98 206.563C338.675 239.419 378.903 273.93 412.127 293.797C421.517 299.415 430.347 303.859 438.158 306.764C452.835 312.225 461.578 311.383 464.374 305.543L464.373 305.556Z" fill="url(#paint24_linear_2007_4)"/>
<path d="M454.108 293.35C445.237 303.602 404.245 282.663 362.554 246.576C320.864 210.489 294.259 172.929 303.131 162.678C312.002 152.426 352.994 173.365 394.685 209.452C436.375 245.538 462.98 283.099 454.108 293.35Z" fill="url(#paint25_linear_2007_4)"/>
<path d="M444.827 288.609C436.854 297.822 400.016 279.004 362.549 246.574C325.082 214.145 301.177 180.39 309.15 171.177C317.122 161.964 353.96 180.782 391.427 213.212C428.894 245.642 452.799 279.396 444.827 288.609Z" fill="url(#paint26_radial_2007_4)"/>
<path style="mix-blend-mode:multiply" d="M444.827 288.609C436.854 297.822 400.016 279.004 362.549 246.574C325.082 214.145 301.177 180.39 309.15 171.177C317.122 161.964 353.96 180.782 391.427 213.212C428.894 245.642 452.799 279.396 444.827 288.609Z" fill="url(#paint27_radial_2007_4)"/>
<path d="M406.881 276.301C381.113 260.894 349.92 234.128 329.213 208.643C302.661 175.962 303.409 157.762 330.887 167.983C336.941 170.237 343.786 173.685 351.061 178.037C376.834 193.447 408.032 220.215 428.735 245.698C455.296 278.384 454.545 296.589 427.068 286.355C421.014 284.101 414.161 280.656 406.881 276.301ZM343.626 164.93C334.398 159.409 325.722 155.044 318.048 152.19C283.229 139.224 282.272 162.284 315.932 203.703C342.164 235.987 381.685 269.892 414.331 289.416C423.556 294.929 432.235 299.302 439.906 302.161C474.718 315.117 475.667 292.059 442.02 250.641C415.784 218.353 376.265 184.444 343.621 164.927L343.626 164.93Z" fill="url(#paint28_linear_2007_4)"/>
<path d="M413.976 268.521L409.956 263.576C412.641 264.473 414.939 265.001 416.841 265.154C418.743 265.307 420.024 264.954 420.668 264.078L422.27 262.228L420.972 261.553C420.864 261.027 420.708 260.475 420.452 259.84C419.642 257.871 417.91 255.251 415.263 251.999C411.691 247.598 408.051 243.764 404.341 240.476C400.637 237.2 397.026 234.338 393.51 231.899C391.019 230.167 388.584 228.587 386.195 227.162C385.207 226.57 384.223 226.007 383.252 225.464C379.93 223.624 376.882 221.931 374.103 220.395C372.477 219.498 370.964 218.625 369.54 217.777C368.528 217.173 367.567 216.578 366.651 215.995C364.46 214.603 362.727 213.111 361.437 211.523C360.377 210.216 360.071 209.42 360.502 209.094C360.952 208.791 361.929 208.912 363.461 209.488C364.66 209.93 366.108 210.657 367.75 211.64C369.408 212.638 371.081 213.759 372.807 215.037C374.525 216.304 376.255 217.712 377.988 219.249C379.731 220.791 381.301 222.346 382.723 223.938L395.005 228.51L396.607 226.661L391.563 224.278L375.952 205.066L368.357 202.243L365.288 198.652L363.685 200.502L366.923 204.486C365.637 203.595 364.118 202.598 362.384 201.507C361.608 201.015 360.811 200.525 359.995 200.036C358.978 199.429 357.928 198.822 356.846 198.217L348.142 187.503L343.81 185.894L340.271 182.13L338.669 183.98L346.241 193.302C343.442 192.258 341.142 191.722 339.322 191.672C337.518 191.638 336.303 192.08 335.711 193.023C335.124 193.969 335.231 195.43 336.054 197.432C336.865 199.422 338.569 202.013 341.161 205.203C344.679 209.53 348.25 213.293 351.887 216.495C355.51 219.688 359.063 222.505 362.548 224.933C365.052 226.685 367.498 228.27 369.878 229.698C370.808 230.256 371.735 230.787 372.65 231.293C375.892 233.095 378.884 234.75 381.622 236.257C382.986 237.007 384.283 237.752 385.516 238.487C386.749 239.221 387.91 239.948 389.004 240.668C391.181 242.097 392.923 243.607 394.22 245.206C394.999 246.17 395.301 246.906 395.127 247.421C394.935 247.925 393.93 247.841 392.1 247.161C390.666 246.626 389.075 245.837 387.336 244.8C385.831 243.901 384.212 242.81 382.477 241.527C378.737 238.771 375.099 235.512 371.596 231.787L365.177 229.399L361.054 225.416L359.452 227.265L378.942 251.248L391.072 255.761L392.069 254.605C393.285 255.381 394.454 256.105 395.571 256.775C397.05 257.66 398.447 258.455 399.759 259.15L407.875 269.14L417.357 272.669L418.959 270.819L413.974 268.513L413.976 268.521Z" fill="url(#paint29_linear_2007_4)"/>
<path d="M349.744 185.653L340.272 182.13L347.843 191.452C345.044 190.408 342.744 189.873 340.924 189.823C339.121 189.789 337.905 190.23 337.314 191.174C336.727 192.12 336.838 193.584 337.656 195.583C338.467 197.573 340.171 200.164 342.763 203.354C346.286 207.683 349.852 211.444 353.49 214.646C357.113 217.839 360.666 220.656 364.15 223.083C366.655 224.836 369.1 226.421 371.481 227.849C372.411 228.407 373.337 228.938 374.252 229.444C377.494 231.246 380.486 232.901 383.224 234.407C384.588 235.158 385.885 235.903 387.116 236.643C388.349 237.377 389.51 238.103 390.604 238.824C392.78 240.252 394.522 241.762 395.82 243.361C396.599 244.326 396.9 245.062 396.727 245.577C396.534 246.08 395.53 245.996 393.7 245.316C392.266 244.781 390.674 243.993 388.93 242.953C387.426 242.054 385.802 240.96 384.072 239.68C380.331 236.924 376.699 233.668 373.191 229.94L361.046 225.418L380.537 249.401L392.667 253.914L389.522 250.038C392.288 251.905 394.831 253.532 397.17 254.93C398.65 255.816 400.047 256.61 401.359 257.306L409.475 267.296L418.957 270.824L411.557 261.719C414.246 262.619 416.539 263.144 418.441 263.297C420.343 263.451 421.625 263.097 422.268 262.221C422.923 261.357 422.849 259.94 422.05 257.976C421.24 256.007 419.51 253.394 416.866 250.137C413.292 245.741 409.654 241.902 405.944 238.615C402.24 235.338 398.629 232.476 395.113 230.037C392.622 228.306 390.191 226.728 387.798 225.3C386.81 224.709 385.829 224.14 384.855 223.602C381.533 221.762 378.485 220.069 375.706 218.533C374.08 217.636 372.564 216.769 371.143 215.916C370.13 215.311 369.165 214.713 368.254 214.133C366.068 212.744 364.33 211.25 363.04 209.661C361.98 208.354 361.674 207.558 362.105 207.232C362.555 206.93 363.532 207.05 365.067 207.622C366.266 208.064 367.713 208.791 369.355 209.773C371.014 210.772 372.687 211.893 374.412 213.17C376.131 214.438 377.86 215.845 379.593 217.383C381.336 218.925 382.907 220.479 384.329 222.071L396.611 226.644L377.558 203.2L365.293 198.643L368.53 202.628C367.245 201.736 365.726 200.74 363.992 199.648C363.215 199.156 362.419 198.666 361.603 198.177C360.586 197.57 359.536 196.963 358.454 196.358L349.75 185.644L349.744 185.653Z" fill="url(#paint30_linear_2007_4)"/>
<path style="mix-blend-mode:multiply" d="M295.429 150.022L295.419 150.016L292.772 151.205C292.102 151.435 291.479 151.705 290.926 152.033L290.868 152.057L290.86 152.072C290.186 152.491 289.619 153.002 289.117 153.569L289.079 153.535L270.846 174.605L270.86 174.613C270.521 175.003 270.247 175.436 269.987 175.889L269.968 175.879L269.928 175.971C269.589 176.578 269.324 177.245 269.125 177.975L267.303 182.518L267.322 182.542C264.101 190.928 272.012 208.583 291.239 232.239C317.47 264.524 356.992 298.429 389.637 317.953C398.863 323.466 407.542 327.839 415.213 330.698C426.083 334.742 433.653 335.276 437.899 332.835L437.907 332.833L441.521 330.656C442.632 330.252 443.541 329.665 444.32 328.967L444.715 328.729L444.638 328.66C444.845 328.451 445.096 328.286 445.276 328.055L445.291 328.064L463.392 307.149L463.323 307.091C463.711 306.614 464.092 306.126 464.368 305.554L464.391 305.547L464.446 305.368C464.777 304.629 465.041 303.828 465.189 302.936L466.139 299.816L466.119 299.805C468.815 291.208 460.838 273.808 442.021 250.649C415.785 218.361 376.266 184.452 343.622 164.935C334.394 159.414 325.718 155.05 318.044 152.195C307.218 148.164 299.683 147.623 295.421 150.024L295.429 150.022Z" fill="url(#paint31_linear_2007_4)"/>
<defs>
<linearGradient id="paint0_linear_2007_4" x1="146.949" y1="198.308" x2="25.9418" y2="216.523" gradientUnits="userSpaceOnUse">
<stop offset="0.16" stop-color="#FFF8C7"/>
<stop offset="0.2" stop-color="#FEF5C1"/>
<stop offset="0.25" stop-color="#FEEFB1"/>
<stop offset="0.3" stop-color="#FDE596"/>
<stop offset="0.36" stop-color="#FDD870"/>
<stop offset="0.42" stop-color="#FBC641"/>
<stop offset="0.47" stop-color="#FBB718"/>
<stop offset="0.54" stop-color="#B15D1F"/>
<stop offset="0.56" stop-color="#9E4522"/>
<stop offset="0.61" stop-color="#A04A23"/>
<stop offset="0.65" stop-color="#DB9723"/>
<stop offset="0.66" stop-color="#FDC223"/>
<stop offset="0.81" stop-color="#E89C23"/>
<stop offset="0.82" stop-color="#ECAA31"/>
<stop offset="0.84" stop-color="#F3C147"/>
<stop offset="0.85" stop-color="#F8D157"/>
<stop offset="0.87" stop-color="#FCDA61"/>
<stop offset="0.9" stop-color="#FDDE64"/>
<stop offset="1" stop-color="#FCC744"/>
</linearGradient>
<linearGradient id="paint1_linear_2007_4" x1="26.5494" y1="190.421" x2="146.509" y2="223.192" gradientUnits="userSpaceOnUse">
<stop stop-color="#EBAB21"/>
<stop offset="0.08" stop-color="#FFC62A"/>
<stop offset="0.15" stop-color="#FFD75A"/>
<stop offset="0.41" stop-color="#FFF5A6"/>
<stop offset="0.42" stop-color="#FEF0A0"/>
<stop offset="0.44" stop-color="#FCE490"/>
<stop offset="0.47" stop-color="#F9CF75"/>
<stop offset="0.49" stop-color="#F5B34F"/>
<stop offset="0.52" stop-color="#F08F21"/>
<stop offset="0.56" stop-color="#C95127"/>
<stop offset="0.61" stop-color="#A14F24"/>
<stop offset="0.65" stop-color="#EAA622"/>
<stop offset="0.66" stop-color="#F1B637"/>
<stop offset="0.67" stop-color="#F8C84F"/>
<stop offset="0.68" stop-color="#FDD35D"/>
<stop offset="0.69" stop-color="#FFD762"/>
<stop offset="0.73" stop-color="#FFD660"/>
<stop offset="0.75" stop-color="#FFD559"/>
<stop offset="0.76" stop-color="#FFD24D"/>
<stop offset="0.77" stop-color="#FFCC2C"/>
<stop offset="0.78" stop-color="#FBC52B"/>
<stop offset="0.8" stop-color="#F2B429"/>
<stop offset="0.82" stop-color="#E6A133"/>
<stop offset="0.83" stop-color="#F5CB5D"/>
<stop offset="0.84" stop-color="#F9D86B"/>
<stop offset="0.85" stop-color="#FCDF72"/>
<stop offset="0.86" stop-color="#FDE275"/>
<stop offset="0.94" stop-color="#FDE47F"/>
<stop offset="1" stop-color="#FED84C"/>
</linearGradient>
<linearGradient id="paint2_linear_2007_4" x1="148.939" y1="191.033" x2="27.9326" y2="209.248" gradientUnits="userSpaceOnUse">
<stop offset="0.16" stop-color="#DD8326"/>
<stop offset="0.21" stop-color="#DF8824"/>
<stop offset="0.27" stop-color="#E69821"/>
<stop offset="0.35" stop-color="#F1B31B"/>
<stop offset="0.37" stop-color="#F6BD1A"/>
<stop offset="0.43" stop-color="#F4AD1C"/>
<stop offset="0.47" stop-color="#F4A01E"/>
<stop offset="0.54" stop-color="#9E4322"/>
<stop offset="0.61" stop-color="#A04A23"/>
<stop offset="0.71" stop-color="#FFC527"/>
<stop offset="1" stop-color="#B56628"/>
</linearGradient>
<linearGradient id="paint3_linear_2007_4" x1="137.264" y1="191.354" x2="40.4117" y2="205.933" gradientUnits="userSpaceOnUse">
<stop offset="0.16" stop-color="#D07D28"/>
<stop offset="0.23" stop-color="#CB7727"/>
<stop offset="0.31" stop-color="#BD6725"/>
<stop offset="0.41" stop-color="#A64C22"/>
<stop offset="0.43" stop-color="#9E4322"/>
<stop offset="0.61" stop-color="#A04A23"/>
<stop offset="1" stop-color="#BB5427"/>
</linearGradient>
<radialGradient id="paint4_radial_2007_4" cx="0" cy="0" r="1" gradientUnits="userSpaceOnUse" gradientTransform="translate(85.1783 199.517) rotate(171.44) scale(48.7574)">
<stop stop-color="#DDA027"/>
<stop offset="1" stop-color="#C87729"/>
</radialGradient>
<radialGradient id="paint5_radial_2007_4" cx="0" cy="0" r="1" gradientUnits="userSpaceOnUse" gradientTransform="translate(84.2174 163.572) rotate(171.44) scale(76.2866)">
<stop stop-color="white"/>
<stop offset="0.66" stop-color="white"/>
<stop offset="0.77" stop-color="white"/>
<stop offset="0.85" stop-color="#FEFDFD"/>
<stop offset="0.89" stop-color="#FCF8F6"/>
<stop offset="0.91" stop-color="#F8F0EA"/>
<stop offset="0.93" stop-color="#F2E4D9"/>
<stop offset="0.95" stop-color="#EBD5C3"/>
<stop offset="0.96" stop-color="#E3C2A7"/>
<stop offset="0.97" stop-color="#D8AB87"/>
<stop offset="0.99" stop-color="#CC9061"/>
<stop offset="1" stop-color="#BA6928"/>
</radialGradient>
<linearGradient id="paint6_linear_2007_4" x1="97.2837" y1="254.464" x2="80.3932" y2="142.256" gradientUnits="userSpaceOnUse">
<stop stop-color="#EEA620"/>
<stop offset="0.41" stop-color="#FFC60A"/>
<stop offset="0.53" stop-color="#FCC00C"/>
<stop offset="0.7" stop-color="#F5B012"/>
<stop offset="0.88" stop-color="#E9951D"/>
<stop offset="1" stop-color="#E08126"/>
</linearGradient>
<linearGradient id="paint7_linear_2007_4" x1="102.439" y1="146.516" x2="73.092" y2="253.942" gradientUnits="userSpaceOnUse">
<stop offset="0.16" stop-color="#C87829"/>
<stop offset="0.26" stop-color="#C37228"/>
<stop offset="0.38" stop-color="#B66226"/>
<stop offset="0.52" stop-color="#A14722"/>
<stop offset="0.54" stop-color="#9E4322"/>
<stop offset="0.61" stop-color="#A04A23"/>
<stop offset="0.71" stop-color="#B35E27"/>
<stop offset="1" stop-color="#9E5B25"/>
</linearGradient>
<linearGradient id="paint8_linear_2007_4" x1="101.894" y1="148.51" x2="73.3548" y2="252.978" gradientUnits="userSpaceOnUse">
<stop stop-color="#EEA620"/>
<stop offset="0.41" stop-color="#FFC60A"/>
<stop offset="0.52" stop-color="#FCC00D"/>
<stop offset="0.66" stop-color="#F5B016"/>
<stop offset="0.77" stop-color="#EE9F21"/>
<stop offset="1" stop-color="#C16D29"/>
</linearGradient>
<linearGradient id="paint9_linear_2007_4" x1="72.8819" y1="191.889" x2="72.2347" y2="194.258" gradientUnits="userSpaceOnUse">
<stop stop-color="#B7B7B8"/>
<stop offset="1" stop-color="#010101"/>
</linearGradient>
<linearGradient id="paint10_linear_2007_4" x1="108.253" y1="164.745" x2="54.795" y2="264.889" gradientUnits="userSpaceOnUse">
<stop stop-color="white"/>
<stop offset="0.11" stop-color="#FCFAF9"/>
<stop offset="0.24" stop-color="#F5ECEB"/>
<stop offset="0.39" stop-color="#E9D5D2"/>
<stop offset="0.54" stop-color="#D8B5B0"/>
<stop offset="0.7" stop-color="#C38C85"/>
<stop offset="0.86" stop-color="#A95B50"/>
<stop offset="1" stop-color="#902B1D"/>
</linearGradient>
<linearGradient id="paint11_linear_2007_4" x1="232.227" y1="146.131" x2="105.842" y2="42.6491" gradientUnits="userSpaceOnUse">
<stop offset="0.16" stop-color="#DD8326"/>
<stop offset="0.21" stop-color="#DF8824"/>
<stop offset="0.27" stop-color="#E69821"/>
<stop offset="0.35" stop-color="#F1B31B"/>
<stop offset="0.37" stop-color="#F6BD1A"/>
<stop offset="0.43" stop-color="#F4AD1C"/>
<stop offset="0.47" stop-color="#F4A01E"/>
<stop offset="0.54" stop-color="#9E4322"/>
<stop offset="0.61" stop-color="#A04A23"/>
<stop offset="0.71" stop-color="#FFC527"/>
<stop offset="1" stop-color="#B56628"/>
</linearGradient>
<linearGradient id="paint12_linear_2007_4" x1="171.148" y1="189.329" x2="160.616" y2="0.362605" gradientUnits="userSpaceOnUse">
<stop stop-color="#EBAB21"/>
<stop offset="0.08" stop-color="#FFC62A"/>
<stop offset="0.15" stop-color="#FFD75A"/>
<stop offset="0.41" stop-color="#FFF5A6"/>
<stop offset="0.42" stop-color="#FEF0A0"/>
<stop offset="0.44" stop-color="#FCE490"/>
<stop offset="0.47" stop-color="#F9CF75"/>
<stop offset="0.49" stop-color="#F5B34F"/>
<stop offset="0.52" stop-color="#F08F21"/>
<stop offset="0.56" stop-color="#C95127"/>
<stop offset="0.61" stop-color="#A14F24"/>
<stop offset="0.65" stop-color="#EAA622"/>
<stop offset="0.66" stop-color="#F1B637"/>
<stop offset="0.67" stop-color="#F8C84F"/>
<stop offset="0.68" stop-color="#FDD35D"/>
<stop offset="0.69" stop-color="#FFD762"/>
<stop offset="0.73" stop-color="#FFD660"/>
<stop offset="0.75" stop-color="#FFD559"/>
<stop offset="0.76" stop-color="#FFD24D"/>
<stop offset="0.77" stop-color="#FFCC2C"/>
<stop offset="0.78" stop-color="#FBC52B"/>
<stop offset="0.8" stop-color="#F2B429"/>
<stop offset="0.82" stop-color="#E6A133"/>
<stop offset="0.83" stop-color="#F5CB5D"/>
<stop offset="0.84" stop-color="#F9D86B"/>
<stop offset="0.85" stop-color="#FCDF72"/>
<stop offset="0.86" stop-color="#FDE275"/>
<stop offset="0.94" stop-color="#FDE47F"/>
<stop offset="1" stop-color="#FED84C"/>
</linearGradient>
<linearGradient id="paint13_linear_2007_4" x1="215.724" y1="148.026" x2="87.106" y2="42.7158" gradientUnits="userSpaceOnUse">
<stop offset="0.16" stop-color="#FFF8C7"/>
<stop offset="0.2" stop-color="#FEF5C1"/>
<stop offset="0.25" stop-color="#FEEFB1"/>
<stop offset="0.3" stop-color="#FDE596"/>
<stop offset="0.36" stop-color="#FDD870"/>
<stop offset="0.42" stop-color="#FBC641"/>
<stop offset="0.47" stop-color="#FBB718"/>
<stop offset="0.56" stop-color="#B15D1F"/>
<stop offset="0.58" stop-color="#9E4522"/>
<stop offset="0.63" stop-color="#A04A23"/>
<stop offset="0.68" stop-color="#DB9723"/>
<stop offset="0.7" stop-color="#FDC223"/>
<stop offset="0.81" stop-color="#E89C23"/>
<stop offset="0.82" stop-color="#ECAA31"/>
<stop offset="0.84" stop-color="#F3C147"/>
<stop offset="0.86" stop-color="#F8D157"/>
<stop offset="0.88" stop-color="#FCDA61"/>
<stop offset="0.9" stop-color="#FDDE64"/>
<stop offset="1" stop-color="#FCC744"/>
</linearGradient>
<linearGradient id="paint14_linear_2007_4" x1="197.29" y1="137.356" x2="95.4077" y2="53.9366" gradientUnits="userSpaceOnUse">
<stop offset="0.16" stop-color="#D07D28"/>
<stop offset="0.25" stop-color="#CB7727"/>
<stop offset="0.37" stop-color="#BD6725"/>
<stop offset="0.5" stop-color="#A64C22"/>
<stop offset="0.54" stop-color="#9E4322"/>
<stop offset="0.61" stop-color="#A04A23"/>
<stop offset="0.71" stop-color="#FEBB12"/>
<stop offset="1" stop-color="#9E5B25"/>
</linearGradient>
<radialGradient id="paint15_radial_2007_4" cx="0" cy="0" r="1" gradientUnits="userSpaceOnUse" gradientTransform="translate(151.412 95.3686) rotate(-140.69) scale(65.7081 65.7081)">
<stop stop-color="#FDDE6F"/>
<stop offset="1" stop-color="#F1AD1D"/>
</radialGradient>
<radialGradient id="paint16_radial_2007_4" cx="0" cy="0" r="1" gradientUnits="userSpaceOnUse" gradientTransform="translate(157.721 94.1322) scale(75.0097 75.0096)">
<stop offset="0.06" stop-color="white"/>
<stop offset="0.67" stop-color="white"/>
<stop offset="0.77" stop-color="white"/>
<stop offset="0.85" stop-color="#FEFDFD"/>
<stop offset="0.89" stop-color="#FCF8F6"/>
<stop offset="0.91" stop-color="#F8F0EA"/>
<stop offset="0.93" stop-color="#F2E4D9"/>
<stop offset="0.95" stop-color="#EBD5C3"/>
<stop offset="0.96" stop-color="#E3C2A7"/>
<stop offset="0.97" stop-color="#D8AB87"/>
<stop offset="0.99" stop-color="#CC9061"/>
<stop offset="1" stop-color="#BA6928"/>
</radialGradient>
<linearGradient id="paint17_linear_2007_4" x1="97.368" y1="158.319" x2="199.434" y2="33.663" gradientUnits="userSpaceOnUse">
<stop stop-color="#FFDB67"/>
<stop offset="0.41" stop-color="#FEEE7F"/>
<stop offset="0.47" stop-color="#FDEB79"/>
<stop offset="0.54" stop-color="#FDE569"/>
<stop offset="0.63" stop-color="#FDDA4E"/>
<stop offset="0.72" stop-color="#FDCB29"/>
<stop offset="0.77" stop-color="#FDC212"/>
<stop offset="0.86" stop-color="#FEDA4F"/>
<stop offset="0.94" stop-color="#FDDC58"/>
</linearGradient>
<linearGradient id="paint18_linear_2007_4" x1="82.1291" y1="100.086" x2="218.345" y2="92.4944" gradientUnits="userSpaceOnUse">
<stop offset="0.16" stop-color="#C87829"/>
<stop offset="0.26" stop-color="#C37228"/>
<stop offset="0.38" stop-color="#B66226"/>
<stop offset="0.52" stop-color="#A14722"/>
<stop offset="0.54" stop-color="#9E4322"/>
<stop offset="0.61" stop-color="#A04A23"/>
<stop offset="0.71" stop-color="#B35E27"/>
<stop offset="1" stop-color="#9E5B25"/>
</linearGradient>
<linearGradient id="paint19_linear_2007_4" x1="79.6807" y1="100.221" x2="215.897" y2="92.6295" gradientUnits="userSpaceOnUse">
<stop stop-color="#FEE38C"/>
<stop offset="0.41" stop-color="#FFF5A6"/>
<stop offset="0.46" stop-color="#FFF3A0"/>
<stop offset="0.53" stop-color="#FFED90"/>
<stop offset="0.61" stop-color="#FFE475"/>
<stop offset="0.7" stop-color="#FFD850"/>
<stop offset="0.77" stop-color="#FFCC2C"/>
<stop offset="0.86" stop-color="#FDE275"/>
<stop offset="0.94" stop-color="#FDE47F"/>
</linearGradient>
<linearGradient id="paint20_linear_2007_4" x1="174.007" y1="129.029" x2="156.067" y2="110.849" gradientUnits="userSpaceOnUse">
<stop stop-color="#B7B7B8"/>
<stop offset="1" stop-color="#010101"/>
</linearGradient>
<linearGradient id="paint21_linear_2007_4" x1="201.75" y1="142.498" x2="159.061" y2="105.386" gradientUnits="userSpaceOnUse">
<stop stop-color="#B7B7B8"/>
<stop offset="1" stop-color="#010101"/>
</linearGradient>
<linearGradient id="paint22_linear_2007_4" x1="269.146" y1="181.965" x2="441.473" y2="331.09" gradientUnits="userSpaceOnUse">
<stop offset="0.16" stop-color="#FFF8C7"/>
<stop offset="0.2" stop-color="#FEF5C1"/>
<stop offset="0.25" stop-color="#FEEFB1"/>
<stop offset="0.3" stop-color="#FDE596"/>
<stop offset="0.36" stop-color="#FDD870"/>
<stop offset="0.42" stop-color="#FBC641"/>
<stop offset="0.47" stop-color="#FBB718"/>
<stop offset="0.54" stop-color="#B15D1F"/>
<stop offset="0.56" stop-color="#9E4522"/>
<stop offset="0.61" stop-color="#A04A23"/>
<stop offset="0.65" stop-color="#DB9723"/>
<stop offset="0.66" stop-color="#FDC223"/>
<stop offset="0.81" stop-color="#E89C23"/>
<stop offset="0.82" stop-color="#ECAA31"/>
<stop offset="0.84" stop-color="#F3C147"/>
<stop offset="0.85" stop-color="#F8D157"/>
<stop offset="0.87" stop-color="#FCDA61"/>
<stop offset="0.9" stop-color="#FDDE64"/>
<stop offset="1" stop-color="#FCC744"/>
</linearGradient>
<linearGradient id="paint23_linear_2007_4" x1="271.97" y1="173.313" x2="447.662" y2="325.349" gradientUnits="userSpaceOnUse">
<stop stop-color="#EBAB21"/>
<stop offset="0.08" stop-color="#FFC62A"/>
<stop offset="0.15" stop-color="#FFD75A"/>
<stop offset="0.41" stop-color="#FFF5A6"/>
<stop offset="0.42" stop-color="#FEF0A0"/>
<stop offset="0.44" stop-color="#FCE490"/>
<stop offset="0.47" stop-color="#F9CF75"/>
<stop offset="0.49" stop-color="#F5B34F"/>
<stop offset="0.52" stop-color="#F08F21"/>
<stop offset="0.56" stop-color="#C95127"/>
<stop offset="0.61" stop-color="#A14F24"/>
<stop offset="0.65" stop-color="#EAA622"/>
<stop offset="0.66" stop-color="#F1B637"/>
<stop offset="0.67" stop-color="#F8C84F"/>
<stop offset="0.68" stop-color="#FDD35D"/>
<stop offset="0.69" stop-color="#FFD762"/>
<stop offset="0.73" stop-color="#FFD660"/>
<stop offset="0.75" stop-color="#FFD559"/>
<stop offset="0.76" stop-color="#FFD24D"/>
<stop offset="0.77" stop-color="#FFCC2C"/>
<stop offset="0.78" stop-color="#FBC52B"/>
<stop offset="0.8" stop-color="#F2B429"/>
<stop offset="0.82" stop-color="#E6A133"/>
<stop offset="0.83" stop-color="#F5CB5D"/>
<stop offset="0.84" stop-color="#F9D86B"/>
<stop offset="0.85" stop-color="#FCDF72"/>
<stop offset="0.86" stop-color="#FDE275"/>
<stop offset="0.94" stop-color="#FDE47F"/>
<stop offset="1" stop-color="#FED84C"/>
</linearGradient>
<linearGradient id="paint24_linear_2007_4" x1="286.6" y1="152.889" x2="466.185" y2="308.294" gradientUnits="userSpaceOnUse">
<stop offset="0.16" stop-color="#DD8326"/>
<stop offset="0.21" stop-color="#DF8824"/>
<stop offset="0.27" stop-color="#E69821"/>
<stop offset="0.35" stop-color="#F1B31B"/>
<stop offset="0.37" stop-color="#F6BD1A"/>
<stop offset="0.43" stop-color="#F4AD1C"/>
<stop offset="0.47" stop-color="#F4A01E"/>
<stop offset="0.54" stop-color="#9E4322"/>
<stop offset="0.61" stop-color="#A04A23"/>
<stop offset="0.71" stop-color="#FEBB12"/>
<stop offset="0.76" stop-color="#F8B313"/>
<stop offset="0.84" stop-color="#E79E18"/>
<stop offset="0.93" stop-color="#CD7D20"/>
<stop offset="1" stop-color="#B66027"/>
</linearGradient>
<linearGradient id="paint25_linear_2007_4" x1="311.035" y1="169.453" x2="444.388" y2="284.852" gradientUnits="userSpaceOnUse">
<stop offset="0.16" stop-color="#D07D28"/>
<stop offset="0.23" stop-color="#CB7727"/>
<stop offset="0.31" stop-color="#BD6725"/>
<stop offset="0.41" stop-color="#A64C22"/>
<stop offset="0.43" stop-color="#9E4322"/>
<stop offset="0.61" stop-color="#A04A23"/>
<stop offset="1" stop-color="#BB5427"/>
</linearGradient>
<radialGradient id="paint26_radial_2007_4" cx="0" cy="0" r="1" gradientUnits="userSpaceOnUse" gradientTransform="translate(402.183 201.598) rotate(40.8716) scale(88.4236 21.2216)">
<stop stop-color="#D1972A"/>
<stop offset="1" stop-color="#BE7129"/>
</radialGradient>
<radialGradient id="paint27_radial_2007_4" cx="0" cy="0" r="1" gradientUnits="userSpaceOnUse" gradientTransform="translate(375.467 231.182) rotate(40.8716) scale(94.3511 30.1923)">
<stop stop-color="white"/>
<stop offset="0.4" stop-color="white"/>
<stop offset="0.47" stop-color="white"/>
<stop offset="0.67" stop-color="#FEFDFD"/>
<stop offset="0.74" stop-color="#FCF8F6"/>
<stop offset="0.8" stop-color="#F8F0EA"/>
<stop offset="0.84" stop-color="#F2E4D9"/>
<stop offset="0.88" stop-color="#EBD5C3"/>
<stop offset="0.91" stop-color="#E3C2A7"/>
<stop offset="0.94" stop-color="#D8AB87"/>
<stop offset="0.97" stop-color="#CC9061"/>
<stop offset="0.99" stop-color="#BF7437"/>
<stop offset="1" stop-color="#BA6928"/>
</radialGradient>
<linearGradient id="paint28_linear_2007_4" x1="348.262" y1="256.826" x2="400.517" y2="206.998" gradientUnits="userSpaceOnUse">
<stop stop-color="#E79824"/>
<stop offset="0.44" stop-color="#E48E25"/>
<stop offset="1" stop-color="#B85C27"/>
</linearGradient>
<linearGradient id="paint29_linear_2007_4" x1="333.428" y1="190.033" x2="422.308" y2="266.947" gradientUnits="userSpaceOnUse">
<stop offset="0.01" stop-color="#A14323"/>
<stop offset="0.06" stop-color="#A54B24"/>
<stop offset="0.13" stop-color="#B06227"/>
<stop offset="0.16" stop-color="#B66D29"/>
<stop offset="0.27" stop-color="#B26728"/>
<stop offset="0.41" stop-color="#A95725"/>
<stop offset="0.54" stop-color="#9E4322"/>
<stop offset="0.61" stop-color="#A04A23"/>
<stop offset="0.71" stop-color="#B35E27"/>
<stop offset="1" stop-color="#9E5B25"/>
</linearGradient>
<linearGradient id="paint30_linear_2007_4" x1="392.437" y1="211.655" x2="361.297" y2="247.639" gradientUnits="userSpaceOnUse">
<stop stop-color="#EEA620"/>
<stop offset="0.41" stop-color="#FFC60A"/>
<stop offset="0.52" stop-color="#FCC00D"/>
<stop offset="0.66" stop-color="#F5B016"/>
<stop offset="0.77" stop-color="#EE9F21"/>
<stop offset="1" stop-color="#C16D29"/>
</linearGradient>
<linearGradient id="paint31_linear_2007_4" x1="422.458" y1="224.108" x2="550.904" y2="184.306" gradientUnits="userSpaceOnUse">
<stop stop-color="white"/>
<stop offset="0.11" stop-color="#FCFAF9"/>
<stop offset="0.24" stop-color="#F5ECEB"/>
<stop offset="0.39" stop-color="#E9D5D2"/>
<stop offset="0.54" stop-color="#D8B5B0"/>
<stop offset="0.7" stop-color="#C38C85"/>
<stop offset="0.86" stop-color="#A95B50"/>
<stop offset="1" stop-color="#902B1D"/>
</linearGradient>
</defs>
</svg>
