<svg width="84" height="59" viewBox="0 0 84 59" fill="none" xmlns="http://www.w3.org/2000/svg">
<path d="M1.64063 44.5912C-5.20293 48.3129 -9.42904 53.761 -7.79723 56.7603C-6.16639 59.7597 0.704169 59.1752 7.54773 55.4535C14.3894 51.7328 18.6155 46.2847 16.9837 43.2844C15.3519 40.2841 8.48226 40.8695 1.64063 44.5902V44.5912Z" fill="url(#paint0_linear_2008_7)"/>
<path d="M-8.14966 52.5453C-6.85926 49.7157 -3.39794 46.4038 1.25156 43.8751C5.90009 41.3473 10.5602 40.2431 13.6367 40.6983L15.3437 39.7695L16.9129 42.657C16.9186 42.6667 16.9244 42.6763 16.9302 42.686C16.936 42.6956 16.9408 42.7062 16.9456 42.7168L16.964 42.7506H16.963C18.5283 45.8146 14.2433 51.3041 7.33419 55.0615C0.42601 58.8179 -6.50724 59.4313 -8.23164 56.457H-8.23356L-9.85669 53.474L-8.14966 52.5453Z" fill="url(#paint1_linear_2008_7)"/>
<path d="M-0.25876 41.0971C-7.21805 44.8815 -11.5155 50.4222 -9.85671 53.4726C-8.1979 56.5231 -1.21161 55.9281 5.74768 52.1437C12.706 48.3602 17.0025 42.8196 15.3437 39.7691C13.6849 36.7186 6.6986 37.3137 -0.25876 41.0971Z" fill="url(#paint2_linear_2008_7)"/>
<path d="M-8.22453 51.9621C-6.86855 54.4561 -0.975912 53.8707 4.93698 50.6553C10.8499 47.4399 14.5436 42.8117 13.1876 40.3186C11.8317 37.8246 5.93902 38.41 0.0261278 41.6254C-5.88676 44.8408 -9.58051 49.4691 -8.22453 51.9621Z" fill="url(#paint3_linear_2008_7)"/>
<path d="M-7.10587 51.8127C-5.85598 54.1109 -0.464841 53.593 4.9369 50.6554C10.3386 47.7187 13.7035 43.4743 12.4546 41.1761C11.2047 38.8778 5.81357 39.3957 0.411823 42.3334C-4.98992 45.271 -8.3548 49.5145 -7.10587 51.8127Z" fill="url(#paint4_radial_2008_7)"/>
<path style="mix-blend-mode:multiply" d="M-7.10587 51.8127C-5.85598 54.1109 -0.464841 53.593 4.9369 50.6554C10.3386 47.7187 13.7035 43.4743 12.4546 41.1761C11.2047 38.8778 5.81357 39.3957 0.411823 42.3334C-4.98992 45.271 -8.3548 49.5145 -7.10587 51.8127Z" fill="url(#paint5_radial_2008_7)"/>
<path d="M4.86513 50.5197C-0.536617 53.4573 -5.95957 53.9193 -7.24708 51.5516C-8.53459 49.184 -5.19864 44.8836 0.2031 41.946C5.60291 39.0093 11.0259 38.5473 12.3134 40.915C13.6009 43.2826 10.2649 47.583 4.86513 50.5197ZM-0.419921 40.8012C-7.26348 44.5229 -11.4896 49.9709 -9.85778 52.9713C-8.22694 55.9706 -1.35638 55.3862 5.48718 51.6645C12.3288 47.9437 16.5549 42.4957 14.9231 39.4953C13.2913 36.495 6.42171 37.0804 -0.419921 40.8012Z" fill="url(#paint6_linear_2008_7)"/>
<path d="M1.93951 42.9116L0.0762374 43.9252L0.443683 44.6003C-0.107003 44.9002 -0.613324 45.2185 -1.07914 45.557C-1.54496 45.8955 -1.93748 46.2292 -2.25478 46.5581C-2.57014 46.885 -2.79389 47.1994 -2.92505 47.4984C-3.05621 47.7964 -3.05814 48.0616 -2.93277 48.2921C-2.76207 48.6065 -2.48045 48.7801 -2.08504 48.8139C-1.69059 48.8476 -1.24985 48.8081 -0.760883 48.6952C-0.271919 48.5814 0.24212 48.4194 0.776411 48.2082C1.31167 47.997 1.80545 47.8022 2.25777 47.6218C2.71008 47.4424 3.09874 47.3055 3.42086 47.2148C3.74395 47.1223 3.93683 47.1338 3.99952 47.2496C4.03713 47.319 3.98891 47.4299 3.85389 47.5813C3.71694 47.7337 3.46908 47.9073 3.10839 48.104C2.58278 48.3895 2.07067 48.5756 1.5711 48.6644C1.07249 48.7512 0.686719 48.7058 0.414752 48.5274L-1.97028 49.8246L-1.02513 51.5625L1.35989 50.2653L1.20654 49.9837C1.85946 49.812 2.46898 49.6085 3.03799 49.3732L3.43147 50.0975L5.29474 49.0839L4.93598 48.4242C5.48088 48.1146 5.9872 47.7945 6.45687 47.4646C6.92655 47.1348 7.32293 46.8069 7.64119 46.4848C7.96138 46.1607 8.18512 45.8521 8.31532 45.558C8.44359 45.2638 8.44359 44.9986 8.31532 44.7623C8.14172 44.4431 7.85529 44.2647 7.45505 44.2271C7.05482 44.1904 6.60636 44.2299 6.10968 44.3466C5.61493 44.4624 5.09414 44.6282 4.54539 44.8452C3.99759 45.0622 3.49319 45.2609 3.03509 45.4432C2.57506 45.6264 2.17965 45.7682 1.85174 45.8685C1.52191 45.9698 1.32613 45.962 1.26344 45.8463C1.21233 45.7528 1.2702 45.6284 1.43994 45.4721C1.60775 45.3168 1.8421 45.1568 2.14107 44.9938C2.38025 44.8636 2.62907 44.7536 2.88946 44.663C3.14889 44.5713 3.3929 44.5077 3.62147 44.4682C3.8481 44.4296 4.05738 44.418 4.24448 44.4363C4.43351 44.4537 4.57528 44.5067 4.67173 44.5974L7.08375 43.2858L6.1608 41.5884L3.74877 42.9L3.90597 43.1893C3.72273 43.2347 3.49898 43.2973 3.23666 43.3793C2.97241 43.4623 2.67922 43.5664 2.36 43.6908L1.93758 42.9154L1.93951 42.9116Z" fill="url(#paint7_linear_2008_7)"/>
<path d="M1.79181 42.6396L-0.0714562 43.6522L0.29599 44.3273C-0.254697 44.6263 -0.761018 44.9455 -1.22684 45.2841C-1.69265 45.6226 -2.08517 45.9563 -2.4015 46.2851C-2.71687 46.6121 -2.94062 46.9265 -3.07178 47.2254C-3.20294 47.5234 -3.20487 47.7887 -3.0795 48.0192C-2.90879 48.3336 -2.62718 48.5072 -2.2308 48.5409C-1.83635 48.5747 -1.39561 48.5351 -0.906646 48.4223C-0.417682 48.3085 0.0963566 48.1465 0.630648 47.9353C1.1659 47.724 1.65969 47.5292 2.112 47.3489C2.56432 47.1695 2.95298 47.0325 3.2751 46.9419C3.59818 46.8493 3.79107 46.8609 3.85376 46.9766C3.89137 47.046 3.84315 47.157 3.70813 47.3084C3.57118 47.4608 3.32332 47.6344 2.96263 47.8311C2.43798 48.1166 1.92491 48.3037 1.42533 48.3914C0.926726 48.4782 0.540956 48.4329 0.268989 48.2545L-2.11603 49.5516L-1.1709 51.2895L1.21412 49.9924L1.06078 49.7108C1.7137 49.5391 2.32322 49.3356 2.89223 49.1003L3.28571 49.8246L5.14898 48.8109L4.79021 48.1513C5.33511 47.8417 5.84144 47.5215 6.31111 47.1917C6.78079 46.8619 7.17717 46.5339 7.49543 46.2118C7.81561 45.8878 8.03936 45.5792 8.17052 45.285C8.29879 44.9909 8.29879 44.7257 8.17052 44.4894C7.99693 44.1701 7.71049 43.9917 7.31026 43.9541C6.91002 43.9175 6.46156 43.957 5.96488 44.0737C5.47013 44.1894 4.94935 44.3563 4.40059 44.5723C3.8528 44.7893 3.3484 44.988 2.8903 45.1702C2.43026 45.3535 2.03485 45.4943 1.70694 45.5956C1.37711 45.6959 1.18133 45.6891 1.11865 45.5734C1.06753 45.4798 1.1254 45.3554 1.29514 45.1992C1.46295 45.0439 1.6973 44.8838 1.99627 44.7218C2.23545 44.5916 2.48427 44.4816 2.74467 44.39C3.0041 44.2984 3.2481 44.2348 3.47667 44.1952C3.70331 44.1566 3.91258 44.146 4.09968 44.1644C4.28871 44.1817 4.43145 44.2348 4.52789 44.3254L6.93992 43.0138L6.01696 41.3164L3.60494 42.628L3.76213 42.9173C3.57889 42.9617 3.35515 43.0254 3.09282 43.1073C2.82857 43.1903 2.53539 43.2944 2.21616 43.4198L1.79374 42.6435L1.79181 42.6396Z" fill="url(#paint8_linear_2008_7)"/>
<path style="mix-blend-mode:multiply" d="M-10.1916 51.7944C-10.2235 52.4059 -10.127 52.9749 -9.85601 53.4725L-8.23288 56.4565H-8.23096C-7.98792 56.8741 -7.63301 57.2135 -7.19902 57.4913C-4.88054 59.615 1.33807 58.8309 7.54897 55.4535C13.7579 52.077 17.796 47.2828 17.2742 44.1822C17.2771 43.6653 17.1845 43.1812 16.9637 42.7501H16.9646L16.9463 42.7163C16.9415 42.7057 16.9367 42.696 16.9309 42.6854C16.9251 42.6758 16.9193 42.6662 16.9135 42.6565L15.3444 39.769C15.0734 39.2714 14.6491 38.8808 14.1177 38.5751C11.6439 36.6838 5.60372 37.5267 -0.419112 40.8019C-6.44388 44.0781 -10.4347 48.6909 -10.1916 51.7944Z" fill="url(#paint9_linear_2008_7)"/>
<path d="M76.4364 17.7969C71.1048 7.26819 59.9625 0.75637 48.886 2.59686C35.5381 4.81713 27.3407 18.3432 30.5834 32.8042C31.137 35.2743 31.9886 37.6114 33.0856 39.7776C38.4157 50.3034 49.5565 56.8153 60.6316 54.9748C73.9824 52.7516 82.1769 39.2269 78.9371 24.766C78.3835 22.2988 77.5334 19.9632 76.4364 17.7969Z" fill="url(#paint10_linear_2008_7)"/>
<path d="M69.6179 51.5656L69.5448 51.4224C77.5509 46.0689 81.7066 35.6147 79.2424 24.6141C78.6888 22.147 77.8387 19.8113 76.7417 17.6451C71.4101 7.11633 60.2679 0.604514 49.1914 2.445C47.8256 2.67287 46.5183 3.02344 45.2664 3.47626L45.1905 3.32727L42.5612 4.66089L42.5641 4.66673C33.2814 9.53818 28.2259 20.7768 30.8887 32.6524C31.4424 35.1224 32.2939 37.4595 33.3909 39.6258C38.721 50.1516 49.8633 56.6634 60.9369 54.8229C63.1498 54.4548 65.2182 53.7698 67.12 52.8276V52.8305L69.6179 51.567V51.5656Z" fill="url(#paint11_linear_2008_7)"/>
<path d="M79.3652 16.3174C74.0336 5.78869 62.8913 -0.723123 51.8148 1.11736C38.4669 3.33763 30.2694 16.8638 33.5137 31.3247C34.0673 33.7948 34.9189 36.1319 36.0158 38.2981C41.346 48.8239 52.4867 55.3358 63.5618 53.4953C76.9141 51.2721 85.1072 37.7489 81.8673 23.2865C81.3137 20.8193 80.4636 18.4837 79.3666 16.3174H79.3652Z" fill="url(#paint12_linear_2008_7)"/>
<path d="M75.5956 18.2152C73.5915 14.2582 70.4816 10.8167 66.4837 8.52198C56.4764 2.77995 44.6987 6.39957 40.1706 16.6041C37.4551 22.7317 37.9693 29.8395 40.9798 35.7846C42.9839 39.7416 46.0937 43.1845 50.0931 45.4778C60.096 51.2183 71.8781 47.6002 76.4019 37.3942C79.1202 31.2681 78.6061 24.1603 75.5956 18.2152Z" fill="url(#paint13_linear_2008_7)"/>
<path d="M74.6461 18.4242C72.6697 14.5212 69.6037 11.1265 65.6598 8.86536C55.7913 3.20221 44.1758 6.77217 39.709 16.8364C37.03 22.8794 37.5384 29.8893 40.5065 35.7525C42.4828 39.6555 45.5503 43.0502 49.4942 45.3114C59.3598 50.9731 70.9782 47.4046 75.4407 37.3389C78.1211 31.2974 77.6142 24.2875 74.6446 18.4257L74.6461 18.4242Z" fill="url(#paint14_radial_2008_7)"/>
<path style="mix-blend-mode:multiply" d="M74.6461 18.4242C72.6697 14.5212 69.6037 11.1265 65.6598 8.86536C55.7913 3.20221 44.1758 6.77217 39.709 16.8364C37.03 22.8794 37.5384 29.8893 40.5065 35.7525C42.4828 39.6555 45.5503 43.0502 49.4942 45.3114C59.3598 50.9731 70.9782 47.4046 75.4407 37.3389C78.1211 31.2974 77.6142 24.2875 74.6446 18.4257L74.6461 18.4242Z" fill="url(#paint15_radial_2008_7)"/>
<path d="M41.3403 35.5957C40.48 33.8984 39.8139 32.0681 39.3815 30.1341C36.8414 18.802 43.2611 8.20606 53.7242 6.46491C62.3993 5.02319 71.1284 10.1254 75.3046 18.3726C76.165 20.0699 76.831 21.9002 77.2634 23.8341C79.8036 35.1663 73.3838 45.7637 62.9237 47.5019C54.2471 48.9451 45.515 43.8428 41.3403 35.5957ZM79.8416 16.0749C74.5494 5.62354 63.4875 -0.841534 52.4928 0.984345C39.2413 3.18855 31.1051 16.6168 34.3245 30.9726C34.8738 33.4237 35.7195 35.7447 36.8077 37.8963C42.0984 48.3462 53.1589 54.8098 64.1521 52.9825C77.4065 50.7768 85.5398 37.35 82.3233 22.9928C81.7741 20.5432 80.9298 18.225 79.8401 16.0749H79.8416Z" fill="url(#paint16_linear_2008_7)"/>
<path d="M70.8825 23.0953L67.8983 23.589C67.6499 22.4906 67.2818 21.4578 66.7925 20.4938C66.7691 20.447 66.7443 20.4003 66.7209 20.3535C66.1936 19.35 65.5743 18.4911 64.86 17.7769C64.1486 17.0626 63.3511 16.5323 62.4673 16.1876C61.5851 15.8429 60.6327 15.7538 59.616 15.9232C58.2298 16.1555 57.1796 16.6434 56.4712 17.3956C55.7613 18.145 55.2427 19.0082 54.9243 19.9884C54.6 20.967 54.4218 22.0041 54.3853 23.1026C54.3488 24.201 54.3195 25.2118 54.2932 26.1409C54.267 27.0699 54.1822 27.8616 54.0332 28.5116C53.8828 29.1631 53.5541 29.5282 53.0443 29.6144C52.7361 29.6641 52.4089 29.5385 52.0657 29.2288C51.9021 29.0827 51.7575 28.887 51.6348 28.643C51.496 28.367 51.3806 28.0295 51.2915 27.6293C51.0432 26.525 51.1338 25.4792 51.5632 24.4903C51.9926 23.4984 52.7332 22.7696 53.782 22.305L52.6587 17.2978L44.9827 18.5729L46.106 23.5802L47.3491 23.3714C46.9897 24.6816 46.8159 25.9247 46.8203 27.0962L43.6199 27.6279L44.4963 31.5352L47.4104 31.0517C47.7157 32.1984 48.1159 33.2793 48.6067 34.2872C48.6345 34.3456 48.6637 34.4041 48.6929 34.461C49.1662 35.3944 49.7271 36.2022 50.3756 36.8785C51.0651 37.5957 51.8436 38.1274 52.7142 38.4648C53.5833 38.8081 54.5372 38.8913 55.5787 38.7175C56.9926 38.4838 58.0604 37.9872 58.7937 37.2261C59.527 36.4651 60.0528 35.5887 60.3698 34.5954C60.6882 33.6065 60.8679 32.546 60.9029 31.4228C60.938 30.298 60.9716 29.2638 61.0008 28.3246C61.0315 27.3795 61.1089 26.5747 61.2316 25.9057C61.3601 25.2396 61.6786 24.8642 62.1884 24.7795C62.6032 24.7108 62.9669 24.8627 63.2751 25.2381C63.4022 25.3901 63.5147 25.5639 63.614 25.7582C63.7572 26.0415 63.8711 26.3702 63.9544 26.7441C64.0683 27.2437 64.0931 27.7579 64.0332 28.2881C63.9733 28.8139 63.8433 29.3047 63.6447 29.759C63.4431 30.2104 63.1758 30.6165 62.8311 30.9729C62.4863 31.3293 62.0803 31.5878 61.6114 31.7456L62.7478 36.8084L70.2456 35.5609L69.1092 30.4981L67.8296 30.7129C67.945 30.3448 68.0502 29.8978 68.1451 29.3632C68.2401 28.8286 68.2999 28.2311 68.3248 27.5723L71.756 27.0027L70.8795 23.0953H70.8825Z" fill="url(#paint17_linear_2008_7)"/>
<path d="M71.5165 22.774L68.5323 23.2677C68.2839 22.1693 67.9159 21.1365 67.4265 20.1725C67.4032 20.1257 67.3783 20.079 67.3535 20.0323C66.8262 19.0288 66.2068 18.1699 65.4926 17.457C64.7812 16.7428 63.9836 16.2125 63.0999 15.8663C62.2176 15.5216 61.2653 15.4325 60.2486 15.6019C58.8624 15.8342 57.8122 16.3221 57.1037 17.0743C56.3938 17.8237 55.8753 18.6869 55.5569 19.6671C55.2326 20.6458 55.0543 21.6829 55.0178 22.7813C54.9813 23.8798 54.9521 24.8906 54.9258 25.8196C54.8995 26.7486 54.8148 27.5403 54.6658 28.1903C54.5139 28.8418 54.1867 29.2069 53.6769 29.2931C53.3687 29.3428 53.0415 29.2172 52.6982 28.9075C52.5346 28.7614 52.39 28.5657 52.2673 28.3218C52.1271 28.0471 52.0132 27.7083 51.9241 27.308C51.6743 26.2037 51.7663 25.1579 52.1958 24.169C52.6252 23.1772 53.3658 22.4483 54.4146 21.9838L53.2913 16.9765L45.6153 18.2517L46.7386 23.259L47.9816 23.0501C47.6223 24.3603 47.4485 25.6034 47.4529 26.7749L44.2539 27.3066L45.1303 31.2139L48.043 30.7305C48.3483 31.8771 48.7485 32.958 49.2393 33.9659C49.2671 34.0243 49.2963 34.0828 49.3255 34.1397C49.7987 35.0746 50.3596 35.8809 51.0082 36.5572C51.6977 37.2744 52.4762 37.8061 53.3468 38.1435C54.2159 38.4868 55.1698 38.57 56.2112 38.3962C57.6252 38.1625 58.693 37.6659 59.4263 36.9063C60.1595 36.1453 60.6854 35.2689 61.0023 34.2756C61.3208 33.2867 61.5004 32.2262 61.5355 31.1029C61.5706 29.9782 61.6041 28.944 61.6334 28.0048C61.664 27.0597 61.7415 26.2549 61.8642 25.5859C61.9927 24.9198 62.3111 24.5444 62.8209 24.4597C63.2358 24.391 63.5995 24.5429 63.9077 24.9183C64.0348 25.0702 64.1487 25.244 64.2466 25.4383C64.3897 25.7217 64.5036 26.0489 64.5869 26.4243C64.7008 26.9239 64.7257 27.438 64.6643 27.9683C64.6044 28.4941 64.4759 28.9849 64.2758 29.4392C64.0742 29.8905 63.8069 30.2966 63.4622 30.6516C63.1174 31.008 62.7114 31.2665 62.2425 31.4243L63.3789 36.4871L70.8782 35.2396L69.7417 30.1768L68.4621 30.3916C68.5775 30.0235 68.6827 29.5765 68.7777 29.0419C68.8726 28.5073 68.9325 27.9098 68.9573 27.2511L72.3885 26.6814L71.5121 22.774H71.5165Z" fill="url(#paint18_linear_2008_7)"/>
<g style="mix-blend-mode:screen">
<path d="M55.3142 20.5536C55.3902 20.2513 55.472 19.9547 55.5596 19.6655C55.4632 19.9562 55.3843 20.2527 55.3142 20.5536Z" fill="url(#paint19_linear_2008_7)"/>
</g>
<path style="mix-blend-mode:multiply" d="M51.8297 1.1143C51.8297 1.1143 51.818 1.1143 51.8137 1.11576C49.4298 1.51307 47.2139 2.27556 45.1952 3.33457L45.1908 3.32726L42.5615 4.66089V4.66381C33.0874 9.44907 27.8932 20.8002 30.5853 32.8028C31.1389 35.2729 31.9904 37.61 33.0874 39.7762C38.4175 50.302 49.5598 56.8138 60.6334 54.9734C62.9442 54.5892 65.0944 53.8588 67.0648 52.851C67.0824 52.8422 67.1028 52.8349 67.1204 52.8261V52.829L69.6182 51.5641V51.5612C71.726 50.5328 73.6293 49.1846 75.2857 47.5734C81.5068 41.8913 84.4896 32.6538 82.3248 22.9898C81.7756 20.5402 80.9313 18.2221 79.8417 16.0719C74.5495 5.62057 63.4876 -0.844505 52.4929 0.982835C52.2694 1.02081 52.0518 1.06902 51.8312 1.11138L51.8297 1.1143Z" fill="url(#paint20_linear_2008_7)"/>
<defs>
<linearGradient id="paint0_linear_2008_7" x1="14.279" y1="53.6227" x2="-5.05044" y2="46.3149" gradientUnits="userSpaceOnUse">
<stop offset="0.16" stop-color="#FFF8C7"/>
<stop offset="0.2" stop-color="#FEF5C1"/>
<stop offset="0.25" stop-color="#FEEFB1"/>
<stop offset="0.3" stop-color="#FDE596"/>
<stop offset="0.36" stop-color="#FDD870"/>
<stop offset="0.42" stop-color="#FBC641"/>
<stop offset="0.47" stop-color="#FBB718"/>
<stop offset="0.54" stop-color="#B15D1F"/>
<stop offset="0.56" stop-color="#9E4522"/>
<stop offset="0.61" stop-color="#A04A23"/>
<stop offset="0.65" stop-color="#DB9723"/>
<stop offset="0.66" stop-color="#FDC223"/>
<stop offset="0.81" stop-color="#E89C23"/>
<stop offset="0.82" stop-color="#ECAA31"/>
<stop offset="0.84" stop-color="#F3C147"/>
<stop offset="0.85" stop-color="#F8D157"/>
<stop offset="0.87" stop-color="#FCDA61"/>
<stop offset="0.9" stop-color="#FDDE64"/>
<stop offset="1" stop-color="#FCC744"/>
</linearGradient>
<linearGradient id="paint1_linear_2008_7" x1="16.8635" y1="42.7085" x2="-8.33746" y2="56.4142" gradientUnits="userSpaceOnUse">
<stop stop-color="#EBAB21"/>
<stop offset="0.08" stop-color="#FFC62A"/>
<stop offset="0.15" stop-color="#FFD75A"/>
<stop offset="0.41" stop-color="#FFF5A6"/>
<stop offset="0.42" stop-color="#FEF0A0"/>
<stop offset="0.44" stop-color="#FCE490"/>
<stop offset="0.47" stop-color="#F9CF75"/>
<stop offset="0.49" stop-color="#F5B34F"/>
<stop offset="0.52" stop-color="#F08F21"/>
<stop offset="0.56" stop-color="#C95127"/>
<stop offset="0.61" stop-color="#A14F24"/>
<stop offset="0.65" stop-color="#EAA622"/>
<stop offset="0.66" stop-color="#F1B637"/>
<stop offset="0.67" stop-color="#F8C84F"/>
<stop offset="0.68" stop-color="#FDD35D"/>
<stop offset="0.69" stop-color="#FFD762"/>
<stop offset="0.73" stop-color="#FFD660"/>
<stop offset="0.75" stop-color="#FFD559"/>
<stop offset="0.76" stop-color="#FFD24D"/>
<stop offset="0.77" stop-color="#FFCC2C"/>
<stop offset="0.78" stop-color="#FBC52B"/>
<stop offset="0.8" stop-color="#F2B429"/>
<stop offset="0.82" stop-color="#E6A133"/>
<stop offset="0.83" stop-color="#F5CB5D"/>
<stop offset="0.84" stop-color="#F9D86B"/>
<stop offset="0.85" stop-color="#FCDF72"/>
<stop offset="0.86" stop-color="#FDE275"/>
<stop offset="0.94" stop-color="#FDE47F"/>
<stop offset="1" stop-color="#FED84C"/>
</linearGradient>
<linearGradient id="paint2_linear_2008_7" x1="12.5928" y1="50.2817" x2="-7.06314" y2="42.8504" gradientUnits="userSpaceOnUse">
<stop offset="0.16" stop-color="#DD8326"/>
<stop offset="0.21" stop-color="#DF8824"/>
<stop offset="0.27" stop-color="#E69821"/>
<stop offset="0.35" stop-color="#F1B31B"/>
<stop offset="0.37" stop-color="#F6BD1A"/>
<stop offset="0.43" stop-color="#F4AD1C"/>
<stop offset="0.47" stop-color="#F4A01E"/>
<stop offset="0.54" stop-color="#9E4322"/>
<stop offset="0.61" stop-color="#A04A23"/>
<stop offset="0.71" stop-color="#FFC527"/>
<stop offset="1" stop-color="#B56628"/>
</linearGradient>
<linearGradient id="paint3_linear_2008_7" x1="14.4923" y1="38.2719" x2="-6.89137" y2="49.9017" gradientUnits="userSpaceOnUse">
<stop offset="0.16" stop-color="#D07D28"/>
<stop offset="0.23" stop-color="#CB7727"/>
<stop offset="0.31" stop-color="#BD6725"/>
<stop offset="0.41" stop-color="#A64C22"/>
<stop offset="0.43" stop-color="#9E4322"/>
<stop offset="0.61" stop-color="#A04A23"/>
<stop offset="1" stop-color="#BB5427"/>
</linearGradient>
<radialGradient id="paint4_radial_2008_7" cx="0" cy="0" r="1" gradientUnits="userSpaceOnUse" gradientTransform="translate(1.18787 49.312) rotate(151.46) scale(11.1507 4.72417)">
<stop stop-color="#DDA027"/>
<stop offset="1" stop-color="#C87729"/>
</radialGradient>
<radialGradient id="paint5_radial_2008_7" cx="0" cy="0" r="1" gradientUnits="userSpaceOnUse" gradientTransform="translate(-2.19078 44.4291) rotate(151.46) scale(16.2523 9.42883)">
<stop stop-color="white"/>
<stop offset="0.59" stop-color="white"/>
<stop offset="0.69" stop-color="white"/>
<stop offset="0.8" stop-color="#FEFDFD"/>
<stop offset="0.85" stop-color="#FCF8F6"/>
<stop offset="0.88" stop-color="#F8F0EA"/>
<stop offset="0.91" stop-color="#F2E4D9"/>
<stop offset="0.93" stop-color="#EBD5C3"/>
<stop offset="0.95" stop-color="#E3C2A7"/>
<stop offset="0.96" stop-color="#D8AB87"/>
<stop offset="0.98" stop-color="#CC9061"/>
<stop offset="1" stop-color="#BA6928"/>
</radialGradient>
<linearGradient id="paint6_linear_2008_7" x1="8.23855" y1="31.1428" x2="-1.43895" y2="56.7401" gradientUnits="userSpaceOnUse">
<stop stop-color="#E79824"/>
<stop offset="0.41" stop-color="#F5B21A"/>
<stop offset="0.52" stop-color="#F2AC1B"/>
<stop offset="0.67" stop-color="#EA9C20"/>
<stop offset="0.77" stop-color="#E48E25"/>
<stop offset="1" stop-color="#D36827"/>
</linearGradient>
<linearGradient id="paint7_linear_2008_7" x1="-2.6886" y1="49.4583" x2="7.76454" y2="43.7733" gradientUnits="userSpaceOnUse">
<stop offset="0.01" stop-color="#A14323"/>
<stop offset="0.06" stop-color="#A54B24"/>
<stop offset="0.13" stop-color="#B06227"/>
<stop offset="0.16" stop-color="#B66D29"/>
<stop offset="0.27" stop-color="#B26728"/>
<stop offset="0.41" stop-color="#A95725"/>
<stop offset="0.54" stop-color="#9E4322"/>
<stop offset="0.61" stop-color="#A04A23"/>
<stop offset="0.71" stop-color="#B35E27"/>
<stop offset="1" stop-color="#9E5B25"/>
</linearGradient>
<linearGradient id="paint8_linear_2008_7" x1="-0.432785" y1="40.9034" x2="5.49141" y2="51.7962" gradientUnits="userSpaceOnUse">
<stop stop-color="#EEA620"/>
<stop offset="0.41" stop-color="#FFC60A"/>
<stop offset="0.52" stop-color="#FCC00D"/>
<stop offset="0.66" stop-color="#F5B016"/>
<stop offset="0.77" stop-color="#EE9F21"/>
<stop offset="1" stop-color="#C16D29"/>
</linearGradient>
<linearGradient id="paint9_linear_2008_7" x1="-0.702141" y1="37.5684" x2="-14.6855" y2="3.25052" gradientUnits="userSpaceOnUse">
<stop stop-color="white"/>
<stop offset="0.11" stop-color="#FCFAF9"/>
<stop offset="0.24" stop-color="#F5ECEB"/>
<stop offset="0.39" stop-color="#E9D5D2"/>
<stop offset="0.54" stop-color="#D8B5B0"/>
<stop offset="0.7" stop-color="#C38C85"/>
<stop offset="0.86" stop-color="#A95B50"/>
<stop offset="1" stop-color="#902B1D"/>
</linearGradient>
<linearGradient id="paint10_linear_2008_7" x1="75.4759" y1="45.5999" x2="34.3088" y2="11.8929" gradientUnits="userSpaceOnUse">
<stop offset="0.16" stop-color="#FFF8C7"/>
<stop offset="0.2" stop-color="#FEF5C1"/>
<stop offset="0.25" stop-color="#FEEFB1"/>
<stop offset="0.3" stop-color="#FDE596"/>
<stop offset="0.36" stop-color="#FDD870"/>
<stop offset="0.42" stop-color="#FBC641"/>
<stop offset="0.47" stop-color="#FBB718"/>
<stop offset="0.54" stop-color="#B15D1F"/>
<stop offset="0.56" stop-color="#9E4522"/>
<stop offset="0.61" stop-color="#A04A23"/>
<stop offset="0.65" stop-color="#DB9723"/>
<stop offset="0.66" stop-color="#FDC223"/>
<stop offset="0.81" stop-color="#E89C23"/>
<stop offset="0.82" stop-color="#ECAA31"/>
<stop offset="0.84" stop-color="#F3C147"/>
<stop offset="0.85" stop-color="#F8D157"/>
<stop offset="0.87" stop-color="#FCDA61"/>
<stop offset="0.9" stop-color="#FDDE64"/>
<stop offset="1" stop-color="#FCC744"/>
</linearGradient>
<linearGradient id="paint11_linear_2008_7" x1="42.8699" y1="4.48557" x2="67.2907" y2="52.7259" gradientUnits="userSpaceOnUse">
<stop stop-color="#EBAB21"/>
<stop offset="0.08" stop-color="#FFC62A"/>
<stop offset="0.15" stop-color="#FFD75A"/>
<stop offset="0.41" stop-color="#FFF5A6"/>
<stop offset="0.42" stop-color="#FEF0A0"/>
<stop offset="0.44" stop-color="#FCE490"/>
<stop offset="0.47" stop-color="#F9CF75"/>
<stop offset="0.49" stop-color="#F5B34F"/>
<stop offset="0.52" stop-color="#F08F21"/>
<stop offset="0.56" stop-color="#C95127"/>
<stop offset="0.61" stop-color="#A14F24"/>
<stop offset="0.65" stop-color="#EAA622"/>
<stop offset="0.66" stop-color="#F1B637"/>
<stop offset="0.67" stop-color="#F8C84F"/>
<stop offset="0.68" stop-color="#FDD35D"/>
<stop offset="0.69" stop-color="#FFD762"/>
<stop offset="0.73" stop-color="#FFD660"/>
<stop offset="0.75" stop-color="#FFD559"/>
<stop offset="0.76" stop-color="#FFD24D"/>
<stop offset="0.77" stop-color="#FFCC2C"/>
<stop offset="0.78" stop-color="#FBC52B"/>
<stop offset="0.8" stop-color="#F2B429"/>
<stop offset="0.82" stop-color="#E6A133"/>
<stop offset="0.83" stop-color="#F5CB5D"/>
<stop offset="0.84" stop-color="#F9D86B"/>
<stop offset="0.85" stop-color="#FCDF72"/>
<stop offset="0.86" stop-color="#FDE275"/>
<stop offset="0.94" stop-color="#FDE47F"/>
<stop offset="1" stop-color="#FED84C"/>
</linearGradient>
<linearGradient id="paint12_linear_2008_7" x1="78.4035" y1="44.12" x2="37.2363" y2="10.4131" gradientUnits="userSpaceOnUse">
<stop offset="0.16" stop-color="#DD8326"/>
<stop offset="0.21" stop-color="#DF8824"/>
<stop offset="0.27" stop-color="#E69821"/>
<stop offset="0.35" stop-color="#F1B31B"/>
<stop offset="0.37" stop-color="#F6BD1A"/>
<stop offset="0.43" stop-color="#F4AD1C"/>
<stop offset="0.47" stop-color="#F4A01E"/>
<stop offset="0.54" stop-color="#9E4322"/>
<stop offset="0.61" stop-color="#A04A23"/>
<stop offset="0.71" stop-color="#FFC527"/>
<stop offset="1" stop-color="#B56628"/>
</linearGradient>
<linearGradient id="paint13_linear_2008_7" x1="74.8948" y1="40.4497" x2="41.9441" y2="13.4703" gradientUnits="userSpaceOnUse">
<stop offset="0.16" stop-color="#D07D28"/>
<stop offset="0.23" stop-color="#CB7727"/>
<stop offset="0.31" stop-color="#BD6725"/>
<stop offset="0.41" stop-color="#A64C22"/>
<stop offset="0.43" stop-color="#9E4322"/>
<stop offset="0.61" stop-color="#A04A23"/>
<stop offset="1" stop-color="#BB5427"/>
</linearGradient>
<radialGradient id="paint14_radial_2008_7" cx="0" cy="0" r="1" gradientUnits="userSpaceOnUse" gradientTransform="translate(57.0708 26.0352) rotate(-140.69) scale(21.1992 21.1992)">
<stop stop-color="#DDA027"/>
<stop offset="1" stop-color="#C87729"/>
</radialGradient>
<radialGradient id="paint15_radial_2008_7" cx="0" cy="0" r="1" gradientUnits="userSpaceOnUse" gradientTransform="translate(68.3805 15.2405) rotate(-140.69) scale(33.1697 33.1697)">
<stop stop-color="white"/>
<stop offset="0.66" stop-color="white"/>
<stop offset="0.77" stop-color="white"/>
<stop offset="0.85" stop-color="#FEFDFD"/>
<stop offset="0.89" stop-color="#FCF8F6"/>
<stop offset="0.91" stop-color="#F8F0EA"/>
<stop offset="0.93" stop-color="#F2E4D9"/>
<stop offset="0.95" stop-color="#EBD5C3"/>
<stop offset="0.96" stop-color="#E3C2A7"/>
<stop offset="0.97" stop-color="#D8AB87"/>
<stop offset="0.99" stop-color="#CC9061"/>
<stop offset="1" stop-color="#BA6928"/>
</radialGradient>
<linearGradient id="paint16_linear_2008_7" x1="42.8823" y1="45.964" x2="74.1379" y2="7.79069" gradientUnits="userSpaceOnUse">
<stop stop-color="#EEA620"/>
<stop offset="0.41" stop-color="#FFC60A"/>
<stop offset="0.53" stop-color="#FCC00C"/>
<stop offset="0.7" stop-color="#F5B012"/>
<stop offset="0.88" stop-color="#E9951D"/>
<stop offset="1" stop-color="#E08126"/>
</linearGradient>
<linearGradient id="paint17_linear_2008_7" x1="79.165" y1="16.1528" x2="35.9643" y2="38.0224" gradientUnits="userSpaceOnUse">
<stop offset="0.16" stop-color="#C87829"/>
<stop offset="0.26" stop-color="#C37228"/>
<stop offset="0.38" stop-color="#B66226"/>
<stop offset="0.52" stop-color="#A14722"/>
<stop offset="0.54" stop-color="#9E4322"/>
<stop offset="0.61" stop-color="#A04A23"/>
<stop offset="0.71" stop-color="#B35E27"/>
<stop offset="1" stop-color="#9E5B25"/>
</linearGradient>
<linearGradient id="paint18_linear_2008_7" x1="78.3636" y1="16.5586" x2="36.3528" y2="37.8259" gradientUnits="userSpaceOnUse">
<stop stop-color="#EEA620"/>
<stop offset="0.41" stop-color="#FFC60A"/>
<stop offset="0.52" stop-color="#FCC00D"/>
<stop offset="0.66" stop-color="#F5B016"/>
<stop offset="0.77" stop-color="#EE9F21"/>
<stop offset="1" stop-color="#C16D29"/>
</linearGradient>
<linearGradient id="paint19_linear_2008_7" x1="55.9098" y1="19.8541" x2="54.9571" y2="20.3365" gradientUnits="userSpaceOnUse">
<stop stop-color="#B7B7B8"/>
<stop offset="1" stop-color="#010101"/>
</linearGradient>
<linearGradient id="paint20_linear_2008_7" x1="30.5562" y1="-3.09426" x2="-20.8402" y2="-64.2498" gradientUnits="userSpaceOnUse">
<stop stop-color="white"/>
<stop offset="0.11" stop-color="#FCFAF9"/>
<stop offset="0.24" stop-color="#F5ECEB"/>
<stop offset="0.39" stop-color="#E9D5D2"/>
<stop offset="0.54" stop-color="#D8B5B0"/>
<stop offset="0.7" stop-color="#C38C85"/>
<stop offset="0.86" stop-color="#A95B50"/>
<stop offset="1" stop-color="#902B1D"/>
</linearGradient>
</defs>
</svg>
