<svg width="457" height="214" viewBox="0 0 457 214" fill="none" xmlns="http://www.w3.org/2000/svg">
<path d="M21.479 163.378C-3.04529 176.715 -18.1898 196.238 -12.3421 206.986C-6.4979 217.735 18.1231 215.64 42.6474 202.303C67.1648 188.97 82.3093 169.447 76.4616 158.695C70.6139 147.943 45.9963 150.041 21.479 163.374V163.378Z" fill="url(#paint0_linear_2007_3)"/>
<path d="M-13.6072 191.881C-8.98302 181.741 3.42081 169.872 20.0825 160.811C36.7408 151.752 53.4405 147.795 64.4654 149.426L70.5826 146.098L76.2056 156.446C76.2264 156.48 76.2471 156.515 76.2678 156.549C76.2886 156.584 76.3059 156.622 76.3231 156.66L76.3888 156.781H76.3853C81.9945 167.761 66.6392 187.433 41.88 200.898C17.1241 214.359 -7.72157 216.557 -13.901 205.899H-13.9079L-19.7245 195.209L-13.6072 191.881Z" fill="url(#paint1_linear_2007_3)"/>
<path d="M14.6703 150.856C-10.2687 164.418 -25.6689 184.273 -19.7245 195.205C-13.7801 206.136 11.2557 204.004 36.1947 190.442C61.1302 176.884 76.527 157.029 70.5826 146.097C64.6382 135.166 39.6024 137.298 14.6703 150.856Z" fill="url(#paint2_linear_2007_3)"/>
<path d="M-13.8733 189.793C-9.01402 198.73 12.1026 196.632 33.2917 185.11C54.4809 173.587 67.7176 157.002 62.8584 148.068C57.9992 139.13 36.8826 141.228 15.6934 152.751C-5.49575 164.273 -18.7325 180.859 -13.8733 189.793Z" fill="url(#paint3_linear_2007_3)"/>
<path d="M-9.8643 189.257C-5.38523 197.493 13.9342 195.637 33.2916 185.11C52.6491 174.586 64.7073 159.376 60.2317 151.14C55.7526 142.904 36.4332 144.76 17.0758 155.287C-2.28168 165.814 -14.3399 181.021 -9.8643 189.257Z" fill="url(#paint4_radial_2007_3)"/>
<path style="mix-blend-mode:multiply" d="M-9.8643 189.257C-5.38523 197.493 13.9342 195.637 33.2916 185.11C52.6491 174.586 64.7073 159.376 60.2317 151.14C55.7526 142.904 36.4332 144.76 17.0758 155.287C-2.28168 165.814 -14.3399 181.021 -9.8643 189.257Z" fill="url(#paint5_radial_2007_3)"/>
<path d="M33.0321 184.623C13.6747 195.15 -5.75878 196.806 -10.3726 188.321C-14.9865 179.836 -3.03194 164.426 16.3255 153.898C35.676 143.375 55.1095 141.719 59.7234 150.204C64.3372 158.689 52.3827 174.099 33.0321 184.623ZM14.0929 149.796C-10.4314 163.133 -25.5759 182.656 -19.7282 193.408C-13.884 204.157 10.737 202.062 35.2613 188.725C59.7786 175.392 74.9232 155.868 69.0755 145.117C63.2278 134.365 38.6102 136.463 14.0929 149.796Z" fill="url(#paint6_linear_2007_3)"/>
<path d="M22.5467 157.357L15.8696 160.99L17.1864 163.409C15.2129 164.484 13.3985 165.624 11.7292 166.837C10.0599 168.051 8.65333 169.246 7.51628 170.425C6.38615 171.596 5.58433 172.723 5.11431 173.795C4.64428 174.862 4.63736 175.813 5.08665 176.639C5.69838 177.766 6.70756 178.388 8.12455 178.509C9.53808 178.63 11.1175 178.488 12.8697 178.084C14.622 177.676 16.464 177.095 18.3787 176.338C20.2968 175.581 22.0663 174.883 23.6872 174.237C25.3081 173.594 26.7009 173.103 27.8552 172.778C29.013 172.447 29.7042 172.488 29.9289 172.903C30.0637 173.152 29.8909 173.549 29.407 174.092C28.9163 174.638 28.028 175.26 26.7355 175.965C24.8519 176.988 23.0167 177.655 21.2265 177.973C19.4397 178.284 18.0573 178.122 17.0827 177.482L8.5358 182.131L11.9228 188.358L20.4696 183.71L19.9201 182.701C22.2599 182.086 24.4441 181.356 26.4832 180.513L27.8933 183.109L34.5704 179.476L33.2847 177.112C35.2374 176.003 37.0518 174.856 38.7349 173.674C40.418 172.492 41.8385 171.317 42.979 170.162C44.1264 169.001 44.9282 167.895 45.3948 166.841C45.8545 165.787 45.8545 164.836 45.3948 163.99C44.7727 162.846 43.7463 162.206 42.312 162.072C40.8777 161.94 39.2706 162.082 37.4908 162.5C35.7178 162.915 33.8515 163.509 31.885 164.287C29.922 165.064 28.1144 165.776 26.4728 166.43C24.8243 167.086 23.4073 167.594 22.2322 167.954C21.0502 168.317 20.3487 168.289 20.124 167.874C19.9408 167.539 20.1482 167.093 20.7565 166.533C21.3578 165.977 22.1976 165.403 23.269 164.819C24.1261 164.353 25.0178 163.959 25.9509 163.634C26.8806 163.305 27.755 163.077 28.5741 162.936C29.3863 162.797 30.1362 162.756 30.8067 162.822C31.4841 162.884 31.9922 163.074 32.3378 163.399L40.9814 158.698L37.6739 152.616L29.0303 157.316L29.5937 158.353C28.937 158.515 28.1352 158.74 27.1951 159.034C26.2482 159.331 25.1975 159.704 24.0536 160.15L22.5398 157.371L22.5467 157.357Z" fill="url(#paint7_linear_2007_3)"/>
<path d="M22.0177 156.384L15.3406 160.013L16.6574 162.432C14.684 163.503 12.8695 164.647 11.2003 165.86C9.53098 167.073 8.12436 168.269 6.99077 169.448C5.86063 170.619 5.05882 171.746 4.58879 172.817C4.11877 173.885 4.11185 174.836 4.56114 175.662C5.17286 176.788 6.18205 177.411 7.6025 177.532C9.01603 177.652 10.5954 177.511 12.3477 177.106C14.0999 176.699 15.942 176.118 17.8567 175.361C19.7748 174.604 21.5443 173.906 23.1652 173.26C24.7861 172.617 26.1789 172.126 27.3332 171.801C28.491 171.47 29.1822 171.511 29.4068 171.926C29.5416 172.175 29.3688 172.572 28.885 173.115C28.3942 173.661 27.506 174.283 26.2134 174.988C24.3333 176.011 22.4947 176.681 20.7044 176.996C18.9177 177.307 17.5352 177.144 16.5606 176.505L8.01377 181.153L11.4007 187.381L19.9476 182.733L19.3981 181.724C21.7378 181.109 23.9221 180.379 25.9611 179.536L27.3712 182.132L34.0483 178.499L32.7627 176.135C34.7154 175.026 36.5298 173.878 38.2129 172.696C39.896 171.515 41.3164 170.339 42.457 169.185C43.6044 168.024 44.4062 166.918 44.8762 165.864C45.3359 164.81 45.3359 163.859 44.8762 163.013C44.2541 161.869 43.2277 161.229 41.7934 161.094C40.3591 160.963 38.752 161.105 36.9722 161.523C35.1992 161.938 33.3329 162.536 31.3664 163.31C29.4034 164.087 27.5959 164.799 25.9542 165.453C24.3057 166.109 22.8887 166.614 21.7136 166.977C20.5316 167.336 19.8301 167.312 19.6054 166.897C19.4222 166.562 19.6296 166.116 20.2379 165.556C20.8392 165 21.6791 164.426 22.7504 163.845C23.6075 163.379 24.4992 162.985 25.4323 162.657C26.362 162.328 27.2364 162.1 28.0555 161.958C28.8677 161.82 29.6176 161.782 30.2881 161.848C30.9655 161.91 31.477 162.1 31.8226 162.425L40.4663 157.725L37.1588 151.642L28.5152 156.342L29.0785 157.379C28.4218 157.538 27.62 157.766 26.68 158.06C25.733 158.357 24.6824 158.73 23.5384 159.18L22.0247 156.398L22.0177 156.384Z" fill="url(#paint8_linear_2007_3)"/>
<path style="mix-blend-mode:multiply" d="M-20.9278 189.192C-21.0418 191.383 -20.6962 193.422 -19.725 195.206L-13.9085 205.899H-13.9016C-13.0306 207.395 -11.7588 208.612 -10.2036 209.607C-1.89519 217.217 20.3895 214.408 42.6466 202.305C64.8968 190.205 79.3674 173.025 77.4977 161.913C77.508 160.061 77.1762 158.326 76.3848 156.781H76.3882L76.3226 156.66C76.3053 156.622 76.288 156.588 76.2673 156.55C76.2466 156.515 76.2258 156.481 76.2051 156.446L70.582 146.098C69.6109 144.315 68.0902 142.915 66.1859 141.82C57.3211 135.043 35.6757 138.063 14.0926 149.8C-7.49748 161.54 -21.7987 178.071 -20.9278 189.192Z" fill="url(#paint9_linear_2007_3)"/>
<path d="M182.091 12.7456C157.619 2.81797 129.243 8.20839 113.26 27.5936C94.001 50.9629 100.053 85.8361 126.781 105.467C131.343 108.822 136.217 111.512 141.253 113.558C165.721 123.486 194.09 118.092 210.07 98.7102C229.332 75.3336 223.277 40.4677 196.553 20.8294C191.99 17.4816 187.124 14.7882 182.088 12.7456H182.091Z" fill="url(#paint10_linear_2007_3)"/>
<path d="M220.222 79.7519L219.889 79.6146C225.529 58.8121 217.174 35.0668 196.845 20.1248C192.283 16.7734 187.417 14.0836 182.381 12.041C157.909 2.11338 129.532 7.5038 113.549 26.889C111.579 29.2787 109.887 31.795 108.441 34.398L108.094 34.257L105.617 40.3741L105.631 40.3813C97.1283 62.2467 105.118 88.642 127.07 104.763C131.633 108.118 136.506 110.807 141.542 112.854C166.011 122.781 194.38 117.391 210.359 98.0056C213.552 94.13 216.035 89.9362 217.858 85.5509H217.865L220.218 79.7519H220.222Z" fill="url(#paint11_linear_2007_3)"/>
<path d="M184.854 5.94529C160.382 -3.98232 132.005 1.40809 116.022 20.7933C96.7635 44.1626 102.816 79.0358 129.543 98.6669C134.106 102.022 138.979 104.712 144.015 106.758C168.484 116.686 196.853 111.295 212.833 91.9099C232.095 68.5333 226.039 33.6674 199.315 14.0291C194.753 10.6777 189.886 7.98794 184.85 5.94529H184.854Z" fill="url(#paint12_linear_2007_3)"/>
<path d="M181.285 14.6871C172.088 10.9561 161.781 9.71969 151.662 11.7226C126.336 16.7442 111.781 40.1641 119.142 64.0396C123.563 78.3706 134.883 89.6106 148.701 95.2143C157.898 98.9453 168.205 100.182 178.324 98.1752C203.642 93.1572 218.205 69.7336 210.837 45.8618C206.419 31.5272 195.103 20.2908 181.285 14.6871Z" fill="url(#paint13_linear_2007_3)"/>
<path d="M179.991 16.4371C170.92 12.7567 160.754 11.5384 150.775 13.5159C125.797 18.4689 111.445 41.5634 118.704 65.1099C123.068 79.2421 134.228 90.3266 147.854 95.8544C156.925 99.5347 167.091 100.753 177.07 98.7755C202.037 93.8262 216.397 70.728 209.13 47.1852C204.774 33.0494 193.613 21.9685 179.983 16.4407L179.991 16.4371Z" fill="url(#paint14_radial_2007_3)"/>
<path style="mix-blend-mode:multiply" d="M179.991 16.4371C170.92 12.7567 160.754 11.5384 150.775 13.5159C125.797 18.4689 111.445 41.5634 118.704 65.1099C123.068 79.2421 134.228 90.3266 147.854 95.8544C156.925 99.5347 167.091 100.753 177.07 98.7755C202.037 93.8262 216.397 70.728 209.13 47.1852C204.774 33.0494 193.613 21.9685 179.983 16.4407L179.991 16.4371Z" fill="url(#paint15_radial_2007_3)"/>
<path d="M149.033 94.3691C145.089 92.7675 141.275 90.6598 137.699 88.0351C116.756 72.6484 112.013 45.3312 127.11 27.0125C139.626 11.8282 161.86 7.60551 181.029 15.382C184.973 16.9836 188.787 19.0913 192.363 21.716C213.306 37.1027 218.049 64.4199 202.955 82.7314C190.436 97.9229 168.202 102.146 149.033 94.3691ZM185.305 4.8362C161.011 -5.0191 132.844 0.331546 116.976 19.5758C97.8587 42.7752 103.864 77.3916 130.4 96.8817C134.93 100.211 139.767 102.883 144.767 104.915C169.055 114.77 197.218 109.416 213.085 90.1753C232.207 66.9687 226.198 32.3595 199.665 12.8622C195.139 9.53609 190.305 6.86439 185.309 4.83982L185.305 4.8362Z" fill="url(#paint16_linear_2007_3)"/>
<path d="M180.508 29.8499L176.199 35.0704C174.167 33.5845 172.027 32.3806 169.785 31.4696C169.677 31.4262 169.565 31.3828 169.456 31.3394C167.092 30.4211 164.785 29.8824 162.529 29.727C160.277 29.5679 158.151 29.8463 156.155 30.5621C154.16 31.2779 152.421 32.5252 150.957 34.304C148.961 36.7334 147.905 39.0978 147.815 41.4116C147.717 43.7218 148.115 45.938 149.015 48.0602C149.908 50.186 151.13 52.1997 152.685 54.1086C154.236 56.0174 155.675 57.7636 156.994 59.3724C158.317 60.9812 159.337 62.4382 160.042 63.7542C160.747 65.0774 160.729 66.1764 159.995 67.0694C159.546 67.6081 158.809 67.8756 157.779 67.8575C157.287 67.8503 156.759 67.7346 156.188 67.5033C155.548 67.243 154.857 66.8416 154.12 66.2957C152.077 64.799 150.693 62.901 149.966 60.598C149.232 58.2951 149.409 55.9741 150.497 53.6494L141.239 46.8526L130.161 60.2871L139.417 67.0839L141.206 64.9039C142.526 67.6406 144.059 69.9942 145.787 71.9645L141.17 77.5646L148.393 82.8683L152.598 77.7707C154.8 79.2566 157.063 80.4894 159.373 81.4728C159.507 81.5306 159.64 81.5848 159.774 81.6391C161.947 82.5212 164.076 83.0563 166.166 83.2443C168.382 83.4431 170.479 83.1936 172.442 82.4814C174.413 81.7801 176.144 80.5219 177.648 78.6962C179.691 76.2233 180.765 73.8156 180.88 71.4548C181 69.094 180.598 66.8417 179.673 64.7014C178.758 62.5648 177.5 60.5113 175.909 58.5626C174.315 56.614 172.851 54.8208 171.52 53.1903C170.183 51.5525 169.131 50.0775 168.357 48.7688C167.594 47.4564 167.583 46.3537 168.317 45.4608C168.917 44.7377 169.753 44.4593 170.826 44.6365C171.264 44.7052 171.712 44.8317 172.164 45.0161C172.822 45.2836 173.494 45.6704 174.188 46.1802C175.114 46.8563 175.913 47.6842 176.589 48.6712C177.261 49.6473 177.764 50.6632 178.097 51.7261C178.422 52.7818 178.567 53.8627 178.505 54.969C178.447 56.0753 178.14 57.1093 177.583 58.0637L186.943 64.9364L197.76 51.8092L188.4 44.9365L186.556 47.178C186.209 46.3863 185.729 45.4788 185.103 44.4376C184.478 43.3964 183.7 42.301 182.775 41.1513L187.728 35.1463L180.508 29.8427V29.8499Z" fill="url(#paint17_linear_2007_3)"/>
<path d="M181.105 28.3746L176.795 33.5915C174.763 32.1056 172.623 30.9017 170.382 29.9943C170.273 29.9509 170.161 29.9075 170.053 29.8641C167.688 28.9494 165.382 28.4071 163.126 28.2553C160.873 28.0962 158.748 28.3746 156.752 29.0905C154.756 29.8063 153.017 31.0536 151.553 32.8359C149.557 35.2654 148.502 37.6298 148.411 39.9436C148.314 42.2537 148.711 44.4699 149.612 46.5921C150.505 48.7179 151.727 50.7316 153.281 52.6405C154.836 54.5458 156.271 56.2956 157.591 57.9044C158.91 59.5132 159.933 60.9701 160.638 62.2861C161.343 63.6093 161.325 64.7084 160.591 65.6014C160.143 66.14 159.405 66.4076 158.375 66.3895C157.883 66.3823 157.356 66.2665 156.784 66.0352C156.145 65.7749 155.454 65.3736 154.716 64.8277C152.674 63.3309 151.289 61.4329 150.562 59.13C149.829 56.827 150.006 54.506 151.094 52.1814L141.839 45.3846L130.761 58.819L140.017 65.6158L141.806 63.4358C143.126 66.1726 144.659 68.5297 146.387 70.4965L141.77 76.0966L148.99 81.4002L153.194 76.3026C155.396 77.7885 157.659 79.0213 159.969 80.0047C160.103 80.0625 160.237 80.1168 160.371 80.171C162.544 81.0531 164.673 81.5882 166.763 81.7762C168.979 81.975 171.072 81.7256 173.039 81.0134C175.009 80.312 176.741 79.0539 178.245 77.2281C180.287 74.7553 181.361 72.3475 181.477 69.9867C181.596 67.6259 181.195 65.3736 180.269 63.2333C179.355 61.0967 178.097 59.0432 176.506 57.0945C174.912 55.1459 173.447 53.3527 172.117 51.7222C170.779 50.0809 169.727 48.6094 168.953 47.3007C168.191 45.9884 168.18 44.8857 168.914 43.9927C169.514 43.2696 170.349 42.9913 171.423 43.1684C171.86 43.2371 172.305 43.3636 172.76 43.548C173.418 43.8156 174.091 44.2024 174.781 44.7121C175.707 45.3882 176.506 46.2161 177.186 47.2031C177.858 48.1792 178.361 49.1951 178.693 50.258C179.019 51.3137 179.163 52.3947 179.105 53.5009C179.047 54.6072 178.74 55.6412 178.183 56.5992L187.543 63.4719L198.36 50.3448L189 43.4721L187.157 45.7136C186.809 44.9218 186.329 44.0144 185.703 42.9732C185.078 41.932 184.3 40.8366 183.375 39.6869L188.328 33.6819L181.108 28.3782L181.105 28.3746Z" fill="url(#paint18_linear_2007_3)"/>
<g style="mix-blend-mode:screen">
<path d="M150.501 48.4471C150.186 47.8253 149.883 47.2035 149.612 46.5889C149.875 47.2179 150.179 47.8362 150.501 48.4471Z" fill="url(#paint19_linear_2007_3)"/>
</g>
<path style="mix-blend-mode:multiply" d="M116.046 20.7673C116.046 20.7673 116.032 20.7853 116.021 20.7926C112.583 24.9646 109.965 29.509 108.114 34.2668L108.096 34.2596L105.62 40.3766H105.627C96.6721 62.383 104.593 89.1723 126.78 105.47C131.343 108.825 136.216 111.515 141.252 113.561C165.721 123.489 194.09 118.095 210.069 98.7131C213.403 94.6712 215.959 90.275 217.799 85.6836C217.817 85.6402 217.839 85.6004 217.857 85.557H217.864L220.218 79.7581H220.21C222.257 74.9208 223.489 69.8486 223.916 64.6968C226.06 45.9623 217.517 25.9914 199.657 12.8678C195.127 9.54175 190.297 6.87366 185.298 4.84548C161.003 -5.00983 132.836 0.340824 116.968 19.5851C116.647 19.9755 116.347 20.3804 116.039 20.7781L116.046 20.7673Z" fill="url(#paint20_linear_2007_3)"/>
<path d="M432.855 67.3575C413.749 29.6271 373.82 6.29165 334.127 12.8871C286.294 20.8436 256.918 69.3152 268.539 121.137C270.523 129.988 273.574 138.364 277.505 146.126C296.606 183.846 336.53 207.182 376.218 200.586C424.061 192.619 453.427 144.153 441.817 92.3313C439.833 83.4902 436.786 75.1202 432.855 67.3575Z" fill="url(#paint21_linear_2007_3)"/>
<path d="M408.42 188.37L408.159 187.857C436.849 168.673 451.741 131.209 442.91 91.7883C440.927 82.9473 437.88 74.5773 433.949 66.8145C414.843 29.0841 374.914 5.74868 335.221 12.3442C330.327 13.1608 325.642 14.417 321.156 16.0397L320.883 15.5058L311.461 20.2849L311.472 20.3059C278.207 37.763 260.09 78.0373 269.632 120.594C271.616 129.445 274.668 137.821 278.599 145.583C297.7 183.303 337.629 206.639 377.312 200.043C385.242 198.724 392.654 196.269 399.469 192.893V192.903L408.42 188.376V188.37Z" fill="url(#paint22_linear_2007_3)"/>
<path d="M443.345 62.0562C424.239 24.3258 384.311 0.990381 344.617 7.58587C296.784 15.5423 267.408 64.0139 279.034 115.836C281.018 124.687 284.07 133.062 288.001 140.825C307.102 178.545 347.025 201.88 386.713 195.285C434.562 187.318 463.922 138.857 452.312 87.03C450.328 78.189 447.282 69.819 443.351 62.0562H443.345Z" fill="url(#paint23_linear_2007_3)"/>
<path d="M429.84 68.8562C422.658 54.6759 411.514 42.3434 397.187 34.12C361.325 13.5431 319.12 26.5143 302.893 63.0826C293.162 85.0413 295.004 110.512 305.793 131.817C312.974 145.997 324.119 158.335 338.451 166.553C374.297 187.125 416.518 174.159 432.73 137.585C442.471 115.632 440.628 90.1607 429.84 68.8562Z" fill="url(#paint24_linear_2007_3)"/>
<path d="M426.438 69.6051C419.355 55.6185 408.368 43.4535 394.235 35.3504C358.871 15.0562 317.246 27.8494 301.239 63.9152C291.639 85.5704 293.46 110.691 304.097 131.702C311.179 145.689 322.172 157.854 336.305 165.957C371.659 186.246 413.294 173.458 429.285 137.387C438.891 115.737 437.074 90.6164 426.432 69.6103L426.438 69.6051Z" fill="url(#paint25_radial_2007_3)"/>
<path style="mix-blend-mode:multiply" d="M426.438 69.6051C419.355 55.6185 408.368 43.4535 394.235 35.3504C358.871 15.0562 317.246 27.8494 301.239 63.9152C291.639 85.5704 293.46 110.691 304.097 131.702C311.179 145.689 322.172 157.854 336.305 165.957C371.659 186.246 413.294 173.458 429.285 137.387C438.891 115.737 437.074 90.6164 426.432 69.6103L426.438 69.6051Z" fill="url(#paint26_radial_2007_3)"/>
<path d="M307.086 131.141C304.003 125.058 301.616 118.5 300.066 111.569C290.964 70.9597 313.969 32.9885 351.464 26.749C382.552 21.5825 413.833 39.8667 428.799 69.4207C431.882 75.5032 434.269 82.0621 435.818 88.9926C444.921 129.602 421.915 167.578 384.431 173.807C353.338 178.979 322.046 160.695 307.086 131.141ZM445.057 61.1868C426.092 23.7339 386.452 0.565954 347.051 7.10909C299.564 15.008 270.408 63.1288 281.944 114.574C283.913 123.357 286.943 131.675 290.843 139.385C309.802 176.833 349.438 199.996 388.833 193.447C436.331 185.543 465.477 137.427 453.951 85.9775C451.982 77.1992 448.957 68.892 445.052 61.1868H445.057Z" fill="url(#paint27_linear_2007_3)"/>
<path d="M412.954 86.3445L402.26 88.1138C401.37 84.1774 400.051 80.4766 398.297 77.0219C398.213 76.8543 398.124 76.6868 398.04 76.5193C396.151 72.9232 393.931 69.8453 391.372 67.2857C388.822 64.726 385.964 62.8259 382.798 61.5905C379.636 60.3552 376.223 60.0359 372.58 60.6431C367.612 61.4754 363.849 63.2237 361.31 65.9194C358.766 68.6048 356.908 71.6983 355.767 75.2107C354.604 78.7178 353.966 82.4343 353.835 86.3707C353.704 90.307 353.599 93.9293 353.505 97.2585C353.411 100.588 353.107 103.425 352.573 105.754C352.034 108.089 350.857 109.397 349.03 109.706C347.925 109.884 346.753 109.434 345.523 108.324C344.936 107.801 344.418 107.099 343.978 106.225C343.481 105.236 343.068 104.027 342.748 102.592C341.858 98.6352 342.183 94.8872 343.722 91.3435C345.261 87.7892 347.915 85.1772 351.673 83.5126L347.648 65.5687L320.14 70.1385L324.166 88.0824L328.62 87.3338C327.333 92.0292 326.71 96.4838 326.725 100.682L315.257 102.587L318.397 116.59L328.84 114.857C329.934 118.966 331.368 122.84 333.127 126.451C333.227 126.661 333.331 126.87 333.436 127.074C335.132 130.419 337.142 133.314 339.466 135.737C341.937 138.308 344.727 140.213 347.847 141.422C350.961 142.652 354.379 142.951 358.112 142.328C363.179 141.49 367.005 139.71 369.633 136.983C372.26 134.256 374.145 131.115 375.281 127.556C376.422 124.012 377.066 120.212 377.191 116.186C377.317 112.156 377.437 108.45 377.542 105.084C377.652 101.697 377.929 98.8131 378.369 96.4157C378.83 94.0288 379.971 92.6835 381.798 92.3799C383.284 92.1339 384.588 92.6783 385.692 94.0235C386.148 94.5679 386.551 95.1908 386.907 95.887C387.42 96.9025 387.828 98.0803 388.126 99.4203C388.535 101.211 388.624 103.053 388.409 104.953C388.194 106.838 387.728 108.596 387.017 110.224C386.294 111.842 385.336 113.297 384.101 114.574C382.866 115.851 381.41 116.778 379.73 117.343L383.803 135.486L410.671 131.016L406.599 112.873L402.014 113.642C402.427 112.323 402.804 110.722 403.144 108.806C403.484 106.89 403.699 104.749 403.788 102.388L416.084 100.347L412.943 86.3445H412.954Z" fill="url(#paint28_linear_2007_3)"/>
<path d="M415.225 85.1917L404.531 86.9609C403.641 83.0246 402.322 79.3238 400.569 75.869C400.485 75.7015 400.396 75.534 400.307 75.3665C398.417 71.7704 396.198 68.6925 393.638 66.1381C391.089 63.5784 388.231 61.6783 385.064 60.4377C381.902 59.2023 378.489 58.883 374.846 59.4902C369.879 60.3225 366.115 62.0708 363.576 64.7666C361.032 67.4519 359.174 70.5455 358.033 74.0579C356.871 77.565 356.232 81.2815 356.101 85.2179C355.971 89.1542 355.866 92.7765 355.772 96.1056C355.677 99.4348 355.374 102.272 354.84 104.601C354.296 106.936 353.123 108.244 351.296 108.553C350.192 108.731 349.019 108.281 347.789 107.171C347.203 106.648 346.685 105.947 346.245 105.072C345.742 104.088 345.334 102.874 345.015 101.44C344.12 97.4823 344.449 93.7344 345.988 90.1906C347.527 86.6364 350.181 84.0244 353.94 82.3598L349.914 64.4159L322.407 68.9856L326.432 86.9295L330.887 86.181C329.599 90.8764 328.976 95.3309 328.992 99.529L317.528 101.434L320.669 115.437L331.107 113.704C332.201 117.813 333.635 121.687 335.394 125.299C335.493 125.508 335.598 125.717 335.703 125.921C337.399 129.272 339.409 132.161 341.733 134.585C344.203 137.155 346.993 139.06 350.113 140.269C353.228 141.499 356.646 141.798 360.378 141.175C365.445 140.337 369.272 138.558 371.899 135.836C374.527 133.108 376.411 129.968 377.547 126.408C378.688 122.864 379.332 119.064 379.458 115.039C379.583 111.008 379.704 107.302 379.809 103.936C379.918 100.55 380.196 97.6655 380.636 95.2681C381.096 92.8812 382.237 91.5359 384.064 91.2323C385.551 90.9863 386.854 91.5307 387.959 92.8759C388.414 93.4203 388.822 94.0432 389.173 94.7394C389.686 95.7549 390.094 96.9275 390.393 98.2727C390.801 100.063 390.89 101.905 390.67 103.806C390.456 105.69 389.995 107.449 389.278 109.077C388.555 110.694 387.597 112.149 386.362 113.421C385.127 114.699 383.672 115.625 381.991 116.19L386.064 134.333L412.938 129.863L408.865 111.72L404.28 112.49C404.693 111.171 405.07 109.569 405.411 107.653C405.751 105.737 405.965 103.596 406.054 101.235L418.35 99.194L415.21 85.1917H415.225Z" fill="url(#paint29_linear_2007_3)"/>
<g style="mix-blend-mode:screen">
<path d="M357.164 77.2358C357.437 76.1523 357.73 75.0897 358.044 74.0532C357.698 75.0949 357.416 76.1575 357.164 77.2358Z" fill="url(#paint30_linear_2007_3)"/>
</g>
<path style="mix-blend-mode:multiply" d="M344.674 7.57495C344.674 7.57495 344.632 7.57495 344.617 7.58019C336.074 9.00397 328.133 11.7364 320.899 15.5314L320.883 15.5052L311.461 20.2843V20.2948C277.51 37.4431 258.896 78.1205 268.544 121.132C270.527 129.984 273.579 138.359 277.51 146.122C296.611 183.842 336.54 207.177 376.223 200.582C384.504 199.205 392.209 196.588 399.27 192.976C399.333 192.945 399.406 192.919 399.469 192.887V192.898L408.42 188.365V188.354C415.974 184.669 422.794 179.837 428.73 174.064C451.024 153.702 461.713 120.599 453.955 85.967C451.987 77.1887 448.962 68.8815 445.057 61.1763C426.092 23.7234 386.451 0.555471 347.051 7.10384C346.25 7.23994 345.47 7.41268 344.68 7.56448L344.674 7.57495Z" fill="url(#paint31_linear_2007_3)"/>
<defs>
<linearGradient id="paint0_linear_2007_3" x1="66.7692" y1="195.743" x2="-2.49881" y2="169.555" gradientUnits="userSpaceOnUse">
<stop offset="0.16" stop-color="#FFF8C7"/>
<stop offset="0.2" stop-color="#FEF5C1"/>
<stop offset="0.25" stop-color="#FEEFB1"/>
<stop offset="0.3" stop-color="#FDE596"/>
<stop offset="0.36" stop-color="#FDD870"/>
<stop offset="0.42" stop-color="#FBC641"/>
<stop offset="0.47" stop-color="#FBB718"/>
<stop offset="0.54" stop-color="#B15D1F"/>
<stop offset="0.56" stop-color="#9E4522"/>
<stop offset="0.61" stop-color="#A04A23"/>
<stop offset="0.65" stop-color="#DB9723"/>
<stop offset="0.66" stop-color="#FDC223"/>
<stop offset="0.81" stop-color="#E89C23"/>
<stop offset="0.82" stop-color="#ECAA31"/>
<stop offset="0.84" stop-color="#F3C147"/>
<stop offset="0.85" stop-color="#F8D157"/>
<stop offset="0.87" stop-color="#FCDA61"/>
<stop offset="0.9" stop-color="#FDDE64"/>
<stop offset="1" stop-color="#FCC744"/>
</linearGradient>
<linearGradient id="paint1_linear_2007_3" x1="76.0286" y1="156.63" x2="-14.2802" y2="205.745" gradientUnits="userSpaceOnUse">
<stop stop-color="#EBAB21"/>
<stop offset="0.08" stop-color="#FFC62A"/>
<stop offset="0.15" stop-color="#FFD75A"/>
<stop offset="0.41" stop-color="#FFF5A6"/>
<stop offset="0.42" stop-color="#FEF0A0"/>
<stop offset="0.44" stop-color="#FCE490"/>
<stop offset="0.47" stop-color="#F9CF75"/>
<stop offset="0.49" stop-color="#F5B34F"/>
<stop offset="0.52" stop-color="#F08F21"/>
<stop offset="0.56" stop-color="#C95127"/>
<stop offset="0.61" stop-color="#A14F24"/>
<stop offset="0.65" stop-color="#EAA622"/>
<stop offset="0.66" stop-color="#F1B637"/>
<stop offset="0.67" stop-color="#F8C84F"/>
<stop offset="0.68" stop-color="#FDD35D"/>
<stop offset="0.69" stop-color="#FFD762"/>
<stop offset="0.73" stop-color="#FFD660"/>
<stop offset="0.75" stop-color="#FFD559"/>
<stop offset="0.76" stop-color="#FFD24D"/>
<stop offset="0.77" stop-color="#FFCC2C"/>
<stop offset="0.78" stop-color="#FBC52B"/>
<stop offset="0.8" stop-color="#F2B429"/>
<stop offset="0.82" stop-color="#E6A133"/>
<stop offset="0.83" stop-color="#F5CB5D"/>
<stop offset="0.84" stop-color="#F9D86B"/>
<stop offset="0.85" stop-color="#FCDF72"/>
<stop offset="0.86" stop-color="#FDE275"/>
<stop offset="0.94" stop-color="#FDE47F"/>
<stop offset="1" stop-color="#FED84C"/>
</linearGradient>
<linearGradient id="paint2_linear_2007_3" x1="60.7247" y1="183.769" x2="-9.71357" y2="157.139" gradientUnits="userSpaceOnUse">
<stop offset="0.16" stop-color="#DD8326"/>
<stop offset="0.21" stop-color="#DF8824"/>
<stop offset="0.27" stop-color="#E69821"/>
<stop offset="0.35" stop-color="#F1B31B"/>
<stop offset="0.37" stop-color="#F6BD1A"/>
<stop offset="0.43" stop-color="#F4AD1C"/>
<stop offset="0.47" stop-color="#F4A01E"/>
<stop offset="0.54" stop-color="#9E4322"/>
<stop offset="0.61" stop-color="#A04A23"/>
<stop offset="0.71" stop-color="#FFC527"/>
<stop offset="1" stop-color="#B56628"/>
</linearGradient>
<linearGradient id="paint3_linear_2007_3" x1="67.5338" y1="140.733" x2="-9.09583" y2="182.409" gradientUnits="userSpaceOnUse">
<stop offset="0.16" stop-color="#D07D28"/>
<stop offset="0.23" stop-color="#CB7727"/>
<stop offset="0.31" stop-color="#BD6725"/>
<stop offset="0.41" stop-color="#A64C22"/>
<stop offset="0.43" stop-color="#9E4322"/>
<stop offset="0.61" stop-color="#A04A23"/>
<stop offset="1" stop-color="#BB5427"/>
</linearGradient>
<radialGradient id="paint4_radial_2007_3" cx="0" cy="0" r="1" gradientUnits="userSpaceOnUse" gradientTransform="translate(19.8568 180.296) rotate(151.46) scale(39.9593 16.9293)">
<stop stop-color="#DDA027"/>
<stop offset="1" stop-color="#C87729"/>
</radialGradient>
<radialGradient id="paint5_radial_2007_3" cx="0" cy="0" r="1" gradientUnits="userSpaceOnUse" gradientTransform="translate(7.74919 162.797) rotate(151.46) scale(58.2411 33.7887)">
<stop stop-color="white"/>
<stop offset="0.59" stop-color="white"/>
<stop offset="0.69" stop-color="white"/>
<stop offset="0.8" stop-color="#FEFDFD"/>
<stop offset="0.85" stop-color="#FCF8F6"/>
<stop offset="0.88" stop-color="#F8F0EA"/>
<stop offset="0.91" stop-color="#F2E4D9"/>
<stop offset="0.93" stop-color="#EBD5C3"/>
<stop offset="0.95" stop-color="#E3C2A7"/>
<stop offset="0.96" stop-color="#D8AB87"/>
<stop offset="0.98" stop-color="#CC9061"/>
<stop offset="1" stop-color="#BA6928"/>
</radialGradient>
<linearGradient id="paint6_linear_2007_3" x1="45.121" y1="115.185" x2="10.4411" y2="206.914" gradientUnits="userSpaceOnUse">
<stop stop-color="#E79824"/>
<stop offset="0.41" stop-color="#F5B21A"/>
<stop offset="0.52" stop-color="#F2AC1B"/>
<stop offset="0.67" stop-color="#EA9C20"/>
<stop offset="0.77" stop-color="#E48E25"/>
<stop offset="1" stop-color="#D36827"/>
</linearGradient>
<linearGradient id="paint7_linear_2007_3" x1="5.96164" y1="180.818" x2="43.4211" y2="160.445" gradientUnits="userSpaceOnUse">
<stop offset="0.01" stop-color="#A14323"/>
<stop offset="0.06" stop-color="#A54B24"/>
<stop offset="0.13" stop-color="#B06227"/>
<stop offset="0.16" stop-color="#B66D29"/>
<stop offset="0.27" stop-color="#B26728"/>
<stop offset="0.41" stop-color="#A95725"/>
<stop offset="0.54" stop-color="#9E4322"/>
<stop offset="0.61" stop-color="#A04A23"/>
<stop offset="0.71" stop-color="#B35E27"/>
<stop offset="1" stop-color="#9E5B25"/>
</linearGradient>
<linearGradient id="paint8_linear_2007_3" x1="14.0458" y1="150.162" x2="35.2754" y2="189.197" gradientUnits="userSpaceOnUse">
<stop stop-color="#EEA620"/>
<stop offset="0.41" stop-color="#FFC60A"/>
<stop offset="0.52" stop-color="#FCC00D"/>
<stop offset="0.66" stop-color="#F5B016"/>
<stop offset="0.77" stop-color="#EE9F21"/>
<stop offset="1" stop-color="#C16D29"/>
</linearGradient>
<linearGradient id="paint9_linear_2007_3" x1="13.0783" y1="138.212" x2="-37.0316" y2="15.2325" gradientUnits="userSpaceOnUse">
<stop stop-color="white"/>
<stop offset="0.11" stop-color="#FCFAF9"/>
<stop offset="0.24" stop-color="#F5ECEB"/>
<stop offset="0.39" stop-color="#E9D5D2"/>
<stop offset="0.54" stop-color="#D8B5B0"/>
<stop offset="0.7" stop-color="#C38C85"/>
<stop offset="0.86" stop-color="#A95B50"/>
<stop offset="1" stop-color="#902B1D"/>
</linearGradient>
<linearGradient id="paint10_linear_2007_3" x1="208.401" y1="101.022" x2="115.588" y2="25.0286" gradientUnits="userSpaceOnUse">
<stop offset="0.16" stop-color="#FFF8C7"/>
<stop offset="0.2" stop-color="#FEF5C1"/>
<stop offset="0.25" stop-color="#FEEFB1"/>
<stop offset="0.3" stop-color="#FDE596"/>
<stop offset="0.36" stop-color="#FDD870"/>
<stop offset="0.42" stop-color="#FBC641"/>
<stop offset="0.47" stop-color="#FBB718"/>
<stop offset="0.54" stop-color="#B15D1F"/>
<stop offset="0.56" stop-color="#9E4522"/>
<stop offset="0.61" stop-color="#A04A23"/>
<stop offset="0.65" stop-color="#DB9723"/>
<stop offset="0.66" stop-color="#FDC223"/>
<stop offset="0.81" stop-color="#E89C23"/>
<stop offset="0.82" stop-color="#ECAA31"/>
<stop offset="0.84" stop-color="#F3C147"/>
<stop offset="0.85" stop-color="#F8D157"/>
<stop offset="0.87" stop-color="#FCDA61"/>
<stop offset="0.9" stop-color="#FDDE64"/>
<stop offset="1" stop-color="#FCC744"/>
</linearGradient>
<linearGradient id="paint11_linear_2007_3" x1="105.986" y1="39.9071" x2="218.109" y2="85.3899" gradientUnits="userSpaceOnUse">
<stop stop-color="#EBAB21"/>
<stop offset="0.08" stop-color="#FFC62A"/>
<stop offset="0.15" stop-color="#FFD75A"/>
<stop offset="0.41" stop-color="#FFF5A6"/>
<stop offset="0.42" stop-color="#FEF0A0"/>
<stop offset="0.44" stop-color="#FCE490"/>
<stop offset="0.47" stop-color="#F9CF75"/>
<stop offset="0.49" stop-color="#F5B34F"/>
<stop offset="0.52" stop-color="#F08F21"/>
<stop offset="0.56" stop-color="#C95127"/>
<stop offset="0.61" stop-color="#A14F24"/>
<stop offset="0.65" stop-color="#EAA622"/>
<stop offset="0.66" stop-color="#F1B637"/>
<stop offset="0.67" stop-color="#F8C84F"/>
<stop offset="0.68" stop-color="#FDD35D"/>
<stop offset="0.69" stop-color="#FFD762"/>
<stop offset="0.73" stop-color="#FFD660"/>
<stop offset="0.75" stop-color="#FFD559"/>
<stop offset="0.76" stop-color="#FFD24D"/>
<stop offset="0.77" stop-color="#FFCC2C"/>
<stop offset="0.78" stop-color="#FBC52B"/>
<stop offset="0.8" stop-color="#F2B429"/>
<stop offset="0.82" stop-color="#E6A133"/>
<stop offset="0.83" stop-color="#F5CB5D"/>
<stop offset="0.84" stop-color="#F9D86B"/>
<stop offset="0.85" stop-color="#FCDF72"/>
<stop offset="0.86" stop-color="#FDE275"/>
<stop offset="0.94" stop-color="#FDE47F"/>
<stop offset="1" stop-color="#FED84C"/>
</linearGradient>
<linearGradient id="paint12_linear_2007_3" x1="211.167" y1="94.2266" x2="118.354" y2="18.2329" gradientUnits="userSpaceOnUse">
<stop offset="0.16" stop-color="#DD8326"/>
<stop offset="0.21" stop-color="#DF8824"/>
<stop offset="0.27" stop-color="#E69821"/>
<stop offset="0.35" stop-color="#F1B31B"/>
<stop offset="0.37" stop-color="#F6BD1A"/>
<stop offset="0.43" stop-color="#F4AD1C"/>
<stop offset="0.47" stop-color="#F4A01E"/>
<stop offset="0.54" stop-color="#9E4322"/>
<stop offset="0.61" stop-color="#A04A23"/>
<stop offset="0.71" stop-color="#FFC527"/>
<stop offset="1" stop-color="#B56628"/>
</linearGradient>
<linearGradient id="paint13_linear_2007_3" x1="202.462" y1="85.2442" x2="128.178" y2="24.4217" gradientUnits="userSpaceOnUse">
<stop offset="0.16" stop-color="#D07D28"/>
<stop offset="0.23" stop-color="#CB7727"/>
<stop offset="0.31" stop-color="#BD6725"/>
<stop offset="0.41" stop-color="#A64C22"/>
<stop offset="0.43" stop-color="#9E4322"/>
<stop offset="0.61" stop-color="#A04A23"/>
<stop offset="1" stop-color="#BB5427"/>
</linearGradient>
<radialGradient id="paint14_radial_2007_3" cx="0" cy="0" r="1" gradientUnits="userSpaceOnUse" gradientTransform="translate(162.802 53.7481) rotate(-140.69) scale(47.4219 47.4219)">
<stop stop-color="#DDA027"/>
<stop offset="1" stop-color="#C87729"/>
</radialGradient>
<radialGradient id="paint15_radial_2007_3" cx="0" cy="0" r="1" gradientUnits="userSpaceOnUse" gradientTransform="translate(187.941 29.8533) rotate(-140.69) scale(74.7463 74.7463)">
<stop stop-color="white"/>
<stop offset="0.66" stop-color="white"/>
<stop offset="0.77" stop-color="white"/>
<stop offset="0.85" stop-color="#FEFDFD"/>
<stop offset="0.89" stop-color="#FCF8F6"/>
<stop offset="0.91" stop-color="#F8F0EA"/>
<stop offset="0.93" stop-color="#F2E4D9"/>
<stop offset="0.95" stop-color="#EBD5C3"/>
<stop offset="0.96" stop-color="#E3C2A7"/>
<stop offset="0.97" stop-color="#D8AB87"/>
<stop offset="0.99" stop-color="#CC9061"/>
<stop offset="1" stop-color="#BA6928"/>
</radialGradient>
<linearGradient id="paint16_linear_2007_3" x1="130.811" y1="96.9468" x2="200.153" y2="12.2568" gradientUnits="userSpaceOnUse">
<stop stop-color="#EEA620"/>
<stop offset="0.41" stop-color="#FFC60A"/>
<stop offset="0.53" stop-color="#FCC00C"/>
<stop offset="0.7" stop-color="#F5B012"/>
<stop offset="0.88" stop-color="#E9951D"/>
<stop offset="1" stop-color="#E08126"/>
</linearGradient>
<linearGradient id="paint17_linear_2007_3" x1="184.374" y1="6.33057" x2="143.644" y2="106.738" gradientUnits="userSpaceOnUse">
<stop offset="0.16" stop-color="#C87829"/>
<stop offset="0.26" stop-color="#C37228"/>
<stop offset="0.38" stop-color="#B66226"/>
<stop offset="0.52" stop-color="#A14722"/>
<stop offset="0.54" stop-color="#9E4322"/>
<stop offset="0.61" stop-color="#A04A23"/>
<stop offset="0.71" stop-color="#B35E27"/>
<stop offset="1" stop-color="#9E5B25"/>
</linearGradient>
<linearGradient id="paint18_linear_2007_3" x1="183.619" y1="8.193" x2="144.011" y2="105.833" gradientUnits="userSpaceOnUse">
<stop stop-color="#EEA620"/>
<stop offset="0.41" stop-color="#FFC60A"/>
<stop offset="0.52" stop-color="#FCC00D"/>
<stop offset="0.66" stop-color="#F5B016"/>
<stop offset="0.77" stop-color="#EE9F21"/>
<stop offset="1" stop-color="#C16D29"/>
</linearGradient>
<linearGradient id="paint19_linear_2007_3" x1="150.581" y1="46.6637" x2="149.683" y2="48.8781" gradientUnits="userSpaceOnUse">
<stop stop-color="#B7B7B8"/>
<stop offset="1" stop-color="#010101"/>
</linearGradient>
<linearGradient id="paint20_linear_2007_3" x1="164.416" y1="-25.6256" x2="165.783" y2="-146.063" gradientUnits="userSpaceOnUse">
<stop stop-color="white"/>
<stop offset="0.11" stop-color="#FCFAF9"/>
<stop offset="0.24" stop-color="#F5ECEB"/>
<stop offset="0.39" stop-color="#E9D5D2"/>
<stop offset="0.54" stop-color="#D8B5B0"/>
<stop offset="0.7" stop-color="#C38C85"/>
<stop offset="0.86" stop-color="#A95B50"/>
<stop offset="1" stop-color="#902B1D"/>
</linearGradient>
<linearGradient id="paint21_linear_2007_3" x1="429.413" y1="166.991" x2="281.889" y2="46.2001" gradientUnits="userSpaceOnUse">
<stop offset="0.16" stop-color="#FFF8C7"/>
<stop offset="0.2" stop-color="#FEF5C1"/>
<stop offset="0.25" stop-color="#FEEFB1"/>
<stop offset="0.3" stop-color="#FDE596"/>
<stop offset="0.36" stop-color="#FDD870"/>
<stop offset="0.42" stop-color="#FBC641"/>
<stop offset="0.47" stop-color="#FBB718"/>
<stop offset="0.54" stop-color="#B15D1F"/>
<stop offset="0.56" stop-color="#9E4522"/>
<stop offset="0.61" stop-color="#A04A23"/>
<stop offset="0.65" stop-color="#DB9723"/>
<stop offset="0.66" stop-color="#FDC223"/>
<stop offset="0.81" stop-color="#E89C23"/>
<stop offset="0.82" stop-color="#ECAA31"/>
<stop offset="0.84" stop-color="#F3C147"/>
<stop offset="0.85" stop-color="#F8D157"/>
<stop offset="0.87" stop-color="#FCDA61"/>
<stop offset="0.9" stop-color="#FDDE64"/>
<stop offset="1" stop-color="#FCC744"/>
</linearGradient>
<linearGradient id="paint22_linear_2007_3" x1="312.568" y1="19.6567" x2="400.081" y2="192.528" gradientUnits="userSpaceOnUse">
<stop stop-color="#EBAB21"/>
<stop offset="0.08" stop-color="#FFC62A"/>
<stop offset="0.15" stop-color="#FFD75A"/>
<stop offset="0.41" stop-color="#FFF5A6"/>
<stop offset="0.42" stop-color="#FEF0A0"/>
<stop offset="0.44" stop-color="#FCE490"/>
<stop offset="0.47" stop-color="#F9CF75"/>
<stop offset="0.49" stop-color="#F5B34F"/>
<stop offset="0.52" stop-color="#F08F21"/>
<stop offset="0.56" stop-color="#C95127"/>
<stop offset="0.61" stop-color="#A14F24"/>
<stop offset="0.65" stop-color="#EAA622"/>
<stop offset="0.66" stop-color="#F1B637"/>
<stop offset="0.67" stop-color="#F8C84F"/>
<stop offset="0.68" stop-color="#FDD35D"/>
<stop offset="0.69" stop-color="#FFD762"/>
<stop offset="0.73" stop-color="#FFD660"/>
<stop offset="0.75" stop-color="#FFD559"/>
<stop offset="0.76" stop-color="#FFD24D"/>
<stop offset="0.77" stop-color="#FFCC2C"/>
<stop offset="0.78" stop-color="#FBC52B"/>
<stop offset="0.8" stop-color="#F2B429"/>
<stop offset="0.82" stop-color="#E6A133"/>
<stop offset="0.83" stop-color="#F5CB5D"/>
<stop offset="0.84" stop-color="#F9D86B"/>
<stop offset="0.85" stop-color="#FCDF72"/>
<stop offset="0.86" stop-color="#FDE275"/>
<stop offset="0.94" stop-color="#FDE47F"/>
<stop offset="1" stop-color="#FED84C"/>
</linearGradient>
<linearGradient id="paint23_linear_2007_3" x1="439.899" y1="161.688" x2="292.374" y2="40.8976" gradientUnits="userSpaceOnUse">
<stop offset="0.16" stop-color="#DD8326"/>
<stop offset="0.21" stop-color="#DF8824"/>
<stop offset="0.27" stop-color="#E69821"/>
<stop offset="0.35" stop-color="#F1B31B"/>
<stop offset="0.37" stop-color="#F6BD1A"/>
<stop offset="0.43" stop-color="#F4AD1C"/>
<stop offset="0.47" stop-color="#F4A01E"/>
<stop offset="0.54" stop-color="#9E4322"/>
<stop offset="0.61" stop-color="#A04A23"/>
<stop offset="0.71" stop-color="#FFC527"/>
<stop offset="1" stop-color="#B56628"/>
</linearGradient>
<linearGradient id="paint24_linear_2007_3" x1="427.329" y1="148.535" x2="309.248" y2="51.8525" gradientUnits="userSpaceOnUse">
<stop offset="0.16" stop-color="#D07D28"/>
<stop offset="0.23" stop-color="#CB7727"/>
<stop offset="0.31" stop-color="#BD6725"/>
<stop offset="0.41" stop-color="#A64C22"/>
<stop offset="0.43" stop-color="#9E4322"/>
<stop offset="0.61" stop-color="#A04A23"/>
<stop offset="1" stop-color="#BB5427"/>
</linearGradient>
<radialGradient id="paint25_radial_2007_3" cx="0" cy="0" r="1" gradientUnits="userSpaceOnUse" gradientTransform="translate(363.456 96.8796) rotate(-140.69) scale(75.9685 75.9685)">
<stop stop-color="#DDA027"/>
<stop offset="1" stop-color="#C87729"/>
</radialGradient>
<radialGradient id="paint26_radial_2007_3" cx="0" cy="0" r="1" gradientUnits="userSpaceOnUse" gradientTransform="translate(403.985 58.1962) rotate(-140.69) scale(118.865 118.865)">
<stop stop-color="white"/>
<stop offset="0.66" stop-color="white"/>
<stop offset="0.77" stop-color="white"/>
<stop offset="0.85" stop-color="#FEFDFD"/>
<stop offset="0.89" stop-color="#FCF8F6"/>
<stop offset="0.91" stop-color="#F8F0EA"/>
<stop offset="0.93" stop-color="#F2E4D9"/>
<stop offset="0.95" stop-color="#EBD5C3"/>
<stop offset="0.96" stop-color="#E3C2A7"/>
<stop offset="0.97" stop-color="#D8AB87"/>
<stop offset="0.99" stop-color="#CC9061"/>
<stop offset="1" stop-color="#BA6928"/>
</radialGradient>
<linearGradient id="paint27_linear_2007_3" x1="312.612" y1="168.296" x2="424.618" y2="31.5" gradientUnits="userSpaceOnUse">
<stop stop-color="#EEA620"/>
<stop offset="0.41" stop-color="#FFC60A"/>
<stop offset="0.53" stop-color="#FCC00C"/>
<stop offset="0.7" stop-color="#F5B012"/>
<stop offset="0.88" stop-color="#E9951D"/>
<stop offset="1" stop-color="#E08126"/>
</linearGradient>
<linearGradient id="paint28_linear_2007_3" x1="442.635" y1="61.4658" x2="287.822" y2="139.837" gradientUnits="userSpaceOnUse">
<stop offset="0.16" stop-color="#C87829"/>
<stop offset="0.26" stop-color="#C37228"/>
<stop offset="0.38" stop-color="#B66226"/>
<stop offset="0.52" stop-color="#A14722"/>
<stop offset="0.54" stop-color="#9E4322"/>
<stop offset="0.61" stop-color="#A04A23"/>
<stop offset="0.71" stop-color="#B35E27"/>
<stop offset="1" stop-color="#9E5B25"/>
</linearGradient>
<linearGradient id="paint29_linear_2007_3" x1="439.762" y1="62.9185" x2="289.214" y2="139.131" gradientUnits="userSpaceOnUse">
<stop stop-color="#EEA620"/>
<stop offset="0.41" stop-color="#FFC60A"/>
<stop offset="0.52" stop-color="#FCC00D"/>
<stop offset="0.66" stop-color="#F5B016"/>
<stop offset="0.77" stop-color="#EE9F21"/>
<stop offset="1" stop-color="#C16D29"/>
</linearGradient>
<linearGradient id="paint30_linear_2007_3" x1="359.299" y1="74.7292" x2="355.885" y2="76.4577" gradientUnits="userSpaceOnUse">
<stop stop-color="#B7B7B8"/>
<stop offset="1" stop-color="#010101"/>
</linearGradient>
<linearGradient id="paint31_linear_2007_3" x1="268.439" y1="-7.50664" x2="84.2578" y2="-226.661" gradientUnits="userSpaceOnUse">
<stop stop-color="white"/>
<stop offset="0.11" stop-color="#FCFAF9"/>
<stop offset="0.24" stop-color="#F5ECEB"/>
<stop offset="0.39" stop-color="#E9D5D2"/>
<stop offset="0.54" stop-color="#D8B5B0"/>
<stop offset="0.7" stop-color="#C38C85"/>
<stop offset="0.86" stop-color="#A95B50"/>
<stop offset="1" stop-color="#902B1D"/>
</linearGradient>
</defs>
</svg>
