<svg width="15" height="14" viewBox="0 0 15 14" fill="none" xmlns="http://www.w3.org/2000/svg">
<g clip-path="url(#clip0_0_4475)">
<path d="M7.72257 0C3.87455 0 0.755127 3.134 0.755127 7C0.755127 10.866 3.87455 14 7.72257 14C11.5706 14 14.69 10.866 14.69 7C14.69 3.134 11.5706 0 7.72257 0ZM7.72257 13.125C4.35555 13.125 1.62606 10.3827 1.62606 7C1.62606 3.61725 4.35555 0.875 7.72257 0.875C11.0896 0.875 13.8191 3.61725 13.8191 7C13.8191 10.3827 11.0896 13.125 7.72257 13.125Z" fill="#181364"/>
<path d="M6.72094 3.19336L6.10693 3.81023L9.28583 6.99961L6.11129 10.1933L6.72529 10.8102L10.2047 7.31023C10.3735 7.13958 10.3735 6.86401 10.2047 6.69336L6.72094 3.19336Z" fill="#181364"/>
</g>
<defs>
<clipPath id="clip0_0_4475">
<rect width="14" height="14" fill="white" transform="translate(0.689941)"/>
</clipPath>
</defs>
</svg>
